<?xml version="1.0" standalone="no"?>
<!DOCTYPE svg PUBLIC "-//W3C//DTD SVG 1.1//EN" "http://www.w3.org/Graphics/SVG/1.1/DTD/svg11.dtd" >
<svg>
<metadata>
Created by FontForge 20090622 at Sat Sep  7 18:05:27 2019
 By deploy user
Copyright \(c\) 2018 by Colophon Foundry. All rights reserved.
</metadata>
<defs>
<font id="iCielMabryPro-Regular" horiz-adv-x="0" >
  <font-face 
    font-family="iCiel Mabry Pro"
    font-weight="400"
    font-stretch="normal"
    units-per-em="1000"
    panose-1="2 13 5 3 4 0 2 4 3 3"
    ascent="792"
    descent="-208"
    x-height="474"
    cap-height="700"
    bbox="-965 -258 1727 1091.04"
    underline-thickness="62"
    underline-position="-98"
    unicode-range="U+0020-U+1F610"
  />
<missing-glyph horiz-adv-x="590" 
d="M45 700h500v-700h-500v700zM430 635h-270l135 -219zM110 115l144 235l-144 235v-470zM480 585l-145 -235l145 -235v470zM430 65l-135 219l-135 -219h270z" />
    <glyph glyph-name="f_f" unicode="ff" horiz-adv-x="630" 
d="M117 401h-106v73h106v72q0 75 44.5 119.5t121.5 44.5q41 0 74 -14.5t49 -39.5q35 54 115 54q76 0 116.5 -38t40.5 -102q0 -16 -1 -22h-81q1 5 1 18q0 34 -20.5 52.5t-55.5 18.5q-75 0 -75 -93v-70h134v-73h-134v-401h-86v401h-156v-401h-87v401zM360 474v84q0 79 -76 79
q-38 0 -59 -24.5t-21 -69.5v-69h156z" />
    <glyph glyph-name="fi" unicode="fi" horiz-adv-x="507" 
d="M446 0h-87v401h-156v-401h-86v401h-106v73h106v72q0 75 42.5 119.5t118.5 44.5t116.5 -38t40.5 -102q0 -16 -1 -22h-81l1 18q0 34 -20.5 52.5t-55.5 18.5q-75 0 -75 -93v-70h243v-474z" />
    <glyph glyph-name="fl" unicode="fl" horiz-adv-x="513" 
d="M117 401h-106v73h106v79q0 73 42.5 115t122.5 42q79 0 121.5 -42t42.5 -115v-553h-86v550q0 42 -20 64.5t-58 22.5q-78 0 -78 -87v-76h101v-73h-101v-401h-87v401z" />
    <glyph glyph-name="f_f_i" unicode="ffi" horiz-adv-x="751" 
d="M117 401h-106v73h106v72q0 75 44.5 119.5t121.5 44.5q89 0 123 -54q38 54 115 54q76 0 116.5 -38t40.5 -102q0 -16 -1 -22h-81l1 18q0 34 -20.5 52.5t-55.5 18.5q-75 0 -75 -93v-70h243v-474h-87v401h-156v-401h-86v401h-156v-401h-87v401zM360 474v84q0 79 -76 79
q-38 0 -59 -24.5t-21 -69.5v-69h156z" />
    <glyph glyph-name="f_f_l" unicode="ffl" horiz-adv-x="756" 
d="M117 401h-106v73h106v72q0 75 44.5 119.5t121.5 44.5q86 0 122 -54q35 54 119 54q80 0 122.5 -42t42.5 -115v-553h-87v550q0 87 -78 87q-38 0 -58 -22.5t-20 -64.5v-76h102v-73h-102v-401h-86v401h-156v-401h-87v401zM360 474v84q0 79 -76 79q-38 0 -59 -24.5t-21 -69.5
v-69h156z" />
    <glyph glyph-name=".notdef" horiz-adv-x="590" 
d="M45 700h500v-700h-500v700zM430 635h-270l135 -219zM110 115l144 235l-144 235v-470zM480 585l-145 -235l145 -235v470zM430 65l-135 219l-135 -219h270z" />
    <glyph glyph-name=".null" 
 />
    <glyph glyph-name="nonmarkingreturn" horiz-adv-x="333" 
 />
    <glyph glyph-name="space" unicode=" " horiz-adv-x="245" 
 />
    <glyph glyph-name="exclam" unicode="!" horiz-adv-x="236" 
d="M75 700h86v-525h-86v525zM66 105h104v-105h-104v105z" />
    <glyph glyph-name="quotedbl" unicode="&#x22;" horiz-adv-x="352" 
d="M54 593v107h92v-107l-22 -128h-48zM206 593v107h92v-107l-22 -128h-48z" />
    <glyph glyph-name="numbersign" unicode="#" horiz-adv-x="785" 
d="M53 208v78h167l25 127h-162v78h178l42 209h82l-42 -209h145l42 209h82l-42 -209h162v-78h-178l-25 -127h173v-78h-189l-41 -208h-82l41 208h-145l-41 -208h-82l41 208h-151zM447 286l25 127h-145l-25 -127h145z" />
    <glyph glyph-name="dollar" unicode="$" horiz-adv-x="623" 
d="M368 -98h-83v91q-91 12 -159 65.5t-97 147.5l82 45q43 -150 174 -173v244q-200 47 -200 202q0 70 55.5 122.5t144.5 61.5v90h83v-92q71 -11 122 -53t75 -109l-81 -44q-28 97 -116 120v-228q113 -22 166.5 -69.5t53.5 -125.5q0 -85 -61 -140q-59 -54 -159 -65v-90z
M285 624q-51 -5 -81 -32t-30 -67q0 -43 27.5 -70t83.5 -45v214zM499 189q0 45 -30 72t-101 44v-229q62 7 96.5 37.5t34.5 75.5z" />
    <glyph glyph-name="percent" unicode="%" horiz-adv-x="840" 
d="M38 533q0 77 49 127t127 50t127.5 -50.5t49.5 -126.5t-49.5 -126.5t-127.5 -50.5t-127 50t-49 127zM316 533q0 48 -28 78t-74 30q-45 0 -73 -30t-28 -78t28 -78t73 -30q46 0 74 30t28 78zM141 136l499 478l51 -52l-499 -478zM449 167q0 76 49.5 126.5t127.5 50.5t127 -50
t49 -127t-49 -127t-127 -50t-127.5 50.5t-49.5 126.5zM727 167q0 48 -28 78t-73 30q-46 0 -74 -30t-28 -78t28 -78t74 -30q45 0 73 30t28 78z" />
    <glyph glyph-name="ampersand" unicode="&#x26;" horiz-adv-x="799" 
d="M764 53q-42 -63 -122 -63q-39 0 -70 15t-64 49q-83 -64 -212 -64q-110 0 -176.5 59.5t-66.5 156.5q0 141 153 203q-50 65 -50 134q0 74 51 120.5t130 46.5q80 0 125.5 -44.5t45.5 -110.5q0 -132 -166 -180l171 -198q61 88 67 238l84 -7q-14 -186 -96 -294q40 -43 79 -43
q35 0 58 36zM240 544q0 -30 11 -53.5t39 -55.5q75 20 103.5 46t28.5 70q0 36 -24 59.5t-63 23.5q-42 0 -68.5 -25.5t-26.5 -64.5zM308 74q83 0 145 42l-197 233q-60 -24 -87.5 -58t-27.5 -85q0 -60 45 -96t122 -36z" />
    <glyph glyph-name="quotesingle" unicode="'" horiz-adv-x="200" 
d="M54 593v107h92v-107l-22 -128h-48z" />
    <glyph glyph-name="parenleft" unicode="(" horiz-adv-x="417" 
d="M45 350q0 172 82.5 296t233.5 198l34 -69q-271 -133 -271 -425t271 -425l-34 -69q-151 74 -233.5 198t-82.5 296z" />
    <glyph glyph-name="parenright" unicode=")" horiz-adv-x="417" 
d="M294 350q0 292 -271 425l34 69q151 -74 233.5 -198t82.5 -296t-82.5 -296t-233.5 -198l-34 69q271 133 271 425z" />
    <glyph glyph-name="asterisk" unicode="*" horiz-adv-x="446" 
d="M263 723v-71l-31 -96l86 61l67 22l24 -76l-67 -22h-104l83 -60l41 -57l-65 -46l-41 57l-33 100l-33 -100l-41 -57l-66 46l42 57l83 60h-105l-66 22l24 76l67 -22l86 -61l-31 96v71h80z" />
    <glyph glyph-name="plus" unicode="+" horiz-adv-x="568" 
d="M246 338v183h76v-183h183v-76h-183v-182h-76v182h-182v76h182z" />
    <glyph glyph-name="comma" unicode="," horiz-adv-x="236" 
d="M33 -103l9 48q18 -9 39 -9q39 0 39 33q0 31 -36 31h-18v105h104v-131q0 -86 -88 -86q-26 0 -49 9z" />
    <glyph glyph-name="hyphen" unicode="-" horiz-adv-x="361" 
d="M312 292v-78h-263v78h263z" />
    <glyph glyph-name="period" unicode="." horiz-adv-x="236" 
d="M170 105v-105h-104v105h104z" />
    <glyph glyph-name="slash" unicode="/" horiz-adv-x="510" 
d="M461 802l-339 -931l-73 27l339 931z" />
    <glyph glyph-name="zero" unicode="0" horiz-adv-x="642" 
d="M41 350q0 164 76 262t204 98t204.5 -98t76.5 -262t-76.5 -262t-204.5 -98t-204 98t-76 262zM515 350q0 124 -51 203q-49 79 -143 79q-92 0 -143 -79t-51 -203t51 -203t143 -79q94 0 143 79q51 79 51 203z" />
    <glyph glyph-name="one" unicode="1" horiz-adv-x="374" 
d="M211 563q-21 -48 -71 -80t-101 -36l-17 89q78 8 129.5 50.5t69.5 113.5h77v-700h-87v563z" />
    <glyph glyph-name="two" unicode="2" horiz-adv-x="581" 
d="M249 281q80 41 111 62q85 56 85 143q0 66 -43.5 106t-117.5 40q-67 0 -111.5 -41.5t-44.5 -99.5q0 -61 39 -109l-74 -48q-53 70 -53 151q0 95 69 160t179 65q113 0 178.5 -61t65.5 -159q0 -84 -41.5 -139.5t-129.5 -99.5l-104 -57q-83 -47 -94 -113h370v-81h-478
q0 101 49 167t145 114z" />
    <glyph glyph-name="three" unicode="3" horiz-adv-x="571" 
d="M22 192l83 37q9 -72 56 -115t119 -43q68 0 115 43t47 112q0 73 -43.5 115.5t-115.5 42.5q-62 0 -100 -35l-50 62l236 208h-317v81h449v-66l-219 -189q15 3 37 3q85 0 147 -59.5t62 -156.5q0 -107 -70.5 -174.5t-177.5 -67.5q-101 0 -170 55.5t-88 146.5z" />
    <glyph glyph-name="four" unicode="4" horiz-adv-x="575" 
d="M351 179h-315v91q91 89 119.5 167t30.5 218v45h87v-45q0 -126 -32 -222q-31 -95 -113 -176h223v227h87v-227h119v-78h-119v-179h-87v179z" />
    <glyph glyph-name="five" unicode="5" horiz-adv-x="596" 
d="M523 619h-358q0 -100 -25 -225q70 80 184 80q100 0 165.5 -62t65.5 -167q0 -113 -70 -184t-187 -71q-98 0 -169 53q-69 53 -83 153l84 24q24 -149 168 -149q79 0 124.5 45.5t45.5 118.5t-43 117t-121 44q-51 0 -95.5 -26.5t-62.5 -66.5l-92 21q30 196 30 376h439v-81z
" />
    <glyph glyph-name="six" unicode="6" horiz-adv-x="591" 
d="M41 345q0 160 71 262.5t202 102.5q98 0 157.5 -50t71.5 -136l-82 -25q-19 133 -152 133q-79 0 -130.5 -72t-51.5 -209v-14q25 50 78.5 81.5t113.5 31.5q99 0 162 -64.5t63 -157.5q0 -105 -66 -171.5t-168 -66.5q-130 0 -199.5 97.5t-69.5 257.5zM458 220q0 68 -43.5 110
t-112.5 42q-62 0 -106 -42.5t-44 -106.5q0 -68 43.5 -110t112.5 -42q66 0 108 41.5t42 107.5z" />
    <glyph glyph-name="seven" unicode="7" horiz-adv-x="524" 
d="M490 700v-71q-230 -158 -230 -466q0 -76 12 -163h-95q-9 69 -9 142q0 300 202 477h-336v81h456z" />
    <glyph glyph-name="eight" unicode="8" horiz-adv-x="582" 
d="M42 200q0 66 36.5 117t100.5 72q-98 45 -98 143q0 75 58.5 126.5t151.5 51.5t151.5 -51.5t58.5 -126.5q0 -98 -98 -143q64 -21 100.5 -72t36.5 -117q0 -89 -66.5 -149.5t-182.5 -60.5t-182.5 60.5t-66.5 149.5zM417 528q0 46 -35 75t-91 29t-91 -29t-35 -75
q0 -49 34.5 -78t91.5 -29t91.5 29t34.5 78zM454 210q0 61 -45 99.5t-118 38.5t-118 -38.5t-45 -99.5q0 -63 44 -101t119 -38t119 38t44 101z" />
    <glyph glyph-name="nine" unicode="9" horiz-adv-x="596" 
d="M127 222q7 -74 49.5 -112.5t114.5 -38.5q85 0 134 72t50 204l-1 36q-24 -61 -74 -97t-116 -36q-103 0 -167 64.5t-64 159.5q0 104 66.5 170t166.5 66q140 0 204 -100q65 -100 65 -258q0 -101 -26 -180t-88.5 -130.5t-154.5 -51.5q-102 0 -167.5 59t-76.5 148zM443 480
q0 66 -43 109q-42 43 -109 43t-109 -44t-42 -111q0 -68 42 -108.5t109 -40.5t109.5 42t42.5 110z" />
    <glyph glyph-name="colon" unicode=":" horiz-adv-x="236" 
d="M66 446h104v-105h-104v105zM66 105h104v-105h-104v105z" />
    <glyph glyph-name="semicolon" unicode=";" horiz-adv-x="236" 
d="M66 446h104v-105h-104v105zM42 -55q18 -9 39 -9q39 0 39 33q0 31 -36 31h-18v105h104v-131q0 -86 -88 -86q-26 0 -49 9z" />
    <glyph glyph-name="less" unicode="&#x3c;" horiz-adv-x="560" 
d="M65 261v78l431 188v-90l-329 -137l329 -137v-89z" />
    <glyph glyph-name="equal" unicode="=" horiz-adv-x="569" 
d="M506 418v-76h-442v76h442zM506 258v-76h-442v76h442z" />
    <glyph glyph-name="greater" unicode="&#x3e;" horiz-adv-x="560" 
d="M65 163l329 137l-329 137v90l431 -188v-78l-431 -187v89z" />
    <glyph glyph-name="question" unicode="?" horiz-adv-x="474" 
d="M78 321q0 127 168 156q108 19 108 85q0 33 -29.5 54t-79.5 21q-54 0 -91 -30.5t-51 -87.5l-71 38q21 72 78 112.5t136 40.5q87 0 139.5 -39.5t52.5 -101.5q0 -63 -41 -101.5t-133 -58.5q-102 -21 -102 -87q0 -32 21.5 -51t57.5 -19q74 0 106 89l69 -39
q-47 -122 -174 -122q-73 0 -118.5 39t-45.5 102zM191 105h105v-105h-105v105z" />
    <glyph glyph-name="at" unicode="@" horiz-adv-x="846" 
d="M657 92q35 0 54 40.5t19 115.5q0 142 -78.5 219.5t-225.5 77.5q-122 2 -215.5 -88.5t-90.5 -219.5q0 -143 85 -225.5t211 -82.5q93 0 175 54l32 -61q-90 -60 -209 -60q-73 -1 -139.5 24t-118.5 71t-82 118.5t-29 161.5q-2 156 110.5 266.5t271.5 108.5q169 0 271.5 -94.5
t102.5 -251.5q0 -116 -39.5 -178.5t-103.5 -62.5q-84 0 -102 82q-49 -82 -151 -82q-84 0 -137.5 59.5t-53.5 150.5t56.5 152.5t137.5 61.5q42 0 78 -19t53 -49v56h72v-291q0 -54 46 -54zM416 382q-56 0 -92 -40.5t-36 -106.5t35 -104.5t91 -38.5q55 0 91.5 39t36.5 104
q0 66 -37.5 106.5t-88.5 40.5z" />
    <glyph glyph-name="A" unicode="A" horiz-adv-x="739" 
d="M306 700h128l293 -700h-102l-72 178h-366l-73 -178h-101zM519 262l-149 365l-150 -365h299z" />
    <glyph glyph-name="B" unicode="B" horiz-adv-x="688" 
d="M76 700h317q98 0 160 -52t62 -130q0 -51 -28.5 -93t-76.5 -64q130 -43 130 -172q0 -81 -65 -135t-161 -54h-338v700zM397 401q59 0 93 28.5t34 79.5q0 48 -36 76t-91 28h-229v-212h229zM411 87q58 0 95.5 31.5t37.5 82.5t-37 84.5t-96 33.5h-243v-232h243z" />
    <glyph glyph-name="C" unicode="C" horiz-adv-x="777" 
d="M141 350q0 -128 70.5 -202t183.5 -74q116 0 180 61t87 163l81 -33q-28 -124 -119 -199.5t-229 -75.5q-156 -1 -254 102t-96 258q-2 151 100.5 257t249.5 103q128 0 205 -66q78 -66 105 -167l-84 -38q-18 86 -77 136.5t-149 50.5q-109 0 -181.5 -76t-72.5 -200z" />
    <glyph glyph-name="D" unicode="D" horiz-adv-x="726" 
d="M76 700h260q163 0 254.5 -97t91.5 -256q0 -154 -92.5 -250.5t-253.5 -96.5h-260v700zM168 84h168q119 0 186.5 73t67.5 190q0 125 -66.5 197t-187.5 72h-168v-532z" />
    <glyph glyph-name="E" unicode="E" horiz-adv-x="633" 
d="M569 700v-87h-401v-207h371v-87h-371v-232h411v-87h-503v700h493z" />
    <glyph glyph-name="F" unicode="F" horiz-adv-x="616" 
d="M565 700v-87h-397v-228h367v-87h-367v-298h-92v700h489z" />
    <glyph glyph-name="G" unicode="G" horiz-adv-x="788" 
d="M388 -10q-147 -2 -246 101.5t-97 258.5q-2 151 100 257t248 103q133 0 218.5 -64t113.5 -177l-90 -30q-45 184 -241 184q-106 0 -179.5 -76.5t-73.5 -196.5q0 -121 71 -197t187 -76q92 0 151 62t69 137h-317v86h429v-362h-79v157q-84 -167 -264 -167z" />
    <glyph glyph-name="H" unicode="H" horiz-adv-x="737" 
d="M168 303v-303h-92v700h92v-313h401v313h92v-700h-92v303h-401z" />
    <glyph glyph-name="I" unicode="I" horiz-adv-x="243" 
d="M76 700h92v-700h-92v700z" />
    <glyph glyph-name="J" unicode="J" horiz-adv-x="598" 
d="M529 700v-466q0 -105 -59 -174.5t-177 -69.5q-112 0 -177.5 64.5t-65.5 167.5q0 69 28 121l87 -33q-23 -41 -23 -93q0 -62 41.5 -101t109.5 -39q144 0 144 174v449h92z" />
    <glyph glyph-name="K" unicode="K" horiz-adv-x="672" 
d="M648 0h-110l-223 358l-147 -156v-202h-92v700h92v-374l348 374h119l-257 -274z" />
    <glyph glyph-name="L" unicode="L" horiz-adv-x="638" 
d="M168 700v-613h428v-87h-520v700h92z" />
    <glyph glyph-name="M" unicode="M" horiz-adv-x="942" 
d="M775 0v651l-234 -651h-140l-233 651v-651h-92v700h170l225 -631l225 631h171v-700h-92z" />
    <glyph glyph-name="N" unicode="N" horiz-adv-x="766" 
d="M168 0h-92v700h158l364 -636v636h92v-700h-159l-363 636v-636z" />
    <glyph glyph-name="O" unicode="O" horiz-adv-x="812" 
d="M406 710q151 3 257.5 -104.5t104.5 -255.5q2 -149 -104.5 -256t-257.5 -104q-151 -3 -257 104t-104 256q-2 148 104 255.5t257 104.5zM406 77q113 0 189 76t76 197t-75 197t-190 76t-190 -76t-75 -198q0 -121 75.5 -196.5t189.5 -75.5z" />
    <glyph glyph-name="P" unicode="P" horiz-adv-x="658" 
d="M168 0h-92v700h309q105 0 166 -58.5t61 -147.5q0 -86 -62 -146t-165 -60h-217v-288zM377 375q63 0 100.5 31.5t37.5 87.5t-37.5 87.5t-100.5 31.5h-209v-238h209z" />
    <glyph glyph-name="Q" unicode="Q" horiz-adv-x="812" 
d="M526 9q-58 -19 -120 -19q-151 -3 -257 104t-104 256q-2 148 104 255.5t257 104.5q151 3 257.5 -104.5t104.5 -255.5q0 -95 -43.5 -175t-121.5 -129q28 -71 105 -71q42 0 74 24l29 -77q-49 -32 -112 -32q-62 0 -107.5 30.5t-65.5 88.5zM257 178q0 65 45 106.5t115 41.5
q157 0 171 -172v-8q83 77 83 204q0 121 -75 197t-190 76t-190 -76t-75 -198q0 -81 35 -144t98 -96q-17 31 -17 69zM512 96q-1 3 -1 15q-4 140 -101 140q-37 0 -60.5 -23t-23.5 -59q0 -42 23.5 -67t64.5 -25q53 0 98 19z" />
    <glyph glyph-name="R" unicode="R" horiz-adv-x="672" 
d="M512 0q-23 45 -24 160q-1 73 -34.5 104.5t-102.5 31.5h-183v-296h-92v700h320q102 0 162.5 -54.5t60.5 -135.5q0 -132 -140 -180q107 -41 111 -171q2 -65 8.5 -94t26.5 -51v-14h-113zM388 383q63 0 98.5 30.5t35.5 84.5q0 55 -35.5 85t-98.5 30h-220v-230h220z" />
    <glyph glyph-name="S" unicode="S" horiz-adv-x="629" 
d="M308 623q-60 0 -98 -27t-38 -71q0 -50 46 -80t137 -48q125 -24 182 -71.5t57 -128.5q0 -90 -74.5 -148.5t-189.5 -58.5q-99 0 -182 50t-119 164l85 53q21 -87 77 -133.5t140 -46.5q76 0 122 32t46 85q0 48 -40 76.5t-136 43.5q-243 42 -243 209q0 79 66 133t170 54
q88 0 154.5 -44t94.5 -122l-86 -49q-35 128 -171 128z" />
    <glyph glyph-name="T" unicode="T" horiz-adv-x="672" 
d="M641 613h-259v-613h-92v613h-259v87h610v-87z" />
    <glyph glyph-name="U" unicode="U" horiz-adv-x="715" 
d="M161 700v-411q0 -101 52.5 -156.5t143.5 -55.5q93 0 145 55.5t52 156.5v411h92v-420q0 -128 -78.5 -209t-210.5 -81t-210 80.5t-78 209.5v420h92z" />
    <glyph glyph-name="V" unicode="V" horiz-adv-x="728" 
d="M617 700h100l-289 -700h-128l-289 700h101l252 -629z" />
    <glyph glyph-name="W" unicode="W" horiz-adv-x="988" 
d="M13 700h97l149 -639l155 639h160l155 -639l149 639h97l-169 -700h-154l-158 641l-159 -641h-153z" />
    <glyph glyph-name="X" unicode="X" horiz-adv-x="674" 
d="M283 380l-225 320h112l167 -252l171 252h108l-225 -320l265 -380h-109l-210 308l-210 -308h-109z" />
    <glyph glyph-name="Y" unicode="Y" horiz-adv-x="672" 
d="M336 369l218 331h105l-277 -412v-288h-92v288l-276 412h110z" />
    <glyph glyph-name="Z" unicode="Z" horiz-adv-x="702" 
d="M524 613h-467v87h586v-87l-473 -526h478v-87h-596v87z" />
    <glyph glyph-name="bracketleft" unicode="[" horiz-adv-x="306" 
d="M261 818v-70h-107v-832h107v-70h-185v972h185z" />
    <glyph glyph-name="backslash" unicode="\" horiz-adv-x="510" 
d="M388 -129l-339 931l73 27l339 -931z" />
    <glyph glyph-name="bracketright" unicode="]" horiz-adv-x="306" 
d="M45 -84h107v832h-107v70h185v-972h-185v70z" />
    <glyph glyph-name="asciicircum" unicode="^" horiz-adv-x="552" 
d="M499 498v-14h-99l-117 152h-14l-116 -152h-99v14l189 212h67z" />
    <glyph glyph-name="underscore" unicode="_" horiz-adv-x="574" 
d="M534 -25v-78h-493v78h493z" />
    <glyph glyph-name="grave" unicode="`" horiz-adv-x="324" 
d="M60 674v14h117l87 -133h-83z" />
    <glyph glyph-name="a" unicode="a" horiz-adv-x="515" 
d="M45 135q0 71 48 109t128 38q53 0 101 -15l43 -12v49q0 51 -32.5 79t-86.5 28q-51 0 -84 -26t-42 -72l-78 22q14 69 68 109t136 40q96 0 149 -49.5t53 -137.5v-297h-83v75q-18 -39 -62 -62t-101 -23q-66 0 -112 39q-45 41 -45 106zM365 187l-44 13q-49 15 -88 15
q-46 0 -72.5 -19.5t-26.5 -55.5q0 -34 25.5 -54t71.5 -20q60 0 97 30t37 81v10z" />
    <glyph glyph-name="b" unicode="b" horiz-adv-x="573" 
d="M153 700v-315q24 45 69.5 72t98.5 27q94 0 154 -70t60 -180q0 -109 -62.5 -176.5t-161.5 -67.5q-51 0 -94 23.5t-68 64.5v-78h-82v700h86zM299 67q63 0 106.5 45.5t43.5 122.5t-43.5 124t-106.5 47q-60 0 -105 -47.5t-45 -123.5t44.5 -122t105.5 -46z" />
    <glyph glyph-name="c" unicode="c" horiz-adv-x="550" 
d="M285 66q127 0 157 142l77 -29q-20 -90 -81.5 -139.5t-150.5 -49.5q-112 0 -180.5 69t-68.5 181q0 105 70 174.5t168 69.5q86 0 144.5 -45t75.5 -126l-79 -24q-11 57 -48 88t-94 31q-60 0 -106.5 -45.5t-46.5 -122.5t48.5 -125.5t114.5 -48.5z" />
    <glyph glyph-name="d" unicode="d" horiz-adv-x="573" 
d="M38 234q0 110 61.5 180t158.5 70q54 0 96 -25.5t66 -70.5v312h87v-700h-83v85q-24 -44 -67.5 -69.5t-96.5 -25.5q-98 0 -160 67.5t-62 176.5zM424 235q0 75 -45.5 123t-104.5 48q-61 0 -105.5 -47.5t-44.5 -123.5q0 -77 44 -122.5t106 -45.5q59 0 104.5 46t45.5 122z" />
    <glyph glyph-name="e" unicode="e" horiz-adv-x="522" 
d="M489 143q-51 -153 -212 -153q-106 0 -172.5 68.5t-66.5 181.5q0 104 63 174t163 70q95 0 153 -55q58 -54 58 -147q0 -31 -6 -58h-343q1 -75 43.5 -116.5t107.5 -41.5q107 0 137 106zM389 286l1 14q0 50 -36 79t-91 29t-92.5 -33t-44.5 -89h263z" />
    <glyph glyph-name="f" unicode="f" horiz-adv-x="387" 
d="M117 401h-106v73h106v72q0 75 42.5 119.5t118.5 44.5t116.5 -38t40.5 -102q0 -16 -1 -22h-81l1 18q0 34 -20.5 52.5t-55.5 18.5q-75 0 -75 -93v-70h134v-73h-134v-401h-86v401z" />
    <glyph glyph-name="g" unicode="g" horiz-adv-x="576" 
d="M143 -29q28 -103 140 -103q68 0 103.5 43.5t35.5 124.5v53q-22 -41 -64.5 -65t-100.5 -24q-92 0 -155.5 65.5t-63.5 169.5q0 109 64.5 179t159.5 70q108 0 160 -81v71h87v-432q0 -111 -59 -181q-59 -69 -167 -69q-171 0 -218 146zM426 241q0 72 -42.5 119.5t-107.5 47.5
q-67 0 -109.5 -47t-42.5 -127q0 -72 42.5 -115t109.5 -43q65 0 107.5 46.5t42.5 118.5z" />
    <glyph glyph-name="h" unicode="h" horiz-adv-x="555" 
d="M67 0v700h86v-326q20 51 64.5 80.5t102.5 29.5q78 0 123.5 -48t45.5 -129v-307h-87v287q0 60 -29.5 91.5t-83.5 31.5q-58 0 -97 -46.5t-39 -118.5v-245h-86z" />
    <glyph glyph-name="i" unicode="i" horiz-adv-x="220" 
d="M62 663h96v-101h-96v101zM153 474v-474h-86v474h86z" />
    <glyph glyph-name="j" unicode="j" horiz-adv-x="220" 
d="M62 663h96v-101h-96v101zM67 474h86v-672h-86v672z" />
    <glyph glyph-name="k" unicode="k" horiz-adv-x="505" 
d="M481 0h-105l-150 218l-73 -77v-141h-86v700h86v-448l203 222h110l-180 -192z" />
    <glyph glyph-name="l" unicode="l" horiz-adv-x="220" 
d="M67 700h86v-700h-86v700z" />
    <glyph glyph-name="m" unicode="m" horiz-adv-x="752" 
d="M153 474v-67q38 77 128 77q44 0 76.5 -24.5t44.5 -69.5q18 44 55.5 69t83.5 25q67 0 105.5 -40.5t38.5 -114.5v-329h-86v311q0 44 -24 69.5t-63 25.5q-41 0 -67 -29t-26 -82v-295h-87v307q0 48 -23.5 73.5t-63.5 25.5q-41 0 -66.5 -30t-25.5 -86v-290h-86v474h86z" />
    <glyph glyph-name="n" unicode="n" horiz-adv-x="543" 
d="M67 0v474h86v-77q52 87 156 87q77 0 122 -47t45 -129v-308h-87v282q0 62 -28 94t-80 32q-55 0 -91.5 -40.5t-36.5 -107.5v-260h-86z" />
    <glyph glyph-name="o" unicode="o" horiz-adv-x="556" 
d="M38 237q0 106 67 176.5t173 70.5q107 0 174 -70.5t67 -176.5t-67.5 -176.5t-173.5 -70.5t-173 70.5t-67 176.5zM430 237q0 75 -43 121q-42 48 -109 48q-66 0 -109 -47.5t-43 -121.5t43 -121.5t109 -47.5q67 0 109.5 47t42.5 122z" />
    <glyph glyph-name="p" unicode="p" horiz-adv-x="573" 
d="M149 474v-89q24 43 70.5 71t99.5 28q96 0 156 -68.5t60 -178.5t-62.5 -178.5t-159.5 -68.5q-51 0 -93.5 22t-66.5 62v-272h-86v672h82zM299 67q62 0 106 45t44 124q0 78 -44 124t-106 46q-59 0 -104.5 -47.5t-45.5 -122.5t45.5 -122t104.5 -47z" />
    <glyph glyph-name="q" unicode="q" horiz-adv-x="573" 
d="M420 85q-54 -95 -164 -95q-96 0 -157 69.5t-61 177.5q0 110 62.5 178.5t160.5 68.5q56 0 99 -26.5t64 -71.5v88h83v-672h-87v283zM424 236q0 77 -44.5 123.5t-105.5 46.5q-62 0 -106 -46t-44 -124q0 -79 44 -124t106 -45q60 0 105 46t45 123z" />
    <glyph glyph-name="r" unicode="r" horiz-adv-x="440" 
d="M153 474v-69q33 79 121 79q57 0 93.5 -37t36.5 -92q0 -29 -6 -53h-84q3 21 3 35q0 33 -20.5 52t-55.5 19q-40 0 -64 -29t-24 -77v-302h-86v474h86z" />
    <glyph glyph-name="s" unicode="s" horiz-adv-x="472" 
d="M33 124l71 37q20 -50 53.5 -72.5t87.5 -22.5q47 0 74.5 19t27.5 50q0 35 -27.5 54.5t-97.5 28.5q-163 24 -163 136q0 57 48 93q49 37 123 37q126 0 171 -105l-67 -37q-24 72 -104 72q-40 0 -66 -17t-26 -44q0 -30 28.5 -46t98.5 -26q166 -22 166 -141q0 -65 -54.5 -107.5
t-135.5 -42.5q-79 0 -133 36t-75 98z" />
    <glyph glyph-name="t" unicode="t" horiz-adv-x="448" 
d="M117 141v260h-94v73h94v147h87v-147h170v-73h-170v-264q0 -33 18 -52t47 -19q60 0 71 74l80 -18q-10 -64 -48.5 -98t-99.5 -34q-75 0 -115 39.5t-40 111.5z" />
    <glyph glyph-name="u" unicode="u" horiz-adv-x="545" 
d="M479 474v-474h-87v80q-52 -90 -155 -90q-79 0 -124.5 46.5t-45.5 133.5v304h86v-284q0 -124 107 -124q57 0 94.5 43t37.5 113v252h87z" />
    <glyph glyph-name="v" unicode="v" horiz-adv-x="521" 
d="M261 84l150 390h92l-190 -474h-105l-189 474h91z" />
    <glyph glyph-name="w" unicode="w" horiz-adv-x="741" 
d="M213 84l107 390h101l107 -390l111 390h85l-141 -474h-107l-105 364l-105 -364h-108l-141 474h85z" />
    <glyph glyph-name="x" unicode="x" horiz-adv-x="468" 
d="M282 251l173 -251h-99l-122 183l-122 -183h-99l174 250l-154 224h101l100 -154l99 154h101z" />
    <glyph glyph-name="y" unicode="y" horiz-adv-x="481" 
d="M468 474l-304 -672h-92l117 259l-181 413h94l133 -312l141 312h92z" />
    <glyph glyph-name="z" unicode="z" horiz-adv-x="495" 
d="M42 0v73l293 323h-288v78h396v-73l-293 -323h298v-78h-406z" />
    <glyph glyph-name="braceleft" unicode="{" horiz-adv-x="318" 
d="M89 -23v272q0 47 -45 47h-10v72h10q45 0 45 47v272q0 69 31.5 100t98.5 31h54v-71h-54q-52 0 -52 -55v-268q0 -41 -16 -62t-53 -30q37 -9 53 -29.5t16 -61.5v-269q0 -55 52 -55h54v-71h-54q-67 0 -98.5 31t-31.5 100z" />
    <glyph glyph-name="bar" unicode="|" horiz-adv-x="230" 
d="M155 830v-980h-79v980h79z" />
    <glyph glyph-name="braceright" unicode="}" horiz-adv-x="318" 
d="M45 -83h54q52 0 52 55v269q0 41 16 61.5t53 29.5q-37 9 -53 30t-16 62v268q0 55 -52 55h-54v71h55q67 0 98.5 -31t31.5 -100v-272q0 -47 44 -47h11v-72h-11q-44 0 -44 -47v-272q0 -69 -31.5 -100t-98.5 -31h-55v71z" />
    <glyph glyph-name="asciitilde" unicode="~" horiz-adv-x="532" 
d="M75 246q0 52 34 83.5t84 31.5q51 0 92 -41q31 -27 52 -27q19 0 32.5 13t13.5 33q0 9 -4 20l77 -10q2 -12 2 -17q0 -51 -34 -83.5t-85 -32.5q-31 0 -49 9t-43 32q-28 28 -52 28q-19 0 -32.5 -13t-13.5 -34q0 -11 3 -20l-76 11z" />
    <glyph glyph-name="uni00A0" unicode="&#xa0;" horiz-adv-x="245" 
 />
    <glyph glyph-name="exclamdown" unicode="&#xa1;" horiz-adv-x="236" 
d="M170 502v-105h-104v105h104zM161 327v-525h-86v525h86z" />
    <glyph glyph-name="cent" unicode="&#xa2;" horiz-adv-x="550" 
d="M315 -98h-81v92q-90 16 -143 81.5t-53 164.5q0 93 55.5 159t140.5 81v92h81v-91q72 -9 119 -52.5t62 -115.5l-79 -24q-19 95 -102 115v-336q101 14 127 140l77 -29q-19 -83 -72 -131.5t-132 -56.5v-89zM234 402q-50 -15 -81 -57t-31 -105q0 -61 31 -104.5t81 -61.5v328z
" />
    <glyph glyph-name="sterling" unicode="&#xa3;" horiz-adv-x="630" 
d="M601 100q-47 -110 -164 -110q-83 0 -146 66q-40 -66 -121 -66q-59 0 -92.5 32t-33.5 84q0 50 34.5 82.5t88.5 32.5q46 0 83 -23q-4 44 -36 90h-132v78h75q-48 70 -48 143q0 90 64.5 145.5t159.5 55.5q92 0 150.5 -49.5t70.5 -134.5l-89 -27q-8 61 -42 94t-90 33
q-59 0 -95.5 -33t-36.5 -94q0 -34 12 -62t41 -71h171v-78h-124q23 -54 23 -105q0 -28 -4 -47q34 -34 57.5 -48t54.5 -14q66 0 92 67zM241 110q-33 33 -68 33q-24 0 -38.5 -12.5t-14.5 -31.5t14 -31t38 -12q49 0 69 54z" />
    <glyph glyph-name="currency" unicode="&#xa4;" horiz-adv-x="598" 
d="M554 150l-55 -55l-71 71q-58 -40 -129 -40t-129 40l-71 -71l-55 55l71 71q-40 58 -40 129q0 70 40 128l-71 72l55 55l71 -71q58 40 129 40t129 -40l71 71l55 -55l-71 -71q40 -58 40 -129t-40 -129zM299 205q61 0 103 42t42 103t-42 103t-103 42t-103 -42t-42 -103
t42 -103t103 -42z" />
    <glyph glyph-name="yen" unicode="&#xa5;" horiz-adv-x="672" 
d="M432 364h121v-79h-172v-53h172v-78h-172v-154h-89v154h-172v78h172v53h-172v79h121l-227 336h104l218 -332l218 332h105z" />
    <glyph glyph-name="brokenbar" unicode="&#xa6;" horiz-adv-x="230" 
d="M76 830h79v-430h-79v430zM155 -150h-79v450h79v-450z" />
    <glyph glyph-name="section" unicode="&#xa7;" horiz-adv-x="531" 
d="M475 63q0 -74 -58.5 -120.5t-151.5 -46.5q-175 0 -211 136l75 37q28 -95 136 -95q55 0 90.5 23t35.5 62q0 85 -171 105q-191 24 -191 151q0 71 74 116q-52 40 -52 112q0 74 58.5 120.5t150.5 46.5q176 0 212 -136l-76 -37q-28 95 -136 95q-55 0 -90.5 -23t-35.5 -62
q0 -85 172 -105q190 -24 190 -151q0 -73 -74 -115q53 -42 53 -113zM266 233q54 -7 94 -23q50 29 50 74q0 38 -33.5 58t-116.5 32q-48 7 -94 22q-52 -28 -52 -74q0 -38 34 -58t118 -31z" />
    <glyph glyph-name="dieresis" unicode="&#xa8;" horiz-adv-x="344" 
d="M40 666h97v-99h-97v99zM207 666h97v-99h-97v99z" />
    <glyph glyph-name="copyright" unicode="&#xa9;" horiz-adv-x="536" 
d="M44 486q0 93 65 158.5t159 65.5t159 -65.5t65 -158.5t-65 -158.5t-159 -65.5t-159 65.5t-65 158.5zM447 486q0 75 -51.5 127.5t-127.5 52.5t-127.5 -52.5t-51.5 -127.5t51.5 -127.5t127.5 -52.5t127.5 52.5t51.5 127.5zM140 487q0 56 37 92q37 37 90 37q47 0 77.5 -23.5
t39.5 -67.5l-43 -13q-4 28 -24.5 45t-49.5 17q-34 0 -56 -23t-22 -64q0 -39 23 -63t58 -24q70 0 83 73l43 -16q-13 -49 -46 -75t-80 -26q-57 0 -93.5 36t-36.5 95z" />
    <glyph glyph-name="ordfeminine" unicode="&#xaa;" horiz-adv-x="465" 
d="M39 394q0 63 44 98t115 35q46 0 91 -14l37 -10v43q0 45 -28.5 70.5t-76.5 25.5q-44 0 -73.5 -23.5t-37.5 -63.5l-72 20q13 62 61.5 98.5t121.5 36.5q88 0 136 -45t48 -125v-269h-77v67q-18 -36 -57 -56t-90 -20q-61 0 -101.5 36.5t-40.5 95.5zM326 440l-37 12
q-40 13 -79 13q-87 0 -87 -68q0 -30 22.5 -47.5t63.5 -17.5q52 0 84.5 27t32.5 72v9z" />
    <glyph glyph-name="guillemotleft" unicode="&#xab;" horiz-adv-x="500" 
d="M51 288v24l202 198h14v-96l-124 -107v-14l124 -107v-96h-14zM228 288v24l202 198h14v-96l-124 -107v-14l124 -107v-96h-14z" />
    <glyph glyph-name="logicalnot" unicode="&#xac;" horiz-adv-x="565" 
d="M428 345h-364v74h437v-199h-73v125z" />
    <glyph glyph-name="uni00AD" unicode="&#xad;" horiz-adv-x="361" 
d="M312 292v-78h-263v78h263z" />
    <glyph glyph-name="registered" unicode="&#xae;" horiz-adv-x="536" 
d="M44 486q0 93 65 158.5t159 65.5t159 -65.5t65 -158.5t-65 -158.5t-159 -65.5t-159 65.5t-65 158.5zM447 486q0 75 -51.5 127.5t-127.5 52.5t-127.5 -52.5t-51.5 -127.5t51.5 -127.5t127.5 -52.5t127.5 52.5t51.5 127.5zM177 612h113q36 0 58 -18.5t22 -46.5
q0 -51 -49 -68q42 -13 42 -61q0 -38 13 -51v-6h-52q-10 19 -10 57q0 26 -11 37t-36 11h-45v-105h-45v251zM284 506q39 0 39 33q0 34 -39 34h-62v-67h62z" />
    <glyph glyph-name="overscore" unicode="&#xaf;" horiz-adv-x="382" 
d="M318 650v-69h-254v69h254z" />
    <glyph glyph-name="degree" unicode="&#xb0;" horiz-adv-x="411" 
d="M42 547q0 67 48 115t115 48t115 -48t48 -115t-48 -115t-115 -48t-115 48t-48 115zM299 547q0 40 -26.5 67.5t-67.5 27.5t-67.5 -27.5t-26.5 -67.5t26.5 -67.5t67.5 -27.5t67.5 27.5t26.5 67.5z" />
    <glyph glyph-name="plusminus" unicode="&#xb1;" horiz-adv-x="573" 
d="M251 287h-183v76h183v160h75v-160h183v-76h-183v-160h-75v160zM64 76h442v-76h-442v76z" />
    <glyph glyph-name="uni00B2" unicode="&#xb2;" horiz-adv-x="295" 
d="M26 598q0 47 33.5 76.5t85.5 29.5q57 0 88.5 -28t31.5 -77q-1 -33 -14 -56.5t-27 -34.5t-49 -33q-31 -20 -44 -31.5t-19 -27.5h154v-56h-236q0 53 23 86.5t72 61.5q45 24 61.5 42.5t16.5 45.5q0 24 -15.5 38t-44.5 14q-25 0 -41 -14t-16 -35q0 -23 14 -37l-48 -32
q-26 29 -26 68z" />
    <glyph glyph-name="uni00B3" unicode="&#xb3;" horiz-adv-x="309" 
d="M27 455l57 27q4 -31 22.5 -49t48.5 -18q26 0 43.5 16.5t17.5 42.5q0 27 -16 43.5t-42 16.5q-24 0 -40 -13l-35 43l95 79h-133v57h216v-49l-83 -71h7q36 0 64.5 -29t28.5 -76q0 -53 -34.5 -86t-88.5 -33q-53 0 -86 26.5t-42 72.5z" />
    <glyph glyph-name="acute" unicode="&#xb4;" horiz-adv-x="324" 
d="M147 688h117v-14l-121 -119h-83z" />
    <glyph glyph-name="uni00B5" unicode="&#xb5;" horiz-adv-x="545" 
d="M67 474h86v-284q0 -124 113 -124q54 0 90 42.5t36 113.5v252h87v-474h-87v80q-45 -90 -142 -90q-65 0 -97 41v-229h-86v672z" />
    <glyph glyph-name="paragraph" unicode="&#xb6;" horiz-adv-x="535" 
d="M230 354h-20q-80 0 -129 48q-49 49 -49 125t49 124q49 49 129 49h290v-59h-44v-641h-67v641h-91v-641h-68v354zM230 413v228h-20q-47 0 -78.5 -30.5t-31.5 -83.5t31.5 -83.5t78.5 -30.5h20z" />
    <glyph glyph-name="middot" unicode="&#xb7;" horiz-adv-x="236" 
d="M170 403v-105h-104v105h104z" />
    <glyph glyph-name="cedilla" unicode="&#xb8;" horiz-adv-x="284" 
d="M102 -53q21 23 50 23q34 0 55.5 -21t21.5 -56q0 -38 -23.5 -59.5t-60.5 -21.5q-35 0 -59 17.5t-30 49.5l47 12q2 -15 13 -24.5t27 -9.5q18 0 29 10t11 26t-11 26.5t-29 10.5q-26 0 -38 -21l-47 9q10 35 21 98h51q-16 -48 -28 -69z" />
    <glyph glyph-name="uni00B9" unicode="&#xb9;" horiz-adv-x="211" 
d="M108 614q-23 -48 -83 -53l-9 65q82 6 97 74h56v-340h-61v254z" />
    <glyph glyph-name="ordmasculine" unicode="&#xba;" horiz-adv-x="500" 
d="M250 710q97 0 156.5 -62.5t59.5 -161.5t-59.5 -161.5t-156.5 -62.5t-156.5 62.5t-59.5 161.5t59.5 161.5t156.5 62.5zM250 334q60 0 98 42t38 110t-38 110t-98 42t-97.5 -42t-37.5 -110t37.5 -110t97.5 -42z" />
    <glyph glyph-name="guillemotright" unicode="&#xbb;" horiz-adv-x="500" 
d="M56 186l124 107v14l-124 107v96h14l202 -198v-24l-202 -198h-14v96zM233 186l124 107v14l-124 107v96h14l202 -198v-24l-202 -198h-14v96z" />
    <glyph glyph-name="onequarter" unicode="&#xbc;" horiz-adv-x="653" 
d="M108 614q-23 -48 -83 -53l-9 65q82 6 97 74h56v-340h-61v254zM547 549l-486 -464l-45 43l487 464zM538 75h-160v64q38 37 54 77t16 102v22h61v-22q0 -118 -65 -186h94v103h61v-103h42v-57h-42v-75h-61v75z" />
    <glyph glyph-name="onehalf" unicode="&#xbd;" horiz-adv-x="648" 
d="M108 614q-23 -48 -83 -53l-9 65q82 6 97 74h56v-340h-61v254zM547 549l-486 -464l-45 43l487 464zM379 238q0 47 33.5 76.5t85.5 29.5q57 0 88.5 -28t31.5 -77q-1 -33 -14 -56.5t-27 -34.5t-49 -33q-31 -20 -44 -31.5t-19 -27.5h154v-56h-236q0 53 23 86.5t72 61.5
q45 24 61.5 42.5t16.5 45.5q0 24 -15.5 38t-44.5 14q-25 0 -41 -14t-16 -35q0 -23 14 -37l-48 -32q-26 29 -26 68z" />
    <glyph glyph-name="threequarters" unicode="&#xbe;" horiz-adv-x="751" 
d="M84 482q4 -31 22.5 -49t48.5 -18q26 0 43.5 16.5t17.5 42.5q0 27 -16 43.5t-42 16.5q-24 0 -40 -13l-35 43l95 79h-133v57h216v-49l-83 -71h7q36 0 64.5 -29t28.5 -76q0 -53 -34.5 -86t-88.5 -33q-53 0 -86 26.5t-42 72.5zM645 549l-486 -464l-45 43l487 464zM636 75
h-160v64q38 37 54 77t16 102v22h61v-22q0 -118 -65 -186h94v103h61v-103h42v-57h-42v-75h-61v75z" />
    <glyph glyph-name="questiondown" unicode="&#xbf;" horiz-adv-x="474" 
d="M283 397h-105v105h105v-105zM396 181q0 -127 -168 -156q-108 -19 -108 -85q0 -33 29.5 -54t79.5 -21q54 0 91 30.5t51 87.5l71 -38q-21 -72 -78 -112.5t-136 -40.5q-87 0 -139.5 39.5t-52.5 101.5q0 63 41 101.5t133 58.5q102 21 102 87q0 32 -21.5 51t-57.5 19
q-74 0 -106 -89l-69 39q47 122 174 122q73 0 118.5 -39t45.5 -102z" />
    <glyph glyph-name="Agrave" unicode="&#xc0;" horiz-adv-x="739" 
d="M198 880v14h117l87 -133h-83zM306 700h128l293 -700h-102l-72 178h-366l-73 -178h-101zM519 262l-149 365l-150 -365h299z" />
    <glyph glyph-name="Aacute" unicode="&#xc1;" horiz-adv-x="739" 
d="M424 889h117v-14l-121 -119h-83zM306 700h128l293 -700h-102l-72 178h-366l-73 -178h-101zM519 262l-149 365l-150 -365h299z" />
    <glyph glyph-name="Acircumflex" unicode="&#xc2;" horiz-adv-x="739" 
d="M218 758l121 106h62l121 -106v-14h-95l-57 69l-57 -69h-95v14zM306 700h128l293 -700h-102l-72 178h-366l-73 -178h-101zM519 262l-149 365l-150 -365h299z" />
    <glyph glyph-name="Atilde" unicode="&#xc3;" horiz-adv-x="739" 
d="M355 796q-22 21 -43 21q-15 0 -24.5 -9.5t-9.5 -24.5q0 -8 3 -16l-63 8q-2 8 -2 16q0 39 26.5 64t65.5 25q41 0 77 -31q22 -21 43 -21q15 0 24.5 9.5t9.5 24.5q0 8 -3 16l64 -8q2 -8 2 -16q0 -39 -27 -64t-66 -25q-41 0 -77 31zM306 700h128l293 -700h-102l-72 178h-366
l-73 -178h-101zM519 262l-149 365l-150 -365h299z" />
    <glyph glyph-name="Adieresis" unicode="&#xc4;" horiz-adv-x="739" 
d="M238 892h97v-99h-97v99zM405 892h97v-99h-97v99zM306 700h128l293 -700h-102l-72 178h-366l-73 -178h-101zM519 262l-149 365l-150 -365h299z" />
    <glyph glyph-name="Aring" unicode="&#xc5;" horiz-adv-x="739" 
d="M282 853q0 37 25.5 63t62.5 26t63 -26t26 -63t-26 -62.5t-63 -25.5t-62.5 25.5t-25.5 62.5zM409 853q0 16 -11.5 27.5t-27.5 11.5t-27.5 -11.5t-11.5 -27.5t11.5 -27.5t27.5 -11.5t27.5 11.5t11.5 27.5zM306 700h128l293 -700h-102l-72 178h-366l-73 -178h-101zM519 262
l-149 365l-150 -365h299z" />
    <glyph glyph-name="AE" unicode="&#xc6;" horiz-adv-x="947" 
d="M893 87v-87h-461v178h-225l-92 -178h-102l363 700h507v-87h-359v-207h329v-87h-329v-232h369zM432 614l-182 -352h182v352z" />
    <glyph glyph-name="Ccedilla" unicode="&#xc7;" horiz-adv-x="777" 
d="M395 -10h-12q-8 -25 -19 -43q21 23 50 23q34 0 55.5 -21t21.5 -56q0 -38 -23.5 -59.5t-60.5 -21.5q-35 0 -59 17.5t-30 49.5l47 12q2 -15 13 -24.5t27 -9.5q18 0 29 10t11 26t-11 26.5t-29 10.5q-26 0 -38 -21l-47 9q6 19 17 76q-133 18 -213.5 117t-78.5 239
q-2 151 100.5 257t249.5 103q128 0 205 -66q78 -66 105 -167l-84 -38q-18 86 -77 136.5t-149 50.5q-109 0 -181.5 -76t-72.5 -200q0 -128 70.5 -202t183.5 -74q116 0 180 61t87 163l81 -33q-28 -124 -119 -199.5t-229 -75.5z" />
    <glyph glyph-name="Egrave" unicode="&#xc8;" horiz-adv-x="633" 
d="M145 880v14h117l87 -133h-83zM569 700v-87h-401v-207h371v-87h-371v-232h411v-87h-503v700h493z" />
    <glyph glyph-name="Eacute" unicode="&#xc9;" horiz-adv-x="633" 
d="M371 889h117v-14l-121 -119h-83zM569 700v-87h-401v-207h371v-87h-371v-232h411v-87h-503v700h493z" />
    <glyph glyph-name="Ecircumflex" unicode="&#xca;" horiz-adv-x="633" 
d="M165 758l121 106h62l121 -106v-14h-95l-57 69l-57 -69h-95v14zM569 700v-87h-401v-207h371v-87h-371v-232h411v-87h-503v700h493z" />
    <glyph glyph-name="Edieresis" unicode="&#xcb;" horiz-adv-x="633" 
d="M189 892h97v-99h-97v99zM356 892h97v-99h-97v99zM569 700v-87h-401v-207h371v-87h-371v-232h411v-87h-503v700h493z" />
    <glyph glyph-name="Igrave" unicode="&#xcc;" horiz-adv-x="243" 
d="M-50 880v14h117l87 -133h-83zM76 700h92v-700h-92v700z" />
    <glyph glyph-name="Iacute" unicode="&#xcd;" horiz-adv-x="243" 
d="M176 889h117v-14l-121 -119h-83zM76 700h92v-700h-92v700z" />
    <glyph glyph-name="Icircumflex" unicode="&#xce;" horiz-adv-x="243" 
d="M-30 795l121 106h62l121 -106v-14h-95l-57 69l-57 -69h-95v14zM76 700h92v-700h-92v700z" />
    <glyph glyph-name="Idieresis" unicode="&#xcf;" horiz-adv-x="243" 
d="M-11 892h97v-99h-97v99zM156 892h97v-99h-97v99zM76 700h92v-700h-92v700z" />
    <glyph glyph-name="Eth" unicode="&#xd0;" horiz-adv-x="726" 
d="M336 700q163 0 254.5 -97t91.5 -256q0 -154 -92.5 -250.5t-253.5 -96.5h-260v312h-81v75h81v313h260zM336 84q119 0 186.5 73t67.5 190q0 125 -66.5 197t-187.5 72h-168v-229h203v-75h-203v-228h168z" />
    <glyph glyph-name="Ntilde" unicode="&#xd1;" horiz-adv-x="766" 
d="M368 815q-22 21 -43 21q-15 0 -24.5 -9.5t-9.5 -24.5q0 -8 3 -16l-63 8q-2 8 -2 16q0 39 26.5 64t65.5 25q41 0 77 -31q22 -21 43 -21q15 0 24.5 9.5t9.5 24.5q0 9 -3 16l64 -8q2 -8 2 -16q0 -39 -27 -64t-66 -25q-41 0 -77 31zM168 0h-92v700h158l364 -636v636h92v-700
h-159l-363 636v-636z" />
    <glyph glyph-name="Ograve" unicode="&#xd2;" horiz-adv-x="812" 
d="M234 880v14h117l87 -133h-83zM406 710q151 3 257.5 -104.5t104.5 -255.5q2 -149 -104.5 -256t-257.5 -104q-151 -3 -257 104t-104 256q-2 148 104 255.5t257 104.5zM406 77q113 0 189 76t76 197t-75 197t-190 76t-190 -76t-75 -198q0 -121 75.5 -196.5t189.5 -75.5z" />
    <glyph glyph-name="Oacute" unicode="&#xd3;" horiz-adv-x="812" 
d="M460 889h117v-14l-121 -119h-83zM406 710q151 3 257.5 -104.5t104.5 -255.5q2 -149 -104.5 -256t-257.5 -104q-151 -3 -257 104t-104 256q-2 148 104 255.5t257 104.5zM406 77q113 0 189 76t76 197t-75 197t-190 76t-190 -76t-75 -198q0 -121 75.5 -196.5t189.5 -75.5z
" />
    <glyph glyph-name="Ocircumflex" unicode="&#xd4;" horiz-adv-x="812" 
d="M254 758l121 106h62l121 -106v-14h-95l-57 69l-57 -69h-95v14zM406 710q151 3 257.5 -104.5t104.5 -255.5q2 -149 -104.5 -256t-257.5 -104q-151 -3 -257 104t-104 256q-2 148 104 255.5t257 104.5zM406 77q113 0 189 76t76 197t-75 197t-190 76t-190 -76t-75 -198
q0 -121 75.5 -196.5t189.5 -75.5z" />
    <glyph glyph-name="Otilde" unicode="&#xd5;" horiz-adv-x="812" 
d="M391 796q-22 21 -43 21q-15 0 -24.5 -9.5t-9.5 -24.5q0 -8 3 -16l-63 8q-2 8 -2 16q0 39 26.5 64t65.5 25q41 0 77 -31q22 -21 43 -21q15 0 24.5 9.5t9.5 24.5q0 8 -3 16l64 -8q2 -8 2 -16q0 -39 -27 -64t-66 -25q-41 0 -77 31zM406 710q151 3 257.5 -104.5t104.5 -255.5
q2 -149 -104.5 -256t-257.5 -104q-151 -3 -257 104t-104 256q-2 148 104 255.5t257 104.5zM406 77q113 0 189 76t76 197t-75 197t-190 76t-190 -76t-75 -198q0 -121 75.5 -196.5t189.5 -75.5z" />
    <glyph glyph-name="Odieresis" unicode="&#xd6;" horiz-adv-x="812" 
d="M274 892h97v-99h-97v99zM441 892h97v-99h-97v99zM406 710q151 3 257.5 -104.5t104.5 -255.5q2 -149 -104.5 -256t-257.5 -104q-151 -3 -257 104t-104 256q-2 148 104 255.5t257 104.5zM406 77q113 0 189 76t76 197t-75 197t-190 76t-190 -76t-75 -198q0 -121 75.5 -196.5
t189.5 -75.5z" />
    <glyph glyph-name="multiply" unicode="&#xd7;" horiz-adv-x="493" 
d="M64 171l129 129l-129 129l53 54l130 -129l129 129l53 -54l-129 -129l129 -129l-53 -54l-129 129l-130 -129z" />
    <glyph glyph-name="Oslash" unicode="&#xd8;" horiz-adv-x="812" 
d="M650 618q57 -51 88 -121t30 -147q2 -149 -104.5 -256t-257.5 -104q-98 -1 -180 45l-45 -62l-64 47l45 62q-56 51 -87 121t-30 147q-2 148 104 255.5t257 104.5q98 2 180 -45l45 62l64 -47zM141 349q0 -118 74 -195l319 439q-60 30 -128 30q-115 0 -190 -76t-75 -198z
M406 77q113 0 189 76t76 197q0 119 -74 195l-319 -438q60 -30 128 -30z" />
    <glyph glyph-name="Ugrave" unicode="&#xd9;" horiz-adv-x="715" 
d="M186 880v14h117l87 -133h-83zM161 700v-411q0 -101 52.5 -156.5t143.5 -55.5q93 0 145 55.5t52 156.5v411h92v-420q0 -128 -78.5 -209t-210.5 -81t-210 80.5t-78 209.5v420h92z" />
    <glyph glyph-name="Uacute" unicode="&#xda;" horiz-adv-x="715" 
d="M412 889h117v-14l-121 -119h-83zM161 700v-411q0 -101 52.5 -156.5t143.5 -55.5q93 0 145 55.5t52 156.5v411h92v-420q0 -128 -78.5 -209t-210.5 -81t-210 80.5t-78 209.5v420h92z" />
    <glyph glyph-name="Ucircumflex" unicode="&#xdb;" horiz-adv-x="715" 
d="M205 795l121 106h62l121 -106v-14h-95l-57 69l-57 -69h-95v14zM161 700v-411q0 -101 52.5 -156.5t143.5 -55.5q93 0 145 55.5t52 156.5v411h92v-420q0 -128 -78.5 -209t-210.5 -81t-210 80.5t-78 209.5v420h92z" />
    <glyph glyph-name="Udieresis" unicode="&#xdc;" horiz-adv-x="715" 
d="M224 892h97v-99h-97v99zM391 892h97v-99h-97v99zM161 700v-411q0 -101 52.5 -156.5t143.5 -55.5q93 0 145 55.5t52 156.5v411h92v-420q0 -128 -78.5 -209t-210.5 -81t-210 80.5t-78 209.5v420h92z" />
    <glyph glyph-name="Yacute" unicode="&#xdd;" horiz-adv-x="672" 
d="M390 889h117v-14l-121 -119h-83zM336 369l218 331h105l-277 -412v-288h-92v288l-276 412h110z" />
    <glyph glyph-name="Thorn" unicode="&#xde;" horiz-adv-x="658" 
d="M168 0h-92v700h92v-141h217q105 0 166 -58.5t61 -147.5q0 -87 -62 -146.5t-165 -59.5h-217v-147zM377 233q63 0 100.5 32t37.5 88t-37.5 87.5t-100.5 31.5h-209v-239h209z" />
    <glyph glyph-name="germandbls" unicode="&#xdf;" horiz-adv-x="590" 
d="M338 69q52 0 84 37t32 105q0 74 -55 116.5t-135 42.5v76q53 3 87.5 31t34.5 75q0 39 -24.5 60.5t-66.5 21.5q-45 0 -70.5 -29t-25.5 -82v-523h-86v370h-86v76h86v82q0 83 50 132.5t132 49.5q79 0 126 -41t47 -108q0 -95 -97 -141q77 -16 123 -70.5t46 -136.5
q0 -98 -57 -160.5t-143 -62.5q-57 0 -106 25l15 82q41 -28 89 -28z" />
    <glyph glyph-name="agrave" unicode="&#xe0;" horiz-adv-x="515" 
d="M86 654v14h117l87 -133h-83zM45 135q0 71 48 109t128 38q53 0 101 -15l43 -12v49q0 51 -32.5 79t-86.5 28q-51 0 -84 -26t-42 -72l-78 22q14 69 68 109t136 40q96 0 149 -49.5t53 -137.5v-297h-83v75q-18 -39 -62 -62t-101 -23q-66 0 -112 39q-45 41 -45 106zM365 187
l-44 13q-49 15 -88 15q-46 0 -72.5 -19.5t-26.5 -55.5q0 -34 25.5 -54t71.5 -20q60 0 97 30t37 81v10z" />
    <glyph glyph-name="aacute" unicode="&#xe1;" horiz-adv-x="515" 
d="M312 663h117v-14l-121 -119h-83zM45 135q0 71 48 109t128 38q53 0 101 -15l43 -12v49q0 51 -32.5 79t-86.5 28q-51 0 -84 -26t-42 -72l-78 22q14 69 68 109t136 40q96 0 149 -49.5t53 -137.5v-297h-83v75q-18 -39 -62 -62t-101 -23q-66 0 -112 39q-45 41 -45 106z
M365 187l-44 13q-49 15 -88 15q-46 0 -72.5 -19.5t-26.5 -55.5q0 -34 25.5 -54t71.5 -20q60 0 97 30t37 81v10z" />
    <glyph glyph-name="acircumflex" unicode="&#xe2;" horiz-adv-x="515" 
d="M106 532l121 106h62l121 -106v-14h-95l-57 69l-57 -69h-95v14zM45 135q0 71 48 109t128 38q53 0 101 -15l43 -12v49q0 51 -32.5 79t-86.5 28q-51 0 -84 -26t-42 -72l-78 22q14 69 68 109t136 40q96 0 149 -49.5t53 -137.5v-297h-83v75q-18 -39 -62 -62t-101 -23
q-66 0 -112 39q-45 41 -45 106zM365 187l-44 13q-49 15 -88 15q-46 0 -72.5 -19.5t-26.5 -55.5q0 -34 25.5 -54t71.5 -20q60 0 97 30t37 81v10z" />
    <glyph glyph-name="atilde" unicode="&#xe3;" horiz-adv-x="515" 
d="M243 570q-22 21 -43 21q-15 0 -24.5 -9.5t-9.5 -24.5q0 -9 3 -16l-63 8q-2 8 -2 16q0 39 26.5 64t65.5 25q41 0 77 -31q22 -21 43 -21q15 0 24.5 9.5t9.5 24.5q0 9 -3 16l64 -8q2 -8 2 -16q0 -39 -27 -64t-66 -25q-41 0 -77 31zM45 135q0 71 48 109t128 38q53 0 101 -15
l43 -12v49q0 51 -32.5 79t-86.5 28q-51 0 -84 -26t-42 -72l-78 22q14 69 68 109t136 40q96 0 149 -49.5t53 -137.5v-297h-83v75q-18 -39 -62 -62t-101 -23q-66 0 -112 39q-45 41 -45 106zM365 187l-44 13q-49 15 -88 15q-46 0 -72.5 -19.5t-26.5 -55.5q0 -34 25.5 -54
t71.5 -20q60 0 97 30t37 81v10z" />
    <glyph glyph-name="adieresis" unicode="&#xe4;" horiz-adv-x="515" 
d="M113 666h97v-99h-97v99zM280 666h97v-99h-97v99zM45 135q0 71 48 109t128 38q53 0 101 -15l43 -12v49q0 51 -32.5 79t-86.5 28q-51 0 -84 -26t-42 -72l-78 22q14 69 68 109t136 40q96 0 149 -49.5t53 -137.5v-297h-83v75q-18 -39 -62 -62t-101 -23q-66 0 -112 39
q-45 41 -45 106zM365 187l-44 13q-49 15 -88 15q-46 0 -72.5 -19.5t-26.5 -55.5q0 -34 25.5 -54t71.5 -20q60 0 97 30t37 81v10z" />
    <glyph glyph-name="aring" unicode="&#xe5;" horiz-adv-x="515" 
d="M158 627q0 37 25.5 63t62.5 26t63 -26t26 -63t-26 -62.5t-63 -25.5t-62.5 25.5t-25.5 62.5zM285 627q0 16 -11.5 27.5t-27.5 11.5t-27.5 -11.5t-11.5 -27.5t11.5 -27.5t27.5 -11.5t27.5 11.5t11.5 27.5zM45 135q0 71 48 109t128 38q53 0 101 -15l43 -12v49q0 51 -32.5 79
t-86.5 28q-51 0 -84 -26t-42 -72l-78 22q14 69 68 109t136 40q96 0 149 -49.5t53 -137.5v-297h-83v75q-18 -39 -62 -62t-101 -23q-66 0 -112 39q-45 41 -45 106zM365 187l-44 13q-49 15 -88 15q-46 0 -72.5 -19.5t-26.5 -55.5q0 -34 25.5 -54t71.5 -20q60 0 97 30t37 81v10z
" />
    <glyph glyph-name="ae" unicode="&#xe6;" horiz-adv-x="844" 
d="M45 138q0 71 47 109.5t129 38.5h140v18q0 51 -32 79t-87 28q-50 0 -83 -24.5t-42 -68.5l-75 21q16 70 68 107.5t132 37.5q125 0 174 -84q28 39 73 61.5t98 22.5q94 0 152 -55q59 -54 59 -147q0 -22 -6 -58h-343q1 -75 43 -117t108 -42q107 0 137 107l74 -29
q-51 -153 -211 -153q-67 0 -118.5 30t-76.5 83q-60 -113 -198 -113q-72 0 -117 42t-45 106zM711 286q1 3 1 14q0 50 -36 79t-91 29t-92.5 -33t-44.5 -89h263zM361 220h-123q-49 0 -77.5 -21t-28.5 -59q0 -36 24.5 -55t69.5 -19q61 0 98 32.5t37 88.5v33z" />
    <glyph glyph-name="ccedilla" unicode="&#xe7;" horiz-adv-x="550" 
d="M287 -10h-12q-9 -25 -19 -43q21 23 50 23q34 0 55.5 -21t21.5 -56q0 -38 -23.5 -59.5t-60.5 -21.5q-35 0 -59 17.5t-30 49.5l47 12q2 -15 13 -24.5t27 -9.5q18 0 29 10t11 26t-11 26.5t-29 10.5q-26 0 -38 -21l-47 9q10 33 17 77q-88 17 -139.5 82.5t-51.5 162.5
q0 105 70 174.5t168 69.5q86 0 144.5 -45t75.5 -126l-79 -24q-11 57 -48 88t-94 31q-60 0 -106.5 -45.5t-46.5 -122.5t48.5 -125.5t114.5 -48.5q127 0 157 142l77 -29q-20 -90 -81.5 -139.5t-150.5 -49.5z" />
    <glyph glyph-name="egrave" unicode="&#xe8;" horiz-adv-x="522" 
d="M89 654v14h117l87 -133h-83zM489 143q-51 -153 -212 -153q-106 0 -172.5 68.5t-66.5 181.5q0 104 63 174t163 70q95 0 153 -55q58 -54 58 -147q0 -31 -6 -58h-343q1 -75 43.5 -116.5t107.5 -41.5q107 0 137 106zM389 286l1 14q0 50 -36 79t-91 29t-92.5 -33t-44.5 -89
h263z" />
    <glyph glyph-name="eacute" unicode="&#xe9;" horiz-adv-x="522" 
d="M315 663h117v-14l-121 -119h-83zM489 143q-51 -153 -212 -153q-106 0 -172.5 68.5t-66.5 181.5q0 104 63 174t163 70q95 0 153 -55q58 -54 58 -147q0 -31 -6 -58h-343q1 -75 43.5 -116.5t107.5 -41.5q107 0 137 106zM389 286l1 14q0 50 -36 79t-91 29t-92.5 -33
t-44.5 -89h263z" />
    <glyph glyph-name="ecircumflex" unicode="&#xea;" horiz-adv-x="522" 
d="M109 532l121 106h62l121 -106v-14h-95l-57 69l-57 -69h-95v14zM489 143q-51 -153 -212 -153q-106 0 -172.5 68.5t-66.5 181.5q0 104 63 174t163 70q95 0 153 -55q58 -54 58 -147q0 -31 -6 -58h-343q1 -75 43.5 -116.5t107.5 -41.5q107 0 137 106zM389 286l1 14
q0 50 -36 79t-91 29t-92.5 -33t-44.5 -89h263z" />
    <glyph glyph-name="edieresis" unicode="&#xeb;" horiz-adv-x="522" 
d="M131 666h97v-99h-97v99zM298 666h97v-99h-97v99zM489 143q-51 -153 -212 -153q-106 0 -172.5 68.5t-66.5 181.5q0 104 63 174t163 70q95 0 153 -55q58 -54 58 -147q0 -31 -6 -58h-343q1 -75 43.5 -116.5t107.5 -41.5q107 0 137 106zM389 286l1 14q0 50 -36 79t-91 29
t-92.5 -33t-44.5 -89h263z" />
    <glyph glyph-name="igrave" unicode="&#xec;" horiz-adv-x="220" 
d="M-62 654v14h117l87 -133h-83zM153 474v-474h-86v474h86z" />
    <glyph glyph-name="iacute" unicode="&#xed;" horiz-adv-x="220" 
d="M164 663h117v-14l-121 -119h-83zM153 474v-474h-86v474h86z" />
    <glyph glyph-name="icircumflex" unicode="&#xee;" horiz-adv-x="220" 
d="M-42 569l121 106h62l121 -106v-14h-95l-57 69l-57 -69h-95v14zM153 474v-474h-86v474h86z" />
    <glyph glyph-name="idieresis" unicode="&#xef;" horiz-adv-x="220" 
d="M-23 666h97v-99h-97v99zM144 666h97v-99h-97v99zM153 474v-474h-86v474h86z" />
    <glyph glyph-name="eth" unicode="&#xf0;" horiz-adv-x="552" 
d="M38 235q0 107 65 178t169 71q86 0 136 -66q-26 80 -90 146l-37 -43l-54 45l38 44q-21 17 -54 38l52 62q18 -12 55 -40l35 40l54 -45l-37 -42q144 -146 144 -369q0 -118 -65.5 -191t-172.5 -73q-106 0 -172 69.5t-66 175.5zM426 235q0 75 -42 123t-108 48t-108 -48
t-42 -123t41.5 -121t108.5 -46t108.5 46t41.5 121z" />
    <glyph glyph-name="ntilde" unicode="&#xf1;" horiz-adv-x="543" 
d="M267 589q-22 21 -43 21q-15 0 -24.5 -9.5t-9.5 -24.5q0 -8 3 -16l-63 8q-2 8 -2 16q0 39 26.5 64t65.5 25q41 0 77 -31q22 -21 43 -21q15 0 24.5 9.5t9.5 24.5q0 9 -3 16l64 -8q2 -8 2 -16q0 -39 -27 -64t-66 -25q-41 0 -77 31zM67 0v474h86v-77q52 87 156 87
q77 0 122 -47t45 -129v-308h-87v282q0 62 -28 94t-80 32q-55 0 -91.5 -40.5t-36.5 -107.5v-260h-86z" />
    <glyph glyph-name="ograve" unicode="&#xf2;" horiz-adv-x="556" 
d="M106 654v14h117l87 -133h-83zM38 237q0 106 67 176.5t173 70.5q107 0 174 -70.5t67 -176.5t-67.5 -176.5t-173.5 -70.5t-173 70.5t-67 176.5zM430 237q0 75 -43 121q-42 48 -109 48q-66 0 -109 -47.5t-43 -121.5t43 -121.5t109 -47.5q67 0 109.5 47t42.5 122z" />
    <glyph glyph-name="oacute" unicode="&#xf3;" horiz-adv-x="556" 
d="M332 663h117v-14l-121 -119h-83zM38 237q0 106 67 176.5t173 70.5q107 0 174 -70.5t67 -176.5t-67.5 -176.5t-173.5 -70.5t-173 70.5t-67 176.5zM430 237q0 75 -43 121q-42 48 -109 48q-66 0 -109 -47.5t-43 -121.5t43 -121.5t109 -47.5q67 0 109.5 47t42.5 122z" />
    <glyph glyph-name="ocircumflex" unicode="&#xf4;" horiz-adv-x="556" 
d="M126 532l121 106h62l121 -106v-14h-95l-57 69l-57 -69h-95v14zM38 237q0 106 67 176.5t173 70.5q107 0 174 -70.5t67 -176.5t-67.5 -176.5t-173.5 -70.5t-173 70.5t-67 176.5zM430 237q0 75 -43 121q-42 48 -109 48q-66 0 -109 -47.5t-43 -121.5t43 -121.5t109 -47.5
q67 0 109.5 47t42.5 122z" />
    <glyph glyph-name="otilde" unicode="&#xf5;" horiz-adv-x="556" 
d="M263 570q-22 21 -43 21q-15 0 -24.5 -9.5t-9.5 -24.5q0 -9 3 -16l-63 8q-2 8 -2 16q0 39 26.5 64t65.5 25q41 0 77 -31q22 -21 43 -21q15 0 24.5 9.5t9.5 24.5q0 9 -3 16l64 -8q2 -8 2 -16q0 -39 -27 -64t-66 -25q-41 0 -77 31zM38 237q0 106 67 176.5t173 70.5
q107 0 174 -70.5t67 -176.5t-67.5 -176.5t-173.5 -70.5t-173 70.5t-67 176.5zM430 237q0 75 -43 121q-42 48 -109 48q-66 0 -109 -47.5t-43 -121.5t43 -121.5t109 -47.5q67 0 109.5 47t42.5 122z" />
    <glyph glyph-name="odieresis" unicode="&#xf6;" horiz-adv-x="556" 
d="M145 666h97v-99h-97v99zM312 666h97v-99h-97v99zM38 237q0 106 67 176.5t173 70.5q107 0 174 -70.5t67 -176.5t-67.5 -176.5t-173.5 -70.5t-173 70.5t-67 176.5zM430 237q0 75 -43 121q-42 48 -109 48q-66 0 -109 -47.5t-43 -121.5t43 -121.5t109 -47.5q67 0 109.5 47
t42.5 122z" />
    <glyph glyph-name="divide" unicode="&#xf7;" horiz-adv-x="569" 
d="M238 503h93v-94h-93v94zM64 338h442v-76h-442v76zM238 191h93v-94h-93v94z" />
    <glyph glyph-name="oslash" unicode="&#xf8;" horiz-adv-x="556" 
d="M519 237q0 -106 -67.5 -176.5t-173.5 -70.5q-30 0 -47 4l-18 -49l-74 27l18 48q-56 31 -87.5 88.5t-31.5 128.5q0 106 67 176.5t173 70.5q31 0 48 -4l18 49l73 -27l-18 -48q56 -31 88 -88t32 -129zM298 405q-4 1 -20 1q-66 0 -109 -47.5t-43 -121.5q0 -88 60 -138z
M430 237q0 88 -60 138l-112 -306q5 -1 20 -1q67 0 109.5 47t42.5 122z" />
    <glyph glyph-name="ugrave" unicode="&#xf9;" horiz-adv-x="545" 
d="M101 654v14h117l87 -133h-83zM479 474v-474h-87v80q-52 -90 -155 -90q-79 0 -124.5 46.5t-45.5 133.5v304h86v-284q0 -124 107 -124q57 0 94.5 43t37.5 113v252h87z" />
    <glyph glyph-name="uacute" unicode="&#xfa;" horiz-adv-x="545" 
d="M327 663h117v-14l-121 -119h-83zM479 474v-474h-87v80q-52 -90 -155 -90q-79 0 -124.5 46.5t-45.5 133.5v304h86v-284q0 -124 107 -124q57 0 94.5 43t37.5 113v252h87z" />
    <glyph glyph-name="ucircumflex" unicode="&#xfb;" horiz-adv-x="545" 
d="M121 569l121 106h62l121 -106v-14h-95l-57 69l-57 -69h-95v14zM479 474v-474h-87v80q-52 -90 -155 -90q-79 0 -124.5 46.5t-45.5 133.5v304h86v-284q0 -124 107 -124q57 0 94.5 43t37.5 113v252h87z" />
    <glyph glyph-name="udieresis" unicode="&#xfc;" horiz-adv-x="545" 
d="M140 666h97v-99h-97v99zM307 666h97v-99h-97v99zM479 474v-474h-87v80q-52 -90 -155 -90q-79 0 -124.5 46.5t-45.5 133.5v304h86v-284q0 -124 107 -124q57 0 94.5 43t37.5 113v252h87z" />
    <glyph glyph-name="yacute" unicode="&#xfd;" horiz-adv-x="481" 
d="M295 663h117v-14l-121 -119h-83zM468 474l-304 -672h-92l117 259l-181 413h94l133 -312l141 312h92z" />
    <glyph glyph-name="thorn" unicode="&#xfe;" horiz-adv-x="573" 
d="M153 700v-310q24 41 69 67.5t97 26.5q96 0 156 -68.5t60 -178.5t-62.5 -178.5t-159.5 -68.5q-51 0 -94 22.5t-66 61.5v-272h-86v898h86zM299 67q62 0 106 45t44 124q0 78 -44 124t-106 46q-59 0 -104.5 -47.5t-45.5 -122.5t45.5 -122t104.5 -47z" />
    <glyph glyph-name="ydieresis" unicode="&#xff;" horiz-adv-x="481" 
d="M102 666h97v-99h-97v99zM269 666h97v-99h-97v99zM468 474l-304 -672h-92l117 259l-181 413h94l133 -312l141 312h92z" />
    <glyph glyph-name="Amacron" unicode="&#x100;" horiz-adv-x="739" 
d="M497 876v-69h-254v69h254zM306 700h128l293 -700h-102l-72 178h-366l-73 -178h-101zM519 262l-149 365l-150 -365h299z" />
    <glyph glyph-name="amacron" unicode="&#x101;" horiz-adv-x="515" 
d="M372 650v-69h-254v69h254zM45 135q0 71 48 109t128 38q53 0 101 -15l43 -12v49q0 51 -32.5 79t-86.5 28q-51 0 -84 -26t-42 -72l-78 22q14 69 68 109t136 40q96 0 149 -49.5t53 -137.5v-297h-83v75q-18 -39 -62 -62t-101 -23q-66 0 -112 39q-45 41 -45 106zM365 187
l-44 13q-49 15 -88 15q-46 0 -72.5 -19.5t-26.5 -55.5q0 -34 25.5 -54t71.5 -20q60 0 97 30t37 81v10z" />
    <glyph glyph-name="Abreve" unicode="&#x102;" horiz-adv-x="739" 
d="M492 856q0 -52 -34 -80.5t-88 -28.5t-88 28.5t-34 80.5q0 11 1 14h68l-1 -11q0 -22 15 -36t39 -14t39 14t15 36l-1 11h68q1 -3 1 -14zM306 700h128l293 -700h-102l-72 178h-366l-73 -178h-101zM519 262l-149 365l-150 -365h299z" />
    <glyph glyph-name="abreve" unicode="&#x103;" horiz-adv-x="515" 
d="M380 630q0 -52 -34 -80.5t-88 -28.5t-88 28.5t-34 80.5q0 11 1 14h68l-1 -11q0 -22 15 -36t39 -14t39 14t15 36l-1 11h68q1 -3 1 -14zM45 135q0 71 48 109t128 38q53 0 101 -15l43 -12v49q0 51 -32.5 79t-86.5 28q-51 0 -84 -26t-42 -72l-78 22q14 69 68 109t136 40
q96 0 149 -49.5t53 -137.5v-297h-83v75q-18 -39 -62 -62t-101 -23q-66 0 -112 39q-45 41 -45 106zM365 187l-44 13q-49 15 -88 15q-46 0 -72.5 -19.5t-26.5 -55.5q0 -34 25.5 -54t71.5 -20q60 0 97 30t37 81v10z" />
    <glyph glyph-name="Aogonek" unicode="&#x104;" horiz-adv-x="739" 
d="M741 -106l27 -61q-39 -21 -80 -21q-39 0 -63.5 23.5t-24.5 59.5q0 64 68 105h-43l-72 178h-366l-73 -178h-101l293 700h128l293 -700q-61 -38 -61 -79q0 -17 11.5 -27.5t29.5 -10.5q17 0 34 11zM220 262h299l-149 365z" />
    <glyph glyph-name="aogonek" unicode="&#x105;" horiz-adv-x="515" 
d="M462 -106l27 -61q-39 -21 -80 -21q-39 0 -63.5 23.5t-24.5 59.5q0 64 68 105h-24v75q-18 -39 -62 -62t-101 -23q-66 0 -112 39q-45 41 -45 106q0 71 48 109t128 38q53 0 101 -15l43 -12v49q0 51 -32.5 79t-86.5 28q-51 0 -84 -26t-42 -72l-78 22q14 69 68 109t136 40
q96 0 149 -49.5t53 -137.5v-297q-61 -38 -61 -79q0 -17 11.5 -27.5t29.5 -10.5q17 0 34 11zM365 177v10l-44 13q-49 15 -88 15q-46 0 -72.5 -19.5t-26.5 -55.5q0 -34 25.5 -54t71.5 -20q60 0 97 30t37 81z" />
    <glyph glyph-name="Cacute" unicode="&#x106;" horiz-adv-x="777" 
d="M436 914h117v-14l-121 -119h-83zM141 350q0 -128 70.5 -202t183.5 -74q116 0 180 61t87 163l81 -33q-28 -124 -119 -199.5t-229 -75.5q-156 -1 -254 102t-96 258q-2 151 100.5 257t249.5 103q128 0 205 -66q78 -66 105 -167l-84 -38q-18 86 -77 136.5t-149 50.5
q-109 0 -181.5 -76t-72.5 -200z" />
    <glyph glyph-name="cacute" unicode="&#x107;" horiz-adv-x="550" 
d="M322 688h117v-14l-121 -119h-83zM285 66q127 0 157 142l77 -29q-20 -90 -81.5 -139.5t-150.5 -49.5q-112 0 -180.5 69t-68.5 181q0 105 70 174.5t168 69.5q86 0 144.5 -45t75.5 -126l-79 -24q-11 57 -48 88t-94 31q-60 0 -106.5 -45.5t-46.5 -122.5t48.5 -125.5
t114.5 -48.5z" />
    <glyph glyph-name="Ccircumflex" unicode="&#x108;" horiz-adv-x="777" 
d="M238 795l121 106h62l121 -106v-14h-95l-57 69l-57 -69h-95v14zM141 350q0 -128 70.5 -202t183.5 -74q116 0 180 61t87 163l81 -33q-28 -124 -119 -199.5t-229 -75.5q-156 -1 -254 102t-96 258q-2 151 100.5 257t249.5 103q128 0 205 -66q78 -66 105 -167l-84 -38
q-18 86 -77 136.5t-149 50.5q-109 0 -181.5 -76t-72.5 -200z" />
    <glyph glyph-name="ccircumflex" unicode="&#x109;" horiz-adv-x="550" 
d="M124 569l121 106h62l121 -106v-14h-95l-57 69l-57 -69h-95v14zM285 66q127 0 157 142l77 -29q-20 -90 -81.5 -139.5t-150.5 -49.5q-112 0 -180.5 69t-68.5 181q0 105 70 174.5t168 69.5q86 0 144.5 -45t75.5 -126l-79 -24q-11 57 -48 88t-94 31q-60 0 -106.5 -45.5
t-46.5 -122.5t48.5 -125.5t114.5 -48.5z" />
    <glyph glyph-name="Cdotaccent" unicode="&#x10a;" horiz-adv-x="777" 
d="M438 893v-100h-96v100h96zM141 350q0 -128 70.5 -202t183.5 -74q116 0 180 61t87 163l81 -33q-28 -124 -119 -199.5t-229 -75.5q-156 -1 -254 102t-96 258q-2 151 100.5 257t249.5 103q128 0 205 -66q78 -66 105 -167l-84 -38q-18 86 -77 136.5t-149 50.5
q-109 0 -181.5 -76t-72.5 -200z" />
    <glyph glyph-name="cdotaccent" unicode="&#x10b;" horiz-adv-x="550" 
d="M228 663h96v-101h-96v101zM285 66q127 0 157 142l77 -29q-20 -90 -81.5 -139.5t-150.5 -49.5q-112 0 -180.5 69t-68.5 181q0 105 70 174.5t168 69.5q86 0 144.5 -45t75.5 -126l-79 -24q-11 57 -48 88t-94 31q-60 0 -106.5 -45.5t-46.5 -122.5t48.5 -125.5t114.5 -48.5z
" />
    <glyph glyph-name="Ccaron" unicode="&#x10c;" horiz-adv-x="777" 
d="M238 887v14h95l57 -69l57 69h95v-14l-121 -106h-62zM141 350q0 -128 70.5 -202t183.5 -74q116 0 180 61t87 163l81 -33q-28 -124 -119 -199.5t-229 -75.5q-156 -1 -254 102t-96 258q-2 151 100.5 257t249.5 103q128 0 205 -66q78 -66 105 -167l-84 -38q-18 86 -77 136.5
t-149 50.5q-109 0 -181.5 -76t-72.5 -200z" />
    <glyph glyph-name="ccaron" unicode="&#x10d;" horiz-adv-x="550" 
d="M126 661v14h95l57 -69l57 69h95v-14l-121 -106h-62zM285 66q127 0 157 142l77 -29q-20 -90 -81.5 -139.5t-150.5 -49.5q-112 0 -180.5 69t-68.5 181q0 105 70 174.5t168 69.5q86 0 144.5 -45t75.5 -126l-79 -24q-11 57 -48 88t-94 31q-60 0 -106.5 -45.5t-46.5 -122.5
t48.5 -125.5t114.5 -48.5z" />
    <glyph glyph-name="Dcaron" unicode="&#x10e;" horiz-adv-x="726" 
d="M135 887v14h95l57 -69l57 69h95v-14l-121 -106h-62zM76 700h260q163 0 254.5 -97t91.5 -256q0 -154 -92.5 -250.5t-253.5 -96.5h-260v700zM168 84h168q119 0 186.5 73t67.5 190q0 125 -66.5 197t-187.5 72h-168v-532z" />
    <glyph glyph-name="dcaron" unicode="&#x10f;" horiz-adv-x="671" 
d="M38 234q0 110 61.5 180t158.5 70q54 0 96 -25.5t66 -70.5v312h87v-700h-83v85q-24 -44 -67.5 -69.5t-96.5 -25.5q-98 0 -160 67.5t-62 176.5zM555 543h25q39 0 39 30t-34 30h-18v97h104v-122q0 -43 -25 -65t-68 -22h-23v52zM424 235q0 75 -45.5 123t-104.5 48
q-61 0 -105.5 -47.5t-44.5 -123.5q0 -77 44 -122.5t106 -45.5q59 0 104.5 46t45.5 122z" />
    <glyph glyph-name="Dcroat" unicode="&#x110;" horiz-adv-x="726" 
d="M336 700q163 0 254.5 -97t91.5 -256q0 -154 -92.5 -250.5t-253.5 -96.5h-260v312h-81v75h81v313h260zM336 84q119 0 186.5 73t67.5 190q0 125 -66.5 197t-187.5 72h-168v-229h203v-75h-203v-228h168z" />
    <glyph glyph-name="dslash" unicode="&#x111;" horiz-adv-x="573" 
d="M574 631v-70h-67v-561h-83v85q-24 -44 -67.5 -69.5t-96.5 -25.5q-98 0 -160 67.5t-62 176.5q0 110 61.5 180t158.5 70q54 0 96 -25.5t66 -70.5v173h-151v70h151v69h87v-69h67zM274 67q59 0 104.5 46t45.5 122q0 75 -45.5 123t-104.5 48q-61 0 -105.5 -47.5t-44.5 -123.5
q0 -77 44 -122.5t106 -45.5z" />
    <glyph glyph-name="Emacron" unicode="&#x112;" horiz-adv-x="633" 
d="M449 876v-69h-254v69h254zM569 700v-87h-401v-207h371v-87h-371v-232h411v-87h-503v700h493z" />
    <glyph glyph-name="emacron" unicode="&#x113;" horiz-adv-x="522" 
d="M390 650v-69h-254v69h254zM489 143q-51 -153 -212 -153q-106 0 -172.5 68.5t-66.5 181.5q0 104 63 174t163 70q95 0 153 -55q58 -54 58 -147q0 -31 -6 -58h-343q1 -75 43.5 -116.5t107.5 -41.5q107 0 137 106zM389 286l1 14q0 50 -36 79t-91 29t-92.5 -33t-44.5 -89h263z
" />
    <glyph glyph-name="Ebreve" unicode="&#x114;" horiz-adv-x="633" 
d="M444 889q0 -52 -34 -80.5t-88 -28.5t-88 28.5t-34 80.5q0 11 1 14h68l-1 -11q0 -22 15 -36t39 -14t39 14t15 36l-1 11h68q1 -3 1 -14zM569 700v-87h-401v-207h371v-87h-371v-232h411v-87h-503v700h493z" />
    <glyph glyph-name="ebreve" unicode="&#x115;" horiz-adv-x="522" 
d="M386 663q0 -52 -34 -80.5t-88 -28.5t-88 28.5t-34 80.5q0 11 1 14h68l-1 -11q0 -22 15 -36t39 -14t39 14t15 36l-1 11h68q1 -3 1 -14zM489 143q-51 -153 -212 -153q-106 0 -172.5 68.5t-66.5 181.5q0 104 63 174t163 70q95 0 153 -55q58 -54 58 -147q0 -31 -6 -58h-343
q1 -75 43.5 -116.5t107.5 -41.5q107 0 137 106zM389 286l1 14q0 50 -36 79t-91 29t-92.5 -33t-44.5 -89h263z" />
    <glyph glyph-name="Edotaccent" unicode="&#x116;" horiz-adv-x="633" 
d="M370 893v-100h-96v100h96zM569 700v-87h-401v-207h371v-87h-371v-232h411v-87h-503v700h493z" />
    <glyph glyph-name="edotaccent" unicode="&#x117;" horiz-adv-x="522" 
d="M216 663h96v-101h-96v101zM489 143q-51 -153 -212 -153q-106 0 -172.5 68.5t-66.5 181.5q0 104 63 174t163 70q95 0 153 -55q58 -54 58 -147q0 -31 -6 -58h-343q1 -75 43.5 -116.5t107.5 -41.5q107 0 137 106zM389 286l1 14q0 50 -36 79t-91 29t-92.5 -33t-44.5 -89h263z
" />
    <glyph glyph-name="Eogonek" unicode="&#x118;" horiz-adv-x="633" 
d="M593 -106l27 -61q-39 -21 -80 -21q-39 0 -63.5 23.5t-24.5 59.5q0 64 68 105h-444v700h493v-87h-401v-207h371v-87h-371v-232h411v-87q-61 -38 -61 -79q0 -17 11.5 -27.5t29.5 -10.5q17 0 34 11z" />
    <glyph glyph-name="eogonek" unicode="&#x119;" horiz-adv-x="522" 
d="M328 -5q-53 -36 -53 -74q0 -17 11.5 -27.5t29.5 -10.5q17 0 34 11l27 -61q-39 -21 -80 -21q-39 0 -63.5 23.5t-24.5 59.5q0 57 53 95q-100 5 -162 73t-62 177q0 104 63 174t163 70q95 0 153 -55q58 -54 58 -147q0 -31 -6 -58h-343q1 -75 43.5 -116.5t107.5 -41.5
q107 0 137 106l75 -29q-42 -126 -161 -148zM263 408q-55 0 -92.5 -33t-44.5 -89h263l1 14q0 50 -36 79t-91 29z" />
    <glyph glyph-name="Ecaron" unicode="&#x11a;" horiz-adv-x="633" 
d="M170 887v14h95l57 -69l57 69h95v-14l-121 -106h-62zM569 700v-87h-401v-207h371v-87h-371v-232h411v-87h-503v700h493z" />
    <glyph glyph-name="ecaron" unicode="&#x11b;" horiz-adv-x="522" 
d="M114 661v14h95l57 -69l57 69h95v-14l-121 -106h-62zM489 143q-51 -153 -212 -153q-106 0 -172.5 68.5t-66.5 181.5q0 104 63 174t163 70q95 0 153 -55q58 -54 58 -147q0 -31 -6 -58h-343q1 -75 43.5 -116.5t107.5 -41.5q107 0 137 106zM389 286l1 14q0 50 -36 79t-91 29
t-92.5 -33t-44.5 -89h263z" />
    <glyph glyph-name="Gcircumflex" unicode="&#x11c;" horiz-adv-x="788" 
d="M240 795l121 106h62l121 -106v-14h-95l-57 69l-57 -69h-95v14zM388 -10q-147 -2 -246 101.5t-97 258.5q-2 151 100 257t248 103q133 0 218.5 -64t113.5 -177l-90 -30q-45 184 -241 184q-106 0 -179.5 -76.5t-73.5 -196.5q0 -121 71 -197t187 -76q92 0 151 62t69 137h-317
v86h429v-362h-79v157q-84 -167 -264 -167z" />
    <glyph glyph-name="gcircumflex" unicode="&#x11d;" horiz-adv-x="576" 
d="M134 569l121 106h62l121 -106v-14h-95l-57 69l-57 -69h-95v14zM143 -29q28 -103 140 -103q68 0 103.5 43.5t35.5 124.5v53q-22 -41 -64.5 -65t-100.5 -24q-92 0 -155.5 65.5t-63.5 169.5q0 109 64.5 179t159.5 70q108 0 160 -81v71h87v-432q0 -111 -59 -181
q-59 -69 -167 -69q-171 0 -218 146zM426 241q0 72 -42.5 119.5t-107.5 47.5q-67 0 -109.5 -47t-42.5 -127q0 -72 42.5 -115t109.5 -43q65 0 107.5 46.5t42.5 118.5z" />
    <glyph glyph-name="Gbreve" unicode="&#x11e;" horiz-adv-x="788" 
d="M514 889q0 -52 -34 -80.5t-88 -28.5t-88 28.5t-34 80.5q0 11 1 14h68l-1 -11q0 -22 15 -36t39 -14t39 14t15 36l-1 11h68q1 -3 1 -14zM388 -10q-147 -2 -246 101.5t-97 258.5q-2 151 100 257t248 103q133 0 218.5 -64t113.5 -177l-90 -30q-45 184 -241 184
q-106 0 -179.5 -76.5t-73.5 -196.5q0 -121 71 -197t187 -76q92 0 151 62t69 137h-317v86h429v-362h-79v157q-84 -167 -264 -167z" />
    <glyph glyph-name="gbreve" unicode="&#x11f;" horiz-adv-x="576" 
d="M408 663q0 -52 -34 -80.5t-88 -28.5t-88 28.5t-34 80.5q0 11 1 14h68l-1 -11q0 -22 15 -36t39 -14t39 14t15 36l-1 11h68q1 -3 1 -14zM143 -29q28 -103 140 -103q68 0 103.5 43.5t35.5 124.5v53q-22 -41 -64.5 -65t-100.5 -24q-92 0 -155.5 65.5t-63.5 169.5
q0 109 64.5 179t159.5 70q108 0 160 -81v71h87v-432q0 -111 -59 -181q-59 -69 -167 -69q-171 0 -218 146zM426 241q0 72 -42.5 119.5t-107.5 47.5q-67 0 -109.5 -47t-42.5 -127q0 -72 42.5 -115t109.5 -43q65 0 107.5 46.5t42.5 118.5z" />
    <glyph glyph-name="Gdotaccent" unicode="&#x120;" horiz-adv-x="788" 
d="M440 893v-100h-96v100h96zM388 -10q-147 -2 -246 101.5t-97 258.5q-2 151 100 257t248 103q133 0 218.5 -64t113.5 -177l-90 -30q-45 184 -241 184q-106 0 -179.5 -76.5t-73.5 -196.5q0 -121 71 -197t187 -76q92 0 151 62t69 137h-317v86h429v-362h-79v157
q-84 -167 -264 -167z" />
    <glyph glyph-name="gdotaccent" unicode="&#x121;" horiz-adv-x="576" 
d="M238 663h96v-101h-96v101zM143 -29q28 -103 140 -103q68 0 103.5 43.5t35.5 124.5v53q-22 -41 -64.5 -65t-100.5 -24q-92 0 -155.5 65.5t-63.5 169.5q0 109 64.5 179t159.5 70q108 0 160 -81v71h87v-432q0 -111 -59 -181q-59 -69 -167 -69q-171 0 -218 146zM426 241
q0 72 -42.5 119.5t-107.5 47.5q-67 0 -109.5 -47t-42.5 -127q0 -72 42.5 -115t109.5 -43q65 0 107.5 46.5t42.5 118.5z" />
    <glyph glyph-name="uni0122" unicode="&#x122;" horiz-adv-x="788" 
d="M388 -10q-147 -2 -246 101.5t-97 258.5q-2 151 100 257t248 103q133 0 218.5 -64t113.5 -177l-90 -30q-45 184 -241 184q-106 0 -179.5 -76.5t-73.5 -196.5q0 -121 71 -197t187 -76q92 0 151 62t69 137h-317v86h429v-362h-79v157q-84 -167 -264 -167zM324 -201
q21 -8 40 -8q35 0 35 32q0 30 -37 30h-18v95h104v-121q0 -84 -84 -84q-24 0 -50 9z" />
    <glyph glyph-name="uni0123" unicode="&#x123;" horiz-adv-x="576" 
d="M218 542v133q0 84 94 84h32v-52h-35q-39 0 -39 -30t35 -30h18v-105h-105zM143 -29q28 -103 140 -103q68 0 103.5 43.5t35.5 124.5v53q-22 -41 -64.5 -65t-100.5 -24q-92 0 -155.5 65.5t-63.5 169.5q0 109 64.5 179t159.5 70q108 0 160 -81v71h87v-432q0 -111 -59 -181
q-59 -69 -167 -69q-171 0 -218 146zM426 241q0 72 -42.5 119.5t-107.5 47.5q-67 0 -109.5 -47t-42.5 -127q0 -72 42.5 -115t109.5 -43q65 0 107.5 46.5t42.5 118.5z" />
    <glyph glyph-name="Hcircumflex" unicode="&#x124;" horiz-adv-x="737" 
d="M216 795l121 106h62l121 -106v-14h-95l-57 69l-57 -69h-95v14zM168 303v-303h-92v700h92v-313h401v313h92v-700h-92v303h-401z" />
    <glyph glyph-name="hcircumflex" unicode="&#x125;" horiz-adv-x="555" 
d="M-42 795l121 106h62l121 -106v-14h-95l-57 69l-57 -69h-95v14zM67 0v700h86v-326q20 51 64.5 80.5t102.5 29.5q78 0 123.5 -48t45.5 -129v-307h-87v287q0 60 -29.5 91.5t-83.5 31.5q-58 0 -97 -46.5t-39 -118.5v-245h-86z" />
    <glyph glyph-name="Hbar" unicode="&#x126;" horiz-adv-x="737" 
d="M739 586v-78h-78v-508h-92v303h-401v-303h-92v508h-78v78h78v114h92v-114h401v114h92v-114h78zM569 387v121h-401v-121h401z" />
    <glyph glyph-name="hbar" unicode="&#x127;" horiz-adv-x="555" 
d="M320 484q78 0 123.5 -48t45.5 -129v-307h-87v287q0 60 -29.5 91.5t-83.5 31.5q-58 0 -97 -46.5t-39 -118.5v-245h-86v561h-67v70h67v69h86v-69h152v-70h-152v-187q20 51 64.5 80.5t102.5 29.5z" />
    <glyph glyph-name="Itilde" unicode="&#x128;" horiz-adv-x="243" 
d="M107 796q-22 21 -43 21q-15 0 -24.5 -9.5t-9.5 -24.5q0 -8 3 -16l-63 8q-2 8 -2 16q0 39 26.5 64t65.5 25q41 0 77 -31q22 -21 43 -21q15 0 24.5 9.5t9.5 24.5q0 8 -3 16l64 -8q2 -8 2 -16q0 -39 -27 -64t-66 -25q-41 0 -77 31zM76 700h92v-700h-92v700z" />
    <glyph glyph-name="itilde" unicode="&#x129;" horiz-adv-x="220" 
d="M95 570q-22 21 -43 21q-15 0 -24.5 -9.5t-9.5 -24.5q0 -9 3 -16l-63 8q-2 8 -2 16q0 39 26.5 64t65.5 25q41 0 77 -31q22 -21 43 -21q15 0 24.5 9.5t9.5 24.5q0 9 -3 16l64 -8q2 -8 2 -16q0 -39 -27 -64t-66 -25q-41 0 -77 31zM153 474v-474h-86v474h86z" />
    <glyph glyph-name="Imacron" unicode="&#x12a;" horiz-adv-x="243" 
d="M249 876v-69h-254v69h254zM76 700h92v-700h-92v700z" />
    <glyph glyph-name="imacron" unicode="&#x12b;" horiz-adv-x="220" 
d="M236 650v-69h-254v69h254zM153 474v-474h-86v474h86z" />
    <glyph glyph-name="Ibreve" unicode="&#x12c;" horiz-adv-x="243" 
d="M244 889q0 -52 -34 -80.5t-88 -28.5t-88 28.5t-34 80.5q0 11 1 14h68l-1 -11q0 -22 15 -36t39 -14t39 14t15 36l-1 11h68q1 -3 1 -14zM76 700h92v-700h-92v700z" />
    <glyph glyph-name="ibreve" unicode="&#x12d;" horiz-adv-x="220" 
d="M232 663q0 -52 -34 -80.5t-88 -28.5t-88 28.5t-34 80.5q0 11 1 14h68l-1 -11q0 -22 15 -36t39 -14t39 14t15 36l-1 11h68q1 -3 1 -14zM153 474v-474h-86v474h86z" />
    <glyph glyph-name="Iogonek" unicode="&#x12e;" horiz-adv-x="243" 
d="M182 -106l27 -61q-39 -21 -80 -21q-39 0 -63.5 23.5t-24.5 59.5q0 64 68 105h-33v700h92v-700q-61 -38 -61 -79q0 -17 11.5 -27.5t29.5 -10.5q17 0 34 11z" />
    <glyph glyph-name="iogonek" unicode="&#x12f;" horiz-adv-x="220" 
d="M158 663v-101h-96v101h96zM167 -106l27 -61q-39 -21 -80 -21q-39 0 -63.5 23.5t-24.5 59.5q0 64 68 105h-27v474h86v-474q-61 -38 -61 -79q0 -17 11.5 -27.5t29.5 -10.5q17 0 34 11z" />
    <glyph glyph-name="Idot" unicode="&#x130;" horiz-adv-x="243" 
d="M170 893v-100h-96v100h96zM76 700h92v-700h-92v700z" />
    <glyph glyph-name="dotlessi" unicode="&#x131;" horiz-adv-x="220" 
d="M153 474v-474h-86v474h86z" />
    <glyph glyph-name="IJ" unicode="&#x132;" horiz-adv-x="841" 
d="M76 700h92v-700h-92v700zM772 700v-466q0 -105 -59 -174.5t-177 -69.5q-112 0 -177.5 64.5t-65.5 167.5q0 69 28 121l87 -33q-23 -41 -23 -93q0 -62 41.5 -101t109.5 -39q144 0 144 174v449h92z" />
    <glyph glyph-name="ij" unicode="&#x133;" horiz-adv-x="440" 
d="M62 663h96v-101h-96v101zM282 663h96v-101h-96v101zM153 474v-474h-86v474h86zM287 474h86v-672h-86v672z" />
    <glyph glyph-name="Jcircumflex" unicode="&#x134;" horiz-adv-x="598" 
d="M331 795l121 106h62l121 -106v-14h-95l-57 69l-57 -69h-95v14zM529 700v-466q0 -105 -59 -174.5t-177 -69.5q-112 0 -177.5 64.5t-65.5 167.5q0 69 28 121l87 -33q-23 -41 -23 -93q0 -62 41.5 -101t109.5 -39q144 0 144 174v449h92z" />
    <glyph glyph-name="jcircumflex" unicode="&#x135;" horiz-adv-x="220" 
d="M-42 569l121 106h62l121 -106v-14h-95l-57 69l-57 -69h-95v14zM67 474h86v-672h-86v672z" />
    <glyph glyph-name="uni0136" unicode="&#x136;" horiz-adv-x="672" 
d="M648 0h-110l-223 358l-147 -156v-202h-92v700h92v-374l348 374h119l-257 -274zM281 -201q21 -8 40 -8q35 0 35 32q0 30 -37 30h-18v95h104v-121q0 -84 -84 -84q-25 0 -50 9z" />
    <glyph glyph-name="uni0137" unicode="&#x137;" horiz-adv-x="505" 
d="M481 0h-105l-150 218l-73 -77v-141h-86v700h86v-448l203 222h110l-180 -192zM185 -201q21 -8 40 -8q35 0 35 32q0 30 -37 30h-18v95h104v-121q0 -84 -84 -84q-25 0 -50 9z" />
    <glyph glyph-name="kgreenlandic" unicode="&#x138;" horiz-adv-x="467" 
d="M67 474h86v-191l171 191h111l-210 -224l219 -250h-110l-181 212v-212h-86v474z" />
    <glyph glyph-name="Lacute" unicode="&#x139;" horiz-adv-x="638" 
d="M168 914h117v-14l-121 -119h-83zM168 700v-613h428v-87h-520v700h92z" />
    <glyph glyph-name="lacute" unicode="&#x13a;" horiz-adv-x="220" 
d="M156 914h117v-14l-121 -119h-83zM67 700h86v-700h-86v700z" />
    <glyph glyph-name="uni013B" unicode="&#x13b;" horiz-adv-x="638" 
d="M168 700v-613h428v-87h-520v700h92zM254 -201q21 -8 40 -8q35 0 35 32q0 30 -37 30h-18v95h104v-121q0 -84 -84 -84q-24 0 -50 9z" />
    <glyph glyph-name="uni013C" unicode="&#x13c;" horiz-adv-x="220" 
d="M67 700h86v-700h-86v700zM38 -201q21 -8 40 -8q35 0 35 32q0 30 -37 30h-18v95h104v-121q0 -84 -84 -84q-24 0 -50 9z" />
    <glyph glyph-name="Lcaron" unicode="&#x13d;" horiz-adv-x="638" 
d="M168 700v-613h428v-87h-520v700h92zM480 543h25q39 0 39 30t-34 30h-18v97h104v-122q0 -43 -25 -65t-68 -22h-23v52z" />
    <glyph glyph-name="lcaron" unicode="&#x13e;" horiz-adv-x="318" 
d="M67 700h86v-700h-86v700zM202 543h25q39 0 39 30t-34 30h-18v97h104v-122q0 -43 -25 -65t-68 -22h-23v52z" />
    <glyph glyph-name="Ldot" unicode="&#x13f;" horiz-adv-x="600" 
d="M168 700v-613h428v-87h-520v700h92zM490 403v-105h-104v105h104z" />
    <glyph glyph-name="ldot" unicode="&#x140;" horiz-adv-x="400" 
d="M67 700h86v-700h-86v700zM362 403v-105h-104v105h104z" />
    <glyph glyph-name="Lslash" unicode="&#x141;" horiz-adv-x="638" 
d="M168 87h428v-87h-520v285l-58 -30l-34 67l92 48v330h92v-282l107 56l35 -68l-142 -73v-246z" />
    <glyph glyph-name="lslash" unicode="&#x142;" horiz-adv-x="220" 
d="M251 388l-98 -51v-337h-86v293l-63 -33l-35 67l98 51v322h86v-278l64 33z" />
    <glyph glyph-name="Nacute" unicode="&#x143;" horiz-adv-x="766" 
d="M429 914h117v-14l-121 -119h-83zM168 0h-92v700h158l364 -636v636h92v-700h-159l-363 636v-636z" />
    <glyph glyph-name="nacute" unicode="&#x144;" horiz-adv-x="543" 
d="M328 688h117v-14l-121 -119h-83zM67 0v474h86v-77q52 87 156 87q77 0 122 -47t45 -129v-308h-87v282q0 62 -28 94t-80 32q-55 0 -91.5 -40.5t-36.5 -107.5v-260h-86z" />
    <glyph glyph-name="uni0145" unicode="&#x145;" horiz-adv-x="766" 
d="M168 0h-92v700h158l364 -636v636h92v-700h-159l-363 636v-636zM311 -201q21 -8 40 -8q35 0 35 32q0 30 -37 30h-18v95h104v-121q0 -84 -84 -84q-25 0 -50 9z" />
    <glyph glyph-name="uni0146" unicode="&#x146;" horiz-adv-x="543" 
d="M67 0v474h86v-77q52 87 156 87q77 0 122 -47t45 -129v-308h-87v282q0 62 -28 94t-80 32q-55 0 -91.5 -40.5t-36.5 -107.5v-260h-86zM198 -201q21 -8 40 -8q35 0 35 32q0 30 -37 30h-18v95h104v-121q0 -84 -84 -84q-24 0 -50 9z" />
    <glyph glyph-name="Ncaron" unicode="&#x147;" horiz-adv-x="766" 
d="M231 887v14h95l57 -69l57 69h95v-14l-121 -106h-62zM168 0h-92v700h158l364 -636v636h92v-700h-159l-363 636v-636z" />
    <glyph glyph-name="ncaron" unicode="&#x148;" horiz-adv-x="543" 
d="M132 661v14h95l57 -69l57 69h95v-14l-121 -106h-62zM67 0v474h86v-77q52 87 156 87q77 0 122 -47t45 -129v-308h-87v282q0 62 -28 94t-80 32q-55 0 -91.5 -40.5t-36.5 -107.5v-260h-86z" />
    <glyph glyph-name="Eng" unicode="&#x14a;" horiz-adv-x="766" 
d="M317 -72l83 34q23 -86 107 -86q91 0 91 104v20h-67l-363 636v-636h-92v700h158l364 -636v636h92v-704q0 -97 -46.5 -150.5t-133.5 -53.5q-74 0 -125 36t-68 100z" />
    <glyph glyph-name="eng" unicode="&#x14b;" horiz-adv-x="543" 
d="M218 -110l78 29q8 -49 48 -49q45 0 45 57v355q0 62 -28.5 94t-80.5 32q-54 0 -90.5 -40.5t-36.5 -106.5v-261h-86v474h86v-77q52 87 156 87q77 0 122 -47t45 -129v-374q0 -68 -33 -105t-99 -37q-48 0 -82.5 26.5t-43.5 71.5z" />
    <glyph glyph-name="Omacron" unicode="&#x14c;" horiz-adv-x="812" 
d="M533 876v-69h-254v69h254zM406 710q151 3 257.5 -104.5t104.5 -255.5q2 -149 -104.5 -256t-257.5 -104q-151 -3 -257 104t-104 256q-2 148 104 255.5t257 104.5zM406 77q113 0 189 76t76 197t-75 197t-190 76t-190 -76t-75 -198q0 -121 75.5 -196.5t189.5 -75.5z" />
    <glyph glyph-name="omacron" unicode="&#x14d;" horiz-adv-x="556" 
d="M404 650v-69h-254v69h254zM38 237q0 106 67 176.5t173 70.5q107 0 174 -70.5t67 -176.5t-67.5 -176.5t-173.5 -70.5t-173 70.5t-67 176.5zM430 237q0 75 -43 121q-42 48 -109 48q-66 0 -109 -47.5t-43 -121.5t43 -121.5t109 -47.5q67 0 109.5 47t42.5 122z" />
    <glyph glyph-name="Obreve" unicode="&#x14e;" horiz-adv-x="812" 
d="M528 889q0 -52 -34 -80.5t-88 -28.5t-88 28.5t-34 80.5q0 11 1 14h68l-1 -11q0 -22 15 -36t39 -14t39 14t15 36l-1 11h68q1 -3 1 -14zM406 710q151 3 257.5 -104.5t104.5 -255.5q2 -149 -104.5 -256t-257.5 -104q-151 -3 -257 104t-104 256q-2 148 104 255.5t257 104.5z
M406 77q113 0 189 76t76 197t-75 197t-190 76t-190 -76t-75 -198q0 -121 75.5 -196.5t189.5 -75.5z" />
    <glyph glyph-name="obreve" unicode="&#x14f;" horiz-adv-x="556" 
d="M400 663q0 -52 -34 -80.5t-88 -28.5t-88 28.5t-34 80.5q0 11 1 14h68l-1 -11q0 -22 15 -36t39 -14t39 14t15 36l-1 11h68q1 -3 1 -14zM38 237q0 106 67 176.5t173 70.5q107 0 174 -70.5t67 -176.5t-67.5 -176.5t-173.5 -70.5t-173 70.5t-67 176.5zM430 237q0 75 -43 121
q-42 48 -109 48q-66 0 -109 -47.5t-43 -121.5t43 -121.5t109 -47.5q67 0 109.5 47t42.5 122z" />
    <glyph glyph-name="Ohungarumlaut" unicode="&#x150;" horiz-adv-x="812" 
d="M362 914h117v-14l-121 -119h-83zM541 914h117v-14l-121 -119h-83zM406 710q151 3 257.5 -104.5t104.5 -255.5q2 -149 -104.5 -256t-257.5 -104q-151 -3 -257 104t-104 256q-2 148 104 255.5t257 104.5zM406 77q113 0 189 76t76 197t-75 197t-190 76t-190 -76t-75 -198
q0 -121 75.5 -196.5t189.5 -75.5z" />
    <glyph glyph-name="ohungarumlaut" unicode="&#x151;" horiz-adv-x="556" 
d="M234 688h117v-14l-121 -119h-83zM413 688h117v-14l-121 -119h-83zM38 237q0 106 67 176.5t173 70.5q107 0 174 -70.5t67 -176.5t-67.5 -176.5t-173.5 -70.5t-173 70.5t-67 176.5zM430 237q0 75 -43 121q-42 48 -109 48q-66 0 -109 -47.5t-43 -121.5t43 -121.5t109 -47.5
q67 0 109.5 47t42.5 122z" />
    <glyph glyph-name="OE" unicode="&#x152;" horiz-adv-x="1230" 
d="M45 350q-2 148 104 255.5t257 104.5q83 0 152.5 -33.5t114.5 -94.5v118h493v-87h-401v-207h371v-87h-371v-232h411v-87h-503v119q-99 -129 -267 -129q-151 -3 -257 104t-104 256zM671 350q0 121 -75 197t-190 76t-190 -76t-75 -198q0 -121 75.5 -196.5t189.5 -75.5
q115 0 190 76t75 197z" />
    <glyph glyph-name="oe" unicode="&#x153;" horiz-adv-x="914" 
d="M38 236q0 107 67 177.5t173 70.5q129 0 195 -105q65 105 184 105q95 0 153 -55q58 -54 58 -147q0 -22 -6 -58h-343q1 -75 43.5 -117t107.5 -42q107 0 137 107l74 -29q-51 -153 -211 -153q-133 0 -195 103q-65 -103 -197 -103q-106 0 -173 69.5t-67 176.5zM781 286
q1 3 1 14q0 50 -35.5 79t-90.5 29t-92.5 -33t-44.5 -89h262zM430 236q0 76 -43 122q-42 48 -109 48q-66 0 -109 -48t-43 -122q0 -75 43 -121.5t109 -46.5q67 0 109.5 46.5t42.5 121.5z" />
    <glyph glyph-name="Racute" unicode="&#x154;" horiz-adv-x="672" 
d="M346 914h117v-14l-121 -119h-83zM512 0q-23 45 -24 160q-1 73 -34.5 104.5t-102.5 31.5h-183v-296h-92v700h320q102 0 162.5 -54.5t60.5 -135.5q0 -132 -140 -180q107 -41 111 -171q2 -65 8.5 -94t26.5 -51v-14h-113zM388 383q63 0 98.5 30.5t35.5 84.5q0 55 -35.5 85
t-98.5 30h-220v-230h220z" />
    <glyph glyph-name="racute" unicode="&#x155;" horiz-adv-x="440" 
d="M301 688h117v-14l-121 -119h-83zM153 474v-69q33 79 121 79q57 0 93.5 -37t36.5 -92q0 -29 -6 -53h-84q3 21 3 35q0 33 -20.5 52t-55.5 19q-40 0 -64 -29t-24 -77v-302h-86v474h86z" />
    <glyph glyph-name="uni0156" unicode="&#x156;" horiz-adv-x="672" 
d="M512 0q-23 45 -24 160q-1 73 -34.5 104.5t-102.5 31.5h-183v-296h-92v700h320q102 0 162.5 -54.5t60.5 -135.5q0 -132 -140 -180q107 -41 111 -171q2 -65 8.5 -94t26.5 -51v-14h-113zM388 383q63 0 98.5 30.5t35.5 84.5q0 55 -35.5 85t-98.5 30h-220v-230h220zM268 -201
q21 -8 40 -8q35 0 35 32q0 30 -37 30h-18v95h104v-121q0 -84 -84 -84q-24 0 -50 9z" />
    <glyph glyph-name="uni0157" unicode="&#x157;" horiz-adv-x="440" 
d="M153 474v-69q33 79 121 79q57 0 93.5 -37t36.5 -92q0 -29 -6 -53h-84q3 21 3 35q0 33 -20.5 52t-55.5 19q-40 0 -64 -29t-24 -77v-302h-86v474h86zM38 -201q21 -8 40 -8q35 0 35 32q0 30 -37 30h-18v95h104v-121q0 -84 -84 -84q-24 0 -50 9z" />
    <glyph glyph-name="Rcaron" unicode="&#x158;" horiz-adv-x="672" 
d="M148 887v14h95l57 -69l57 69h95v-14l-121 -106h-62zM512 0q-23 45 -24 160q-1 73 -34.5 104.5t-102.5 31.5h-183v-296h-92v700h320q102 0 162.5 -54.5t60.5 -135.5q0 -132 -140 -180q107 -41 111 -171q2 -65 8.5 -94t26.5 -51v-14h-113zM388 383q63 0 98.5 30.5
t35.5 84.5q0 55 -35.5 85t-98.5 30h-220v-230h220z" />
    <glyph glyph-name="rcaron" unicode="&#x159;" horiz-adv-x="440" 
d="M105 661v14h95l57 -69l57 69h95v-14l-121 -106h-62zM153 474v-69q33 79 121 79q57 0 93.5 -37t36.5 -92q0 -29 -6 -53h-84q3 21 3 35q0 33 -20.5 52t-55.5 19q-40 0 -64 -29t-24 -77v-302h-86v474h86z" />
    <glyph glyph-name="Sacute" unicode="&#x15a;" horiz-adv-x="629" 
d="M362 914h117v-14l-121 -119h-83zM308 623q-60 0 -98 -27t-38 -71q0 -50 46 -80t137 -48q125 -24 182 -71.5t57 -128.5q0 -90 -74.5 -148.5t-189.5 -58.5q-99 0 -182 50t-119 164l85 53q21 -87 77 -133.5t140 -46.5q76 0 122 32t46 85q0 48 -40 76.5t-136 43.5
q-243 42 -243 209q0 79 66 133t170 54q88 0 154.5 -44t94.5 -122l-86 -49q-35 128 -171 128z" />
    <glyph glyph-name="sacute" unicode="&#x15b;" horiz-adv-x="472" 
d="M277 688h117v-14l-121 -119h-83zM104 161q20 -50 53.5 -72.5t87.5 -22.5q47 0 74.5 19t27.5 50q0 35 -27.5 54.5t-97.5 28.5q-163 24 -163 136q0 57 48 93q49 37 123 37q126 0 171 -105l-67 -37q-24 72 -104 72q-40 0 -66 -17t-26 -44q0 -30 28.5 -46t98.5 -26
q166 -22 166 -141q0 -65 -54.5 -107.5t-135.5 -42.5q-79 0 -133 36t-75 98z" />
    <glyph glyph-name="Scircumflex" unicode="&#x15c;" horiz-adv-x="629" 
d="M164 795l121 106h62l121 -106v-14h-95l-57 69l-57 -69h-95v14zM308 623q-60 0 -98 -27t-38 -71q0 -50 46 -80t137 -48q125 -24 182 -71.5t57 -128.5q0 -90 -74.5 -148.5t-189.5 -58.5q-99 0 -182 50t-119 164l85 53q21 -87 77 -133.5t140 -46.5q76 0 122 32t46 85
q0 48 -40 76.5t-136 43.5q-243 42 -243 209q0 79 66 133t170 54q88 0 154.5 -44t94.5 -122l-86 -49q-35 128 -171 128z" />
    <glyph glyph-name="scircumflex" unicode="&#x15d;" horiz-adv-x="472" 
d="M79 569l121 106h62l121 -106v-14h-95l-57 69l-57 -69h-95v14zM104 161q20 -50 53.5 -72.5t87.5 -22.5q47 0 74.5 19t27.5 50q0 35 -27.5 54.5t-97.5 28.5q-163 24 -163 136q0 57 48 93q49 37 123 37q126 0 171 -105l-67 -37q-24 72 -104 72q-40 0 -66 -17t-26 -44
q0 -30 28.5 -46t98.5 -26q166 -22 166 -141q0 -65 -54.5 -107.5t-135.5 -42.5q-79 0 -133 36t-75 98z" />
    <glyph glyph-name="Scedilla" unicode="&#x15e;" horiz-adv-x="629" 
d="M594 197q0 -86 -68.5 -144t-176.5 -63q-7 -21 -19 -43q21 23 50 23q34 0 55.5 -21t21.5 -56q0 -38 -23.5 -59.5t-60.5 -21.5q-35 0 -59 17.5t-30 49.5l47 12q2 -15 13 -24.5t27 -9.5q18 0 29 10t11 26t-11 26.5t-29 10.5q-26 0 -38 -21l-47 9q7 21 17 73q-83 6 -155 49
q-83 50 -119 164l85 53q21 -87 77 -133.5t140 -46.5q76 0 122 32t46 85q0 48 -40 76.5t-136 43.5q-243 42 -243 209q0 79 66 133t170 54q88 0 154.5 -44t94.5 -122l-86 -49q-35 128 -171 128q-60 0 -98 -27t-38 -71q0 -50 46 -80t137 -48q125 -24 182 -71.5t57 -128.5z" />
    <glyph glyph-name="scedilla" unicode="&#x15f;" horiz-adv-x="472" 
d="M241 -10h-10q-8 -26 -19 -43q21 23 50 23q34 0 55.5 -21t21.5 -56q0 -38 -23.5 -59.5t-60.5 -21.5q-35 0 -59 17.5t-30 49.5l47 12q2 -15 13 -24.5t27 -9.5q18 0 29 10t11 26t-11 26.5t-29 10.5q-26 0 -38 -21l-47 9q10 33 17 77q-56 12 -95.5 45.5t-56.5 83.5l71 37
q20 -50 53.5 -72.5t87.5 -22.5q47 0 74.5 19t27.5 50q0 35 -27.5 54.5t-97.5 28.5q-163 24 -163 136q0 57 48 93q49 37 123 37q126 0 171 -105l-67 -37q-24 72 -104 72q-40 0 -66 -17t-26 -44q0 -30 28.5 -46t98.5 -26q166 -22 166 -141q0 -65 -54.5 -107.5t-135.5 -42.5z
" />
    <glyph glyph-name="Scaron" unicode="&#x160;" horiz-adv-x="629" 
d="M164 887v14h95l57 -69l57 69h95v-14l-121 -106h-62zM308 623q-60 0 -98 -27t-38 -71q0 -50 46 -80t137 -48q125 -24 182 -71.5t57 -128.5q0 -90 -74.5 -148.5t-189.5 -58.5q-99 0 -182 50t-119 164l85 53q21 -87 77 -133.5t140 -46.5q76 0 122 32t46 85q0 48 -40 76.5
t-136 43.5q-243 42 -243 209q0 79 66 133t170 54q88 0 154.5 -44t94.5 -122l-86 -49q-35 128 -171 128z" />
    <glyph glyph-name="scaron" unicode="&#x161;" horiz-adv-x="472" 
d="M81 661v14h95l57 -69l57 69h95v-14l-121 -106h-62zM104 161q20 -50 53.5 -72.5t87.5 -22.5q47 0 74.5 19t27.5 50q0 35 -27.5 54.5t-97.5 28.5q-163 24 -163 136q0 57 48 93q49 37 123 37q126 0 171 -105l-67 -37q-24 72 -104 72q-40 0 -66 -17t-26 -44q0 -30 28.5 -46
t98.5 -26q166 -22 166 -141q0 -65 -54.5 -107.5t-135.5 -42.5q-79 0 -133 36t-75 98z" />
    <glyph glyph-name="uni0162" unicode="&#x162;" horiz-adv-x="672" 
d="M382 0h-22q-12 -34 -23 -53q21 23 50 23q34 0 55.5 -21t21.5 -56q0 -38 -23.5 -59.5t-60.5 -21.5q-35 0 -59 17.5t-30 49.5l47 12q2 -15 13 -24.5t27 -9.5q18 0 29 10t11 26t-11 26.5t-29 10.5q-26 0 -38 -21l-47 9q9 32 18 82h-21v613h-259v87h610v-87h-259v-613z" />
    <glyph glyph-name="uni0163" unicode="&#x163;" horiz-adv-x="448" 
d="M272 -10h-16q-7 -21 -19 -43q21 23 50 23q34 0 55.5 -21t21.5 -56q0 -38 -23.5 -59.5t-60.5 -21.5q-35 0 -59 17.5t-30 49.5l47 12q2 -15 13 -24.5t27 -9.5q18 0 29 10t11 26t-11 26.5t-29 10.5q-26 0 -38 -21l-47 9q8 27 18 80q-94 29 -94 143v260h-94v73h94v147h87
v-147h170v-73h-170v-264q0 -33 18 -52t47 -19q60 0 71 74l80 -18q-10 -64 -48.5 -98t-99.5 -34z" />
    <glyph glyph-name="Tcaron" unicode="&#x164;" horiz-adv-x="672" 
d="M184 887v14h95l57 -69l57 69h95v-14l-121 -106h-62zM641 613h-259v-613h-92v613h-259v87h610v-87z" />
    <glyph glyph-name="tcaron" unicode="&#x165;" horiz-adv-x="448" 
d="M256 577h25q39 0 39 30t-34 30h-18v97h104v-122q0 -43 -25 -65t-68 -22h-23v52zM117 401h-94v73h94v147h87v-147h170v-73h-170v-264q0 -33 18 -52t47 -19q60 0 71 74l80 -18q-10 -64 -48.5 -98t-99.5 -34q-75 0 -115 39.5t-40 111.5v260z" />
    <glyph glyph-name="Tbar" unicode="&#x166;" horiz-adv-x="672" 
d="M641 613h-259v-226h142v-75h-142v-312h-92v312h-142v75h142v226h-259v87h610v-87z" />
    <glyph glyph-name="tbar" unicode="&#x167;" horiz-adv-x="448" 
d="M340 140l80 -18q-10 -64 -48.5 -98t-99.5 -34q-75 0 -115 39.5t-40 111.5v92h-78v70h78v98h-94v73h94v147h87v-147h170v-73h-170v-98h140v-70h-140v-96q0 -33 18 -52t47 -19q60 0 71 74z" />
    <glyph glyph-name="Utilde" unicode="&#x168;" horiz-adv-x="715" 
d="M343 796q-22 21 -43 21q-15 0 -24.5 -9.5t-9.5 -24.5q0 -8 3 -16l-63 8q-2 8 -2 16q0 39 26.5 64t65.5 25q41 0 77 -31q22 -21 43 -21q15 0 24.5 9.5t9.5 24.5q0 8 -3 16l64 -8q2 -8 2 -16q0 -39 -27 -64t-66 -25q-41 0 -77 31zM161 700v-411q0 -101 52.5 -156.5
t143.5 -55.5q93 0 145 55.5t52 156.5v411h92v-420q0 -128 -78.5 -209t-210.5 -81t-210 80.5t-78 209.5v420h92z" />
    <glyph glyph-name="utilde" unicode="&#x169;" horiz-adv-x="545" 
d="M258 570q-22 21 -43 21q-15 0 -24.5 -9.5t-9.5 -24.5q0 -9 3 -16l-63 8q-2 8 -2 16q0 39 26.5 64t65.5 25q41 0 77 -31q22 -21 43 -21q15 0 24.5 9.5t9.5 24.5q0 9 -3 16l64 -8q2 -8 2 -16q0 -39 -27 -64t-66 -25q-41 0 -77 31zM479 474v-474h-87v80q-52 -90 -155 -90
q-79 0 -124.5 46.5t-45.5 133.5v304h86v-284q0 -124 107 -124q57 0 94.5 43t37.5 113v252h87z" />
    <glyph glyph-name="Umacron" unicode="&#x16a;" horiz-adv-x="715" 
d="M484 876v-69h-254v69h254zM161 700v-411q0 -101 52.5 -156.5t143.5 -55.5q93 0 145 55.5t52 156.5v411h92v-420q0 -128 -78.5 -209t-210.5 -81t-210 80.5t-78 209.5v420h92z" />
    <glyph glyph-name="umacron" unicode="&#x16b;" horiz-adv-x="545" 
d="M399 650v-69h-254v69h254zM479 474v-474h-87v80q-52 -90 -155 -90q-79 0 -124.5 46.5t-45.5 133.5v304h86v-284q0 -124 107 -124q57 0 94.5 43t37.5 113v252h87z" />
    <glyph glyph-name="Ubreve" unicode="&#x16c;" horiz-adv-x="715" 
d="M479 889q0 -52 -34 -80.5t-88 -28.5t-88 28.5t-34 80.5q0 11 1 14h68l-1 -11q0 -22 15 -36t39 -14t39 14t15 36l-1 11h68q1 -3 1 -14zM161 700v-411q0 -101 52.5 -156.5t143.5 -55.5q93 0 145 55.5t52 156.5v411h92v-420q0 -128 -78.5 -209t-210.5 -81t-210 80.5
t-78 209.5v420h92z" />
    <glyph glyph-name="ubreve" unicode="&#x16d;" horiz-adv-x="545" 
d="M395 663q0 -52 -34 -80.5t-88 -28.5t-88 28.5t-34 80.5q0 11 1 14h68l-1 -11q0 -22 15 -36t39 -14t39 14t15 36l-1 11h68q1 -3 1 -14zM479 474v-474h-87v80q-52 -90 -155 -90q-79 0 -124.5 46.5t-45.5 133.5v304h86v-284q0 -124 107 -124q57 0 94.5 43t37.5 113v252h87z
" />
    <glyph glyph-name="Uring" unicode="&#x16e;" horiz-adv-x="715" 
d="M269 853q0 37 25.5 63t62.5 26t63 -26t26 -63t-26 -62.5t-63 -25.5t-62.5 25.5t-25.5 62.5zM396 853q0 16 -11.5 27.5t-27.5 11.5t-27.5 -11.5t-11.5 -27.5t11.5 -27.5t27.5 -11.5t27.5 11.5t11.5 27.5zM161 700v-411q0 -101 52.5 -156.5t143.5 -55.5q93 0 145 55.5
t52 156.5v411h92v-420q0 -128 -78.5 -209t-210.5 -81t-210 80.5t-78 209.5v420h92z" />
    <glyph glyph-name="uring" unicode="&#x16f;" horiz-adv-x="545" 
d="M185 627q0 37 25.5 63t62.5 26t63 -26t26 -63t-26 -62.5t-63 -25.5t-62.5 25.5t-25.5 62.5zM312 627q0 16 -11.5 27.5t-27.5 11.5t-27.5 -11.5t-11.5 -27.5t11.5 -27.5t27.5 -11.5t27.5 11.5t11.5 27.5zM479 474v-474h-87v80q-52 -90 -155 -90q-79 0 -124.5 46.5
t-45.5 133.5v304h86v-284q0 -124 107 -124q57 0 94.5 43t37.5 113v252h87z" />
    <glyph glyph-name="Uhungarumlaut" unicode="&#x170;" horiz-adv-x="715" 
d="M313 914h117v-14l-121 -119h-83zM492 914h117v-14l-121 -119h-83zM161 700v-411q0 -101 52.5 -156.5t143.5 -55.5q93 0 145 55.5t52 156.5v411h92v-420q0 -128 -78.5 -209t-210.5 -81t-210 80.5t-78 209.5v420h92z" />
    <glyph glyph-name="uhungarumlaut" unicode="&#x171;" horiz-adv-x="545" 
d="M229 688h117v-14l-121 -119h-83zM408 688h117v-14l-121 -119h-83zM479 474v-474h-87v80q-52 -90 -155 -90q-79 0 -124.5 46.5t-45.5 133.5v304h86v-284q0 -124 107 -124q57 0 94.5 43t37.5 113v252h87z" />
    <glyph glyph-name="Uogonek" unicode="&#x172;" horiz-adv-x="715" 
d="M554 700h92v-420q0 -115 -64.5 -193t-174.5 -94q-51 -33 -51 -72q0 -17 11.5 -27.5t29.5 -10.5q17 0 34 11l27 -61q-39 -21 -80 -21q-39 0 -63.5 23.5t-24.5 59.5q0 55 53 95q-126 4 -200 84.5t-74 205.5v420h92v-411q0 -101 52.5 -156.5t143.5 -55.5q93 0 145 55.5
t52 156.5v411z" />
    <glyph glyph-name="uogonek" unicode="&#x173;" horiz-adv-x="545" 
d="M493 -106l27 -61q-39 -21 -80 -21q-39 0 -63.5 23.5t-24.5 59.5q0 64 68 105h-28v80q-52 -90 -155 -90q-79 0 -124.5 46.5t-45.5 133.5v304h86v-284q0 -124 107 -124q57 0 94.5 43t37.5 113v252h87v-474q-61 -38 -61 -79q0 -17 11.5 -27.5t29.5 -10.5q17 0 34 11z" />
    <glyph glyph-name="Wcircumflex" unicode="&#x174;" horiz-adv-x="988" 
d="M342 795l121 106h62l121 -106v-14h-95l-57 69l-57 -69h-95v14zM13 700h97l149 -639l155 639h160l155 -639l149 639h97l-169 -700h-154l-158 641l-159 -641h-153z" />
    <glyph glyph-name="wcircumflex" unicode="&#x175;" horiz-adv-x="741" 
d="M219 569l121 106h62l121 -106v-14h-95l-57 69l-57 -69h-95v14zM213 84l107 390h101l107 -390l111 390h85l-141 -474h-107l-105 364l-105 -364h-108l-141 474h85z" />
    <glyph glyph-name="Ycircumflex" unicode="&#x176;" horiz-adv-x="672" 
d="M184 795l121 106h62l121 -106v-14h-95l-57 69l-57 -69h-95v14zM336 369l218 331h105l-277 -412v-288h-92v288l-276 412h110z" />
    <glyph glyph-name="ycircumflex" unicode="&#x177;" horiz-adv-x="481" 
d="M83 569l121 106h62l121 -106v-14h-95l-57 69l-57 -69h-95v14zM468 474l-304 -672h-92l117 259l-181 413h94l133 -312l141 312h92z" />
    <glyph glyph-name="Ydieresis" unicode="&#x178;" horiz-adv-x="672" 
d="M203 892h97v-99h-97v99zM370 892h97v-99h-97v99zM336 369l218 331h105l-277 -412v-288h-92v288l-276 412h110z" />
    <glyph glyph-name="Zacute" unicode="&#x179;" horiz-adv-x="702" 
d="M393 914h117v-14l-121 -119h-83zM524 613h-467v87h586v-87l-473 -526h478v-87h-596v87z" />
    <glyph glyph-name="zacute" unicode="&#x17a;" horiz-adv-x="495" 
d="M290 688h117v-14l-121 -119h-83zM42 0v73l293 323h-288v78h396v-73l-293 -323h298v-78h-406z" />
    <glyph glyph-name="Zdotaccent" unicode="&#x17b;" horiz-adv-x="702" 
d="M395 893v-100h-96v100h96zM524 613h-467v87h586v-87l-473 -526h478v-87h-596v87z" />
    <glyph glyph-name="zdotaccent" unicode="&#x17c;" horiz-adv-x="495" 
d="M196 663h96v-101h-96v101zM42 0v73l293 323h-288v78h396v-73l-293 -323h298v-78h-406z" />
    <glyph glyph-name="Zcaron" unicode="&#x17d;" horiz-adv-x="702" 
d="M195 887v14h95l57 -69l57 69h95v-14l-121 -106h-62zM524 613h-467v87h586v-87l-473 -526h478v-87h-596v87z" />
    <glyph glyph-name="zcaron" unicode="&#x17e;" horiz-adv-x="495" 
d="M94 661v14h95l57 -69l57 69h95v-14l-121 -106h-62zM42 0v73l293 323h-288v78h396v-73l-293 -323h298v-78h-406z" />
    <glyph glyph-name="florin" unicode="&#x192;" horiz-adv-x="477" 
d="M37 69l69 45q13 -46 52 -46q49 0 49 61v269h-118v76h118v72q0 75 42.5 119.5t118.5 44.5t116.5 -38t40.5 -102q0 -16 -1 -22h-81l1 18q0 34 -20.5 52.5t-55.5 18.5q-75 0 -75 -93v-70h134v-76h-134v-273q0 -62 -34 -98.5t-93 -36.5q-97 0 -129 79z" />
    <glyph glyph-name="Ohorn" unicode="&#x1a0;" horiz-adv-x="812" 
d="M590 662q82 -48 130.5 -131.5t47.5 -180.5q2 -149 -104.5 -256t-257.5 -104q-151 -3 -257 104t-104 256q-2 148 104 255.5t257 104.5q44 1 91 -10q32 0 54 15t19 55l-1 11h68q1 -3 1 -14q0 -71 -48 -105zM406 77q113 0 189 76t76 197t-75 197t-190 76t-190 -76t-75 -198
q0 -121 75.5 -196.5t189.5 -75.5z" />
    <glyph glyph-name="ohorn" unicode="&#x1a1;" horiz-adv-x="556" 
d="M433 431q86 -72 86 -194q0 -106 -67.5 -176.5t-173.5 -70.5t-173 70.5t-67 176.5t67 176.5t173 70.5q40 0 73 -10q32 0 53.5 15.5t18.5 54.5l-1 11h68q1 -3 1 -14q0 -79 -58 -110zM278 68q67 0 109.5 47t42.5 122t-43 121q-42 48 -109 48q-66 0 -109 -47.5t-43 -121.5
t43 -121.5t109 -47.5z" />
    <glyph glyph-name="Uhorn" unicode="&#x1af;" horiz-adv-x="715" 
d="M735 767q0 -99 -89 -123v-364q0 -128 -78.5 -209t-210.5 -81t-210 80.5t-78 209.5v420h92v-411q0 -101 52.5 -156.5t143.5 -55.5q93 0 145 55.5t52 156.5v411h39q32 0 54.5 15t19.5 55l-1 11h68q1 -3 1 -14z" />
    <glyph glyph-name="uhorn" unicode="&#x1b0;" horiz-adv-x="545" 
d="M565 541q0 -97 -86 -122v-419h-87v80q-52 -90 -155 -90q-79 0 -124.5 46.5t-45.5 133.5v304h86v-284q0 -124 107 -124q57 0 94.5 43t37.5 113v252h31q32 0 54.5 15t19.5 55l-1 11h68q1 -3 1 -14z" />
    <glyph glyph-name="uni01B5" unicode="&#x1b5;" horiz-adv-x="600" 
d="M648 87v-87h-596v87l201 224h-164v78h234l201 224h-467v87h586v-87l-201 -224h158v-78h-229l-201 -224h478z" />
    <glyph glyph-name="uni01B6" unicode="&#x1b6;" horiz-adv-x="495" 
d="M42 73l119 132h-70v70h135l109 121h-288v78h396v-73l-114 -126h66v-70h-130l-115 -127h298v-78h-406v73z" />
    <glyph glyph-name="Aringacute" unicode="&#x1fa;" horiz-adv-x="739" 
d="M370 765q-37 0 -62.5 25.5t-25.5 62.5q0 27 15 49.5t39 32.5l79 121h117v-14l-115 -113q42 -27 42 -76q0 -37 -26 -62.5t-63 -25.5zM370 814q16 0 27.5 11.5t11.5 27.5t-11.5 27.5t-27.5 11.5t-27.5 -11.5t-11.5 -27.5t11.5 -27.5t27.5 -11.5zM434 700l293 -700h-102
l-72 178h-366l-73 -178h-101l293 700h128zM220 262h299l-149 365z" />
    <glyph glyph-name="aringacute" unicode="&#x1fb;" horiz-adv-x="515" 
d="M246 539q-37 0 -62.5 25.5t-25.5 62.5q0 29 17 52.5t43 32.5l74 112h117v-14l-112 -110q38 -26 38 -73q0 -37 -26 -62.5t-63 -25.5zM246 588q16 0 27.5 11.5t11.5 27.5t-11.5 27.5t-27.5 11.5t-27.5 -11.5t-11.5 -27.5t11.5 -27.5t27.5 -11.5zM246 484q96 0 149 -49.5
t53 -137.5v-297h-83v75q-18 -39 -62 -62t-101 -23q-66 0 -112 39q-45 41 -45 106q0 71 48 109t128 38q53 0 101 -15l43 -12v49q0 51 -32.5 79t-86.5 28q-51 0 -84 -26t-42 -72l-78 22q14 69 68 109t136 40zM365 177v10l-44 13q-49 15 -88 15q-46 0 -72.5 -19.5t-26.5 -55.5
q0 -34 25.5 -54t71.5 -20q60 0 97 30t37 81z" />
    <glyph glyph-name="AEacute" unicode="&#x1fc;" horiz-adv-x="947" 
d="M672 914h117v-14l-121 -119h-83zM893 87v-87h-461v178h-225l-92 -178h-102l363 700h507v-87h-359v-207h329v-87h-329v-232h369zM432 614l-182 -352h182v352z" />
    <glyph glyph-name="aeacute" unicode="&#x1fd;" horiz-adv-x="844" 
d="M463 688h117v-14l-121 -119h-83zM45 138q0 71 47 109.5t129 38.5h140v18q0 51 -32 79t-87 28q-50 0 -83 -24.5t-42 -68.5l-75 21q16 70 68 107.5t132 37.5q125 0 174 -84q28 39 73 61.5t98 22.5q94 0 152 -55q59 -54 59 -147q0 -22 -6 -58h-343q1 -75 43 -117t108 -42
q107 0 137 107l74 -29q-51 -153 -211 -153q-67 0 -118.5 30t-76.5 83q-60 -113 -198 -113q-72 0 -117 42t-45 106zM711 286q1 3 1 14q0 50 -36 79t-91 29t-92.5 -33t-44.5 -89h263zM361 220h-123q-49 0 -77.5 -21t-28.5 -59q0 -36 24.5 -55t69.5 -19q61 0 98 32.5t37 88.5
v33z" />
    <glyph glyph-name="uni0218" unicode="&#x218;" horiz-adv-x="629" 
d="M308 623q-60 0 -98 -27t-38 -71q0 -50 46 -80t137 -48q125 -24 182 -71.5t57 -128.5q0 -90 -74.5 -148.5t-189.5 -58.5q-99 0 -182 50t-119 164l85 53q21 -87 77 -133.5t140 -46.5q76 0 122 32t46 85q0 48 -40 76.5t-136 43.5q-243 42 -243 209q0 79 66 133t170 54
q88 0 154.5 -44t94.5 -122l-86 -49q-35 128 -171 128zM257 -201q21 -8 40 -8q35 0 35 32q0 30 -37 30h-18v95h104v-121q0 -84 -84 -84q-25 0 -50 9z" />
    <glyph glyph-name="uni0219" unicode="&#x219;" horiz-adv-x="472" 
d="M104 161q20 -50 53.5 -72.5t87.5 -22.5q47 0 74.5 19t27.5 50q0 35 -27.5 54.5t-97.5 28.5q-163 24 -163 136q0 57 48 93q49 37 123 37q126 0 171 -105l-67 -37q-24 72 -104 72q-40 0 -66 -17t-26 -44q0 -30 28.5 -46t98.5 -26q166 -22 166 -141q0 -65 -54.5 -107.5
t-135.5 -42.5q-79 0 -133 36t-75 98zM169 -201q21 -8 40 -8q35 0 35 32q0 30 -37 30h-18v95h104v-121q0 -84 -84 -84q-25 0 -50 9z" />
    <glyph glyph-name="uni021A" unicode="&#x21a;" horiz-adv-x="672" 
d="M641 613h-259v-613h-92v613h-259v87h610v-87zM264 -201q21 -8 40 -8q35 0 35 32q0 30 -37 30h-18v95h104v-121q0 -84 -84 -84q-24 0 -50 9z" />
    <glyph glyph-name="uni021B" unicode="&#x21b;" horiz-adv-x="448" 
d="M117 401h-94v73h94v147h87v-147h170v-73h-170v-264q0 -33 18 -52t47 -19q60 0 71 74l80 -18q-10 -64 -48.5 -98t-99.5 -34q-75 0 -115 39.5t-40 111.5v260zM197 -201q21 -8 40 -8q35 0 35 32q0 30 -37 30h-18v95h104v-121q0 -84 -84 -84q-25 0 -50 9z" />
    <glyph glyph-name="uni0237" unicode="&#x237;" horiz-adv-x="220" 
d="M67 474h86v-672h-86v672z" />
    <glyph glyph-name="circumflex" unicode="&#x2c6;" horiz-adv-x="420" 
d="M58 569l121 106h62l121 -106v-14h-95l-57 69l-57 -69h-95v14z" />
    <glyph glyph-name="caron" unicode="&#x2c7;" horiz-adv-x="416" 
d="M58 661v14h95l57 -69l57 69h95v-14l-121 -106h-62z" />
    <glyph glyph-name="uni02C9" unicode="&#x2c9;" horiz-adv-x="382" 
d="M318 650v-69h-254v69h254z" />
    <glyph glyph-name="breve" unicode="&#x2d8;" horiz-adv-x="358" 
d="M301 663q0 -52 -34 -80.5t-88 -28.5t-88 28.5t-34 80.5q0 11 1 14h68l-1 -11q0 -22 15 -36t39 -14t39 14t15 36l-1 11h68q1 -3 1 -14z" />
    <glyph glyph-name="dotaccent" unicode="&#x2d9;" horiz-adv-x="202" 
d="M53 663h96v-101h-96v101z" />
    <glyph glyph-name="ring" unicode="&#x2da;" horiz-adv-x="292" 
d="M146 710q35 0 59 -24t24 -59q0 -34 -24.5 -58t-58.5 -24t-58 24t-24 58t24 58.5t58 24.5zM146 593q15 0 25 10t10 24q0 15 -10 25t-25 10q-14 0 -24 -10t-10 -25q0 -14 10 -24t24 -10z" />
    <glyph glyph-name="ogonek" unicode="&#x2db;" horiz-adv-x="317" 
d="M160 -170q-39 0 -63.5 23t-24.5 57q0 61 68 105h57q-58 -37 -58 -76q0 -18 11 -28t29 -10q16 0 33 11l28 -61q-38 -21 -80 -21z" />
    <glyph glyph-name="tilde" unicode="&#x2dc;" horiz-adv-x="419" 
d="M193 590q-22 21 -40 21q-15 0 -25.5 -10.5t-10.5 -27.5q0 -4 2 -14l-62 8l-2 15q0 39 28 65t66 26q41 0 74 -31q22 -22 44 -22q15 0 24.5 9.5t9.5 26.5l-2 16l64 -9q1 -3 1 -15q0 -39 -27 -64.5t-66 -25.5q-46 0 -78 32z" />
    <glyph glyph-name="hungarumlaut" unicode="&#x2dd;" horiz-adv-x="479" 
d="M135 688h117v-14l-121 -119h-83zM314 688h117v-14l-121 -119h-83z" />
    <glyph glyph-name="gravecomb" unicode="&#x300;" 
d="M-264 674v14h117l87 -133h-83z" />
    <glyph glyph-name="acutecomb" unicode="&#x301;" 
d="M-177 688h117v-14l-121 -119h-83z" />
    <glyph glyph-name="uni0302" unicode="&#x302;" 
d="M-362 569l121 106h62l121 -106v-14h-95l-57 69l-57 -69h-95v14z" />
    <glyph glyph-name="tildecomb" unicode="&#x303;" 
d="M-226 589q-22 21 -43 21q-15 0 -24.5 -9.5t-9.5 -24.5q0 -8 3 -16l-63 8q-2 8 -2 16q0 39 26.5 64t65.5 25q41 0 77 -31q22 -21 43 -21q15 0 24.5 9.5t9.5 24.5q0 9 -3 16l64 -8q2 -8 2 -16q0 -39 -27 -64t-66 -25q-41 0 -77 31z" />
    <glyph glyph-name="uni0304" unicode="&#x304;" 
d="M-63 650v-69h-254v69h254z" />
    <glyph glyph-name="uni0306" unicode="&#x306;" 
d="M-57 663q0 -52 -34 -80.5t-88 -28.5t-88 28.5t-34 80.5q0 11 1 14h68l-1 -11q0 -22 15 -36t39 -14t39 14t15 36l-1 11h68q1 -3 1 -14z" />
    <glyph glyph-name="uni0307" unicode="&#x307;" 
d="M-149 663h96v-101h-96v101z" />
    <glyph glyph-name="uni0308" unicode="&#x308;" 
d="M-304 666h97v-99h-97v99zM-137 666h97v-99h-97v99z" />
    <glyph glyph-name="hookabovecomb" unicode="&#x309;" 
d="M-219 653q0 -24 -7.5 -40t-14.5 -21.5t-20 -12.5q-11 -6 -16 -9.5t-9 -13.5t-4 -26h-67q-1 26 7 45t15.5 25.5t22.5 15.5q26 17 26 37q0 12 -9 19.5t-24 7.5q-39 0 -51 -50l-57 33q26 72 108 74q44 1 72 -22.5t28 -61.5z" />
    <glyph glyph-name="uni030A" unicode="&#x30a;" 
d="M-231 627q0 37 25.5 63t62.5 26t63 -26t26 -63t-26 -62.5t-63 -25.5t-62.5 25.5t-25.5 62.5zM-104 627q0 16 -11.5 27.5t-27.5 11.5t-27.5 -11.5t-11.5 -27.5t11.5 -27.5t27.5 -11.5t27.5 11.5t11.5 27.5z" />
    <glyph glyph-name="uni030B" unicode="&#x30b;" 
d="M-345 688h117v-14l-121 -119h-83zM-166 688h117v-14l-121 -119h-83z" />
    <glyph glyph-name="uni030C" unicode="&#x30c;" 
d="M-358 661v14h95l57 -69l57 69h95v-14l-121 -106h-62z" />
    <glyph glyph-name="uni0312" unicode="&#x312;" 
d="M-184 542v133q0 84 94 84h32v-52h-35q-39 0 -39 -30t35 -30h18v-105h-105z" />
    <glyph glyph-name="uni031B" unicode="&#x31b;" 
d="M-37 541q0 -69 -41 -99t-101 -30v62q32 0 54.5 15t19.5 55l-1 11h68q1 -3 1 -14z" />
    <glyph glyph-name="dotbelowcomb" unicode="&#x323;" 
d="M-45 -65h96v-101h-96v101z" />
    <glyph glyph-name="uni0326" unicode="&#x326;" 
d="M-194 -248l10 47q21 -8 40 -8q35 0 35 32q0 30 -37 30h-18v95h104v-121q0 -84 -84 -84q-24 0 -50 9z" />
    <glyph glyph-name="uni0327" unicode="&#x327;" 
d="M-182 -53q21 23 50 23q34 0 55.5 -21t21.5 -56q0 -38 -23.5 -59.5t-60.5 -21.5q-35 0 -59 17.5t-30 49.5l47 12q2 -15 13 -24.5t27 -9.5q18 0 29 10t11 26t-11 26.5t-29 10.5q-26 0 -38 -21l-47 9q10 35 21 98h51q-16 -48 -28 -69z" />
    <glyph glyph-name="uni0328" unicode="&#x328;" 
d="M-157 -173q-39 0 -63.5 23.5t-24.5 59.5q0 64 68 105h59q-61 -38 -61 -79q0 -17 11.5 -27.5t29.5 -10.5q17 0 34 11l27 -61q-39 -21 -80 -21z" />
    <glyph glyph-name="uni0335" unicode="&#x335;" 
d="M-50 371v-70h-305v70h305z" />
    <glyph glyph-name="uni0336" unicode="&#x336;" 
d="M-801 389h741v-78h-741v78z" />
    <glyph glyph-name="uni0337" unicode="&#x337;" 
d="M-359 329l248 128l34 -67l-247 -128z" />
    <glyph glyph-name="uni0338" unicode="&#x338;" 
d="M-452 -28l205 557l73 -27l-204 -557z" />
    <glyph glyph-name="uni037E" unicode="&#x37e;" horiz-adv-x="236" 
d="M66 446h104v-105h-104v105zM42 -55q18 -9 39 -9q39 0 39 33q0 31 -36 31h-18v105h104v-131q0 -86 -88 -86q-26 0 -49 9z" />
    <glyph glyph-name="tonos" unicode="&#x384;" horiz-adv-x="296" 
d="M110 688h113v-14l-71 -119h-79z" />
    <glyph glyph-name="dieresistonos" unicode="&#x385;" horiz-adv-x="408" 
d="M164 683h105v-14l-51 -119h-71zM33 666h98v-99h-98v99zM285 666h97v-99h-97v99z" />
    <glyph glyph-name="Alphatonos" unicode="&#x386;" horiz-adv-x="739" 
d="M306 700h128l293 -700h-102l-72 178h-366l-73 -178h-101zM81 700h113v-14l-71 -119h-79zM519 262l-149 365l-150 -365h299z" />
    <glyph glyph-name="anoteleia" unicode="&#x387;" horiz-adv-x="236" 
d="M170 403v-105h-104v105h104z" />
    <glyph glyph-name="Epsilontonos" unicode="&#x388;" horiz-adv-x="633" 
d="M-98 700h113v-14l-71 -119h-79zM569 700v-87h-401v-207h371v-87h-371v-232h411v-87h-503v700h493z" />
    <glyph glyph-name="Etatonos" unicode="&#x389;" horiz-adv-x="737" 
d="M-98 700h113v-14l-71 -119h-79zM168 303v-303h-92v700h92v-313h401v313h92v-700h-92v303h-401z" />
    <glyph glyph-name="Iotatonos" unicode="&#x38a;" horiz-adv-x="243" 
d="M-98 700h113v-14l-71 -119h-79zM76 700h92v-700h-92v700z" />
    <glyph glyph-name="Omicrontonos" unicode="&#x38c;" horiz-adv-x="812" 
d="M406 710q151 3 257.5 -104.5t104.5 -255.5q2 -149 -104.5 -256t-257.5 -104q-151 -3 -257 104t-104 256q-2 148 104 255.5t257 104.5zM-7 700h113v-14l-71 -119h-79zM406 77q113 0 189 76t76 197t-75 197t-190 76t-190 -76t-75 -198q0 -121 75.5 -196.5t189.5 -75.5z" />
    <glyph glyph-name="Upsilontonos" unicode="&#x38e;" horiz-adv-x="672" 
d="M-129 700h113v-14l-71 -119h-79zM336 369l218 331h105l-277 -412v-288h-92v288l-276 412h110z" />
    <glyph glyph-name="Omegatonos" unicode="&#x38f;" horiz-adv-x="777" 
d="M732 378q0 -94 -47 -171q-46 -75 -115 -123h136v-84h-272v79q81 42 142 118t61 174q0 109 -71 180.5t-178 71.5t-178 -71.5t-71 -180.5q0 -98 61 -174q60 -75 143 -118v-79h-272v84h135q-69 48 -115 123q-46 76 -46 171q-2 140 97.5 237t245.5 95q148 2 247 -94.5
t97 -237.5zM-19 700h113v-14l-71 -119h-79z" />
    <glyph glyph-name="iotadieresistonos" unicode="&#x390;" horiz-adv-x="328" 
d="M66 683h105v-14l-51 -119h-71zM-65 666h98v-99h-98v99zM187 666h97v-99h-97v99zM67 474h86v-345q0 -30 14.5 -45.5t39.5 -15.5q39 0 49 39l68 -43q-30 -74 -117 -74q-69 0 -104.5 38t-35.5 108v338z" />
    <glyph glyph-name="Alpha" unicode="&#x391;" horiz-adv-x="739" 
d="M306 700h128l293 -700h-102l-72 178h-366l-73 -178h-101zM519 262l-149 365l-150 -365h299z" />
    <glyph glyph-name="Beta" unicode="&#x392;" horiz-adv-x="688" 
d="M76 700h317q98 0 160 -52t62 -130q0 -51 -28.5 -93t-76.5 -64q130 -43 130 -172q0 -81 -65 -135t-161 -54h-338v700zM397 401q59 0 93 28.5t34 79.5q0 48 -36 76t-91 28h-229v-212h229zM411 87q58 0 95.5 31.5t37.5 82.5t-37 84.5t-96 33.5h-243v-232h243z" />
    <glyph glyph-name="Gamma" unicode="&#x393;" horiz-adv-x="613" 
d="M168 613v-613h-92v700h507v-87h-415z" />
    <glyph glyph-name="uni0394" unicode="&#x394;" horiz-adv-x="739" 
d="M306 700h128l293 -700h-714zM591 84l-221 544l-221 -544h442z" />
    <glyph glyph-name="Epsilon" unicode="&#x395;" horiz-adv-x="633" 
d="M569 700v-87h-401v-207h371v-87h-371v-232h411v-87h-503v700h493z" />
    <glyph glyph-name="Zeta" unicode="&#x396;" horiz-adv-x="702" 
d="M524 613h-467v87h586v-87l-473 -526h478v-87h-596v87z" />
    <glyph glyph-name="Eta" unicode="&#x397;" horiz-adv-x="737" 
d="M168 303v-303h-92v700h92v-313h401v313h92v-700h-92v303h-401z" />
    <glyph glyph-name="Theta" unicode="&#x398;" horiz-adv-x="812" 
d="M406 710q151 3 257.5 -104.5t104.5 -255.5q2 -149 -104.5 -256t-257.5 -104q-151 -3 -257 104t-104 256q-2 148 104 255.5t257 104.5zM406 77q113 0 189 76t76 197t-75 197t-190 76t-190 -76t-75 -198q0 -121 75.5 -196.5t189.5 -75.5zM279 388h254v-76h-254v76z" />
    <glyph glyph-name="Iota" unicode="&#x399;" horiz-adv-x="243" 
d="M76 700h92v-700h-92v700z" />
    <glyph glyph-name="Kappa" unicode="&#x39a;" horiz-adv-x="672" 
d="M648 0h-110l-223 358l-147 -156v-202h-92v700h92v-374l348 374h119l-257 -274z" />
    <glyph glyph-name="Lambda" unicode="&#x39b;" horiz-adv-x="739" 
d="M306 700h128l293 -700h-102l-255 628l-256 -628h-101z" />
    <glyph glyph-name="Mu" unicode="&#x39c;" horiz-adv-x="942" 
d="M775 0v651l-234 -651h-140l-233 651v-651h-92v700h170l225 -631l225 631h171v-700h-92z" />
    <glyph glyph-name="Nu" unicode="&#x39d;" horiz-adv-x="766" 
d="M168 0h-92v700h158l364 -636v636h92v-700h-159l-363 636v-636z" />
    <glyph glyph-name="Xi" unicode="&#x39e;" horiz-adv-x="676" 
d="M60 613v87h557v-87h-557zM180 313v84h317v-84h-317zM622 87v-87h-567v87h567z" />
    <glyph glyph-name="Omicron" unicode="&#x39f;" horiz-adv-x="812" 
d="M406 710q151 3 257.5 -104.5t104.5 -255.5q2 -149 -104.5 -256t-257.5 -104q-151 -3 -257 104t-104 256q-2 148 104 255.5t257 104.5zM406 77q113 0 189 76t76 197t-75 197t-190 76t-190 -76t-75 -198q0 -121 75.5 -196.5t189.5 -75.5z" />
    <glyph glyph-name="Pi" unicode="&#x3a0;" horiz-adv-x="737" 
d="M168 616v-616h-92v700h585v-700h-92v616h-401z" />
    <glyph glyph-name="Rho" unicode="&#x3a1;" horiz-adv-x="658" 
d="M168 0h-92v700h309q105 0 166 -58.5t61 -147.5q0 -86 -62 -146t-165 -60h-217v-288zM377 375q63 0 100.5 31.5t37.5 87.5t-37.5 87.5t-100.5 31.5h-209v-238h209z" />
    <glyph glyph-name="Sigma" unicode="&#x3a3;" horiz-adv-x="652" 
d="M415 309l-253 -222h436v-87h-546v105l283 245l-283 245v105h526v-87h-416l253 -222v-82z" />
    <glyph glyph-name="Tau" unicode="&#x3a4;" horiz-adv-x="672" 
d="M641 613h-259v-613h-92v613h-259v87h610v-87z" />
    <glyph glyph-name="Upsilon" unicode="&#x3a5;" horiz-adv-x="672" 
d="M336 369l218 331h105l-277 -412v-288h-92v288l-276 412h110z" />
    <glyph glyph-name="Phi" unicode="&#x3a6;" horiz-adv-x="817" 
d="M362 80h-55q-114 0 -188 77t-74 193q0 113 74.5 191.5t187.5 78.5h55v80h92v-80h55q113 0 188 -78.5t75 -191.5q0 -116 -74 -193t-189 -77h-55v-80h-92v80zM362 167v366h-46q-78 0 -128.5 -52t-50.5 -131q0 -78 50.5 -130.5t128.5 -52.5h46zM501 167q78 0 128.5 52.5
t50.5 130.5q0 79 -50.5 131t-128.5 52h-47v-366h47z" />
    <glyph glyph-name="Chi" unicode="&#x3a7;" horiz-adv-x="674" 
d="M283 380l-225 320h112l167 -252l171 252h108l-225 -320l265 -380h-109l-210 308l-210 -308h-109z" />
    <glyph glyph-name="Psi" unicode="&#x3a8;" horiz-adv-x="803" 
d="M734 700v-170q0 -150 -75.5 -239.5t-211.5 -103.5v-187h-92v187q-136 14 -211 104t-75 239v170h92v-174q0 -110 50.5 -175.5t143.5 -78.5v428h92v-428q94 13 144.5 78.5t50.5 175.5v174h92z" />
    <glyph glyph-name="uni03A9" unicode="&#x3a9;" horiz-adv-x="777" 
d="M732 378q0 -94 -47 -171q-46 -75 -115 -123h136v-84h-272v79q81 42 142 118t61 174q0 109 -71 180.5t-178 71.5t-178 -71.5t-71 -180.5q0 -98 61 -174q60 -75 143 -118v-79h-272v84h135q-69 48 -115 123q-46 76 -46 171q-2 140 97.5 237t245.5 95q148 2 247 -94.5
t97 -237.5z" />
    <glyph glyph-name="Iotadieresis" unicode="&#x3aa;" horiz-adv-x="243" 
d="M-10 892h97v-99h-97v99zM157 892h97v-99h-97v99zM76 700h92v-700h-92v700z" />
    <glyph glyph-name="Upsilondieresis" unicode="&#x3ab;" horiz-adv-x="672" 
d="M199 892h97v-99h-97v99zM366 892h97v-99h-97v99zM336 369l218 331h105l-277 -412v-288h-92v288l-276 412h110z" />
    <glyph glyph-name="alphatonos" unicode="&#x3ac;" horiz-adv-x="619" 
d="M300 688h113v-14l-71 -119h-79zM38 236q0 112 58.5 180t144.5 68q105 0 145 -84v74h86v-360q0 -44 37 -44q27 0 38 35l68 -36q-11 -36 -40.5 -57.5t-68.5 -21.5q-45 0 -75 25.5t-36 69.5q-39 -95 -152 -95q-86 0 -145.5 67.5t-59.5 178.5zM387 239q0 79 -37 123t-95 44
q-57 0 -94 -45t-37 -124q0 -80 36.5 -124.5t94.5 -44.5t95 45t37 126z" />
    <glyph glyph-name="epsilontonos" unicode="&#x3ad;" horiz-adv-x="452" 
d="M220 688h113v-14l-71 -119h-79zM40 133q0 87 93 108q-37 10 -59.5 39t-22.5 70q0 61 46.5 97.5t120.5 36.5q130 0 176 -124l-74 -37q-24 86 -102 86q-38 0 -60.5 -16.5t-22.5 -47.5t21.5 -49t54.5 -18h33v-76h-43q-36 0 -56.5 -16t-20.5 -45q0 -35 26.5 -54t71.5 -19
q52 0 82.5 28.5t39.5 79.5l75 -34q-12 -67 -63.5 -109.5t-126.5 -42.5q-79 0 -134 40t-55 103z" />
    <glyph glyph-name="etatonos" unicode="&#x3ae;" horiz-adv-x="543" 
d="M280 688h113v-14l-71 -119h-79zM389 282q0 61 -29 93.5t-81 32.5q-55 0 -90.5 -39.5t-35.5 -105.5v-263h-86v474h86v-75q56 85 156 85q77 0 122 -47t45 -129v-506h-87v480z" />
    <glyph glyph-name="iotatonos" unicode="&#x3af;" horiz-adv-x="328" 
d="M108 688h113v-14l-71 -119h-79zM67 474h86v-345q0 -30 14.5 -45.5t39.5 -15.5q39 0 49 39l68 -43q-30 -74 -117 -74q-69 0 -104.5 38t-35.5 108v338z" />
    <glyph glyph-name="upsilondieresistonos" unicode="&#x3b0;" horiz-adv-x="538" 
d="M225 683h105v-14l-51 -119h-71zM94 666h98v-99h-98v99zM346 666h97v-99h-97v99zM67 474h86v-281q0 -61 30 -93t86 -32q55 0 85.5 32.5t30.5 92.5v281h86v-278q0 -95 -54.5 -150.5t-147.5 -55.5t-147.5 55.5t-54.5 150.5v278z" />
    <glyph glyph-name="alpha" unicode="&#x3b1;" horiz-adv-x="619" 
d="M38 236q0 112 58.5 180t144.5 68q105 0 145 -84v74h86v-360q0 -44 37 -44q27 0 38 35l68 -36q-11 -36 -40.5 -57.5t-68.5 -21.5q-45 0 -75 25.5t-36 69.5q-39 -95 -152 -95q-86 0 -145.5 67.5t-59.5 178.5zM387 239q0 79 -37 123t-95 44q-57 0 -94 -45t-37 -124
q0 -80 36.5 -124.5t94.5 -44.5t95 45t37 126z" />
    <glyph glyph-name="beta" unicode="&#x3b2;" horiz-adv-x="546" 
d="M67 523q0 86 50 136.5t132 50.5q79 0 125.5 -43t46.5 -113q0 -52 -25.5 -90.5t-65.5 -54.5q75 -13 120.5 -65t45.5 -136q0 -98 -56 -158t-144 -60q-44 0 -83 17t-60 47v-252h-86v721zM410 208q0 73 -52.5 115t-125.5 42h-20v75h20q48 1 77.5 29.5t29.5 76.5
q0 39 -25 63.5t-64 24.5q-45 0 -71 -29t-26 -83v-311q0 -64 37.5 -103t96.5 -39q56 0 89.5 36t33.5 103z" />
    <glyph glyph-name="gamma" unicode="&#x3b3;" horiz-adv-x="529" 
d="M222 71l-203 403h92l154 -322l153 322h93l-203 -403v-269h-86v269z" />
    <glyph glyph-name="delta" unicode="&#x3b4;" horiz-adv-x="552" 
d="M38 233q0 85 39 137q39 54 92 72q-48 9 -77.5 42t-29.5 80q0 65 59 105.5t145 40.5q120 0 200 -74l-45 -66q-65 62 -152 62q-53 0 -86 -21t-33 -56q0 -77 126 -77q111 0 174.5 -68.5t63.5 -170.5q0 -109 -66 -179t-172 -70q-105 0 -171.5 69.5t-66.5 173.5zM426 237
q0 74 -42 119.5t-108 45.5t-108 -45.5t-42 -119.5q0 -75 42 -122t108 -47t108 47t42 122z" />
    <glyph glyph-name="epsilon" unicode="&#x3b5;" horiz-adv-x="452" 
d="M40 133q0 87 93 108q-37 10 -59.5 39t-22.5 70q0 61 46.5 97.5t120.5 36.5q130 0 176 -124l-74 -37q-24 86 -102 86q-38 0 -60.5 -16.5t-22.5 -47.5t21.5 -49t54.5 -18h33v-76h-43q-36 0 -56.5 -16t-20.5 -45q0 -35 26.5 -54t71.5 -19q52 0 82.5 28.5t39.5 79.5l75 -34
q-12 -67 -63.5 -109.5t-126.5 -42.5q-79 0 -134 40t-55 103z" />
    <glyph glyph-name="zeta" unicode="&#x3b6;" horiz-adv-x="494" 
d="M362 -164q40 34 40 78q0 35 -25 55.5t-75 20.5q-113 0 -188.5 72t-75.5 197q-1 70 25.5 132t71 106t95.5 75t107 50h-286v78h424v-78q-180 -65 -266.5 -150.5t-86.5 -207.5q0 -98 53.5 -148t145.5 -50q77 0 121 -38.5t44 -107.5q0 -75 -60 -128z" />
    <glyph glyph-name="eta" unicode="&#x3b7;" horiz-adv-x="543" 
d="M389 282q0 61 -29 93.5t-81 32.5q-55 0 -90.5 -39.5t-35.5 -105.5v-263h-86v474h86v-75q56 85 156 85q77 0 122 -47t45 -129v-506h-87v480z" />
    <glyph glyph-name="theta" unicode="&#x3b8;" horiz-adv-x="559" 
d="M38 350q0 167 64 263.5t177 96.5q114 0 178 -96t64 -264q0 -170 -63 -265t-179 -95q-115 0 -178 95t-63 265zM432 388q-4 114 -43.5 179t-109.5 65t-109 -65t-43 -179h305zM127 312q8 -244 152 -244q73 0 111 63.5t42 180.5h-305z" />
    <glyph glyph-name="iota" unicode="&#x3b9;" horiz-adv-x="328" 
d="M67 136v338h86v-345q0 -30 14.5 -45.5t39.5 -15.5q39 0 49 39l68 -43q-30 -74 -117 -74q-69 0 -104.5 38t-35.5 108z" />
    <glyph glyph-name="kappa" unicode="&#x3ba;" horiz-adv-x="467" 
d="M67 474h86v-191l171 191h111l-210 -224l219 -250h-110l-181 212v-212h-86v474z" />
    <glyph glyph-name="lambda" unicode="&#x3bb;" horiz-adv-x="500" 
d="M395 0l-142 379l-146 -379h-92l197 489l-30 80q-21 54 -62 54t-57 -40l-61 42q16 36 48 55.5t74 19.5q51 0 84 -25t53 -79l226 -596h-92z" />
    <glyph glyph-name="uni03BC" unicode="&#x3bc;" horiz-adv-x="545" 
d="M67 474h86v-284q0 -124 113 -124q54 0 90 42.5t36 113.5v252h87v-474h-87v80q-45 -90 -142 -90q-65 0 -97 41v-229h-86v672z" />
    <glyph glyph-name="nu" unicode="&#x3bd;" horiz-adv-x="521" 
d="M261 84l150 390h92l-190 -474h-105l-189 474h91z" />
    <glyph glyph-name="xi" unicode="&#x3be;" horiz-adv-x="487" 
d="M353 -162q38 31 38 72q0 80 -106 80q-114 0 -179.5 53t-65.5 146q0 67 34.5 114t94.5 68q-44 17 -74.5 58.5t-30.5 96.5q0 81 59 132.5t144 51.5q89 0 144 -44t68 -127l-81 -22q-13 117 -129 117q-54 0 -87.5 -30.5t-33.5 -79.5q0 -55 36.5 -87t101.5 -32h80v-76h-88
q-71 0 -112.5 -37t-41.5 -96q0 -68 41.5 -99t130.5 -31q87 0 133 -39t46 -116q0 -66 -56 -119z" />
    <glyph glyph-name="omicron" unicode="&#x3bf;" horiz-adv-x="556" 
d="M38 237q0 106 67 176.5t173 70.5q107 0 174 -70.5t67 -176.5t-67.5 -176.5t-173.5 -70.5t-173 70.5t-67 176.5zM430 237q0 75 -43 121q-42 48 -109 48q-66 0 -109 -47.5t-43 -121.5t43 -121.5t109 -47.5q67 0 109.5 47t42.5 122z" />
    <glyph glyph-name="pi" unicode="&#x3c0;" horiz-adv-x="622" 
d="M345 129v272h-130v-401h-87v401h-114v73h544v-73h-126v-278q0 -27 13 -41t35 -14q32 0 48 39l66 -41q-12 -35 -43 -55.5t-71 -20.5q-67 0 -101 37t-34 102z" />
    <glyph glyph-name="rho" unicode="&#x3c1;" horiz-adv-x="569" 
d="M67 214q0 132 65.5 201t170.5 69q104 0 166 -68t62 -178q0 -109 -62 -178.5t-157 -69.5q-113 0 -161 78v-266h-84v412zM445 237q0 79 -41.5 124t-106.5 45q-62 0 -105 -44.5t-43 -124.5t43 -125t105 -45q63 0 105.5 45t42.5 125z" />
    <glyph glyph-name="uni03C2" unicode="&#x3c2;" horiz-adv-x="504" 
d="M366 -161q40 33 40 75q0 35 -28.5 55.5t-88.5 20.5q-109 0 -180 69.5t-71 180.5q0 105 69.5 174.5t168.5 69.5q86 0 144.5 -45t75.5 -126l-79 -24q-11 57 -48 88t-94 31q-60 0 -106.5 -45.5t-46.5 -122.5q0 -79 49 -126.5t129 -47.5q90 0 139.5 -39.5t49.5 -111.5
q0 -71 -58 -123z" />
    <glyph glyph-name="sigma" unicode="&#x3c3;" horiz-adv-x="556" 
d="M38 232q0 106 69.5 174t188.5 68h228v-76h-102q44 -24 68 -69.5t24 -103.5q0 -101 -66 -168t-172 -67q-105 0 -171.5 69.5t-66.5 172.5zM426 232q0 73 -41.5 118.5t-107.5 45.5t-108.5 -46t-42.5 -118q0 -73 41.5 -118.5t108.5 -45.5t108.5 45.5t41.5 118.5z" />
    <glyph glyph-name="tau" unicode="&#x3c4;" horiz-adv-x="433" 
d="M148 136v262h-125v76h348v-76h-136v-269q0 -61 54 -61q37 0 49 39l67 -43q-30 -74 -116 -74q-69 0 -105 38t-36 108z" />
    <glyph glyph-name="upsilon" unicode="&#x3c5;" horiz-adv-x="538" 
d="M67 196v278h86v-281q0 -61 30 -93t86 -32q55 0 85.5 32.5t30.5 92.5v281h86v-278q0 -95 -54.5 -150.5t-147.5 -55.5t-147.5 55.5t-54.5 150.5z" />
    <glyph glyph-name="phi" unicode="&#x3c6;" horiz-adv-x="698" 
d="M660 237q0 -103 -66.5 -170t-165.5 -67h-36v-198h-86v198h-36q-99 0 -165.5 67t-66.5 170t66.5 170t165.5 67h36v226h86v-226h36q99 0 165.5 -67t66.5 -170zM306 78v318h-25q-73 0 -116 -43.5t-43 -115.5t43 -115.5t116 -43.5h25zM576 237q0 72 -43 115.5t-117 43.5h-24
v-318h24q74 0 117 43.5t43 115.5z" />
    <glyph glyph-name="chi" unicode="&#x3c7;" horiz-adv-x="470" 
d="M186 152l-156 322h100l105 -233l104 233h101l-156 -321l173 -351h-99l-123 263l-123 -263h-99z" />
    <glyph glyph-name="psi" unicode="&#x3c8;" horiz-adv-x="627" 
d="M270 700h87v-622q117 5 117 144v252h87v-249q0 -105 -52.5 -162.5t-151.5 -62.5v-198h-87v198q-99 5 -151 62.5t-52 162.5v249h86v-252q0 -139 117 -144v622z" />
    <glyph glyph-name="omega" unicode="&#x3c9;" horiz-adv-x="744" 
d="M329 198v171h86v-171q0 -62 26 -96t72 -34q52 0 79.5 44.5t27.5 128.5q0 131 -76 233h93q69 -94 69 -228q0 -119 -48.5 -187.5t-140.5 -68.5q-53 0 -91 28t-54 79q-17 -51 -55 -79t-90 -28q-92 0 -140.5 68.5t-48.5 187.5q0 129 70 228h92q-76 -102 -76 -233
q0 -84 27.5 -128.5t79.5 -44.5q46 0 72 34t26 96z" />
    <glyph glyph-name="iotadieresis" unicode="&#x3ca;" horiz-adv-x="328" 
d="M-23 666h97v-99h-97v99zM144 666h97v-99h-97v99zM67 474h86v-345q0 -30 14.5 -45.5t39.5 -15.5q39 0 49 39l68 -43q-30 -74 -117 -74q-69 0 -104.5 38t-35.5 108v338z" />
    <glyph glyph-name="upsilondieresis" unicode="&#x3cb;" horiz-adv-x="538" 
d="M136 666h97v-99h-97v99zM303 666h97v-99h-97v99zM67 474h86v-281q0 -61 30 -93t86 -32q55 0 85.5 32.5t30.5 92.5v281h86v-278q0 -95 -54.5 -150.5t-147.5 -55.5t-147.5 55.5t-54.5 150.5v278z" />
    <glyph glyph-name="omicrontonos" unicode="&#x3cc;" horiz-adv-x="556" 
d="M276 688h113v-14l-71 -119h-79zM38 237q0 106 67 176.5t173 70.5q107 0 174 -70.5t67 -176.5t-67.5 -176.5t-173.5 -70.5t-173 70.5t-67 176.5zM430 237q0 75 -43 121q-42 48 -109 48q-66 0 -109 -47.5t-43 -121.5t43 -121.5t109 -47.5q67 0 109.5 47t42.5 122z" />
    <glyph glyph-name="upsilontonos" unicode="&#x3cd;" horiz-adv-x="538" 
d="M267 688h113v-14l-71 -119h-79zM67 474h86v-281q0 -61 30 -93t86 -32q55 0 85.5 32.5t30.5 92.5v281h86v-278q0 -95 -54.5 -150.5t-147.5 -55.5t-147.5 55.5t-54.5 150.5v278z" />
    <glyph glyph-name="omegatonos" unicode="&#x3ce;" horiz-adv-x="744" 
d="M379 688h113v-14l-71 -119h-79zM329 369h86v-171q0 -62 26 -96t72 -34q52 0 79.5 44.5t27.5 128.5q0 131 -76 233h93q69 -94 69 -228q0 -119 -48.5 -187.5t-140.5 -68.5q-53 0 -91 28t-54 79q-17 -51 -55 -79t-90 -28q-92 0 -140.5 68.5t-48.5 187.5q0 129 70 228h92
q-76 -102 -76 -233q0 -84 27.5 -128.5t79.5 -44.5q46 0 72 34t26 96v171z" />
    <glyph glyph-name="uni0400" unicode="&#x400;" horiz-adv-x="633" 
d="M144 900v14h117l87 -133h-83zM569 700v-87h-401v-207h371v-87h-371v-232h411v-87h-503v700h493z" />
    <glyph glyph-name="uni0401" unicode="&#x401;" horiz-adv-x="633" 
d="M174 892h97v-99h-97v99zM341 892h97v-99h-97v99zM569 700v-87h-401v-207h371v-87h-371v-232h411v-87h-503v700h493z" />
    <glyph glyph-name="uni0402" unicode="&#x402;" horiz-adv-x="841" 
d="M621 -97q79 140 79 286q0 210 -157 210q-68 0 -114.5 -52.5t-46.5 -131.5v-215h-92v616h-259v84h610v-84h-259v-238q56 106 189 106q108 0 164.5 -77t56.5 -212q0 -148 -77 -305h-94v13z" />
    <glyph glyph-name="uni0403" unicode="&#x403;" horiz-adv-x="613" 
d="M369 914h117v-14l-121 -119h-83zM168 613v-613h-92v700h507v-87h-415z" />
    <glyph glyph-name="uni0404" unicode="&#x404;" horiz-adv-x="777" 
d="M743 265q-28 -124 -119 -199.5t-229 -75.5q-156 -1 -254 102t-96 258q-2 151 100.5 257t249.5 103q128 0 205 -66q78 -66 105 -167l-84 -38q-18 86 -77 136.5t-149 50.5q-99 0 -168.5 -62t-82.5 -168h306v-87h-307q11 -110 79 -172.5t173 -62.5q116 0 180 61t87 163z" />
    <glyph glyph-name="uni0405" unicode="&#x405;" horiz-adv-x="629" 
d="M308 623q-60 0 -98 -27t-38 -71q0 -50 46 -80t137 -48q125 -24 182 -71.5t57 -128.5q0 -90 -74.5 -148.5t-189.5 -58.5q-99 0 -182 50t-119 164l85 53q21 -87 77 -133.5t140 -46.5q76 0 122 32t46 85q0 48 -40 76.5t-136 43.5q-243 42 -243 209q0 79 66 133t170 54
q88 0 154.5 -44t94.5 -122l-86 -49q-35 128 -171 128z" />
    <glyph glyph-name="uni0406" unicode="&#x406;" horiz-adv-x="243" 
d="M76 700h92v-700h-92v700z" />
    <glyph glyph-name="uni0407" unicode="&#x407;" horiz-adv-x="243" 
d="M-10 892h97v-99h-97v99zM157 892h97v-99h-97v99zM76 700h92v-700h-92v700z" />
    <glyph glyph-name="uni0408" unicode="&#x408;" horiz-adv-x="598" 
d="M529 700v-466q0 -105 -59 -174.5t-177 -69.5q-112 0 -177.5 64.5t-65.5 167.5q0 69 28 121l87 -33q-23 -41 -23 -93q0 -62 41.5 -101t109.5 -39q144 0 144 174v449h92z" />
    <glyph glyph-name="uni0409" unicode="&#x409;" horiz-adv-x="1012" 
d="M29 12q32 59 45 134q15 76 15 199v355h455v-293h197q101 0 162 -58t61 -145q0 -89 -61 -146.5t-162 -57.5h-289v616h-271v-261q0 -241 -55 -355h-97v12zM735 87q60 0 96.5 31.5t36.5 85.5t-36.5 85.5t-96.5 31.5h-191v-234h191z" />
    <glyph glyph-name="uni040A" unicode="&#x40a;" horiz-adv-x="989" 
d="M76 700h92v-293h278v293h92v-293h180q101 0 162 -58t61 -145q0 -89 -61 -146.5t-162 -57.5h-272v321h-278v-321h-92v700zM712 87q60 0 96.5 31.5t36.5 85.5t-36.5 85.5t-96.5 31.5h-174v-234h174z" />
    <glyph glyph-name="uni040B" unicode="&#x40b;" horiz-adv-x="800" 
d="M290 613h-259v87h610v-87h-259v-227q22 46 67 72t103 26q81 0 128.5 -47.5t47.5 -129.5v-307h-92v282q0 60 -30 91.5t-85 31.5q-59 0 -99 -45t-40 -116v-244h-92v613z" />
    <glyph glyph-name="uni040C" unicode="&#x40c;" horiz-adv-x="623" 
d="M364 914h117v-14l-121 -119h-83zM76 700h92v-304l301 304h120l-336 -335l353 -365h-125l-313 324v-324h-92v700z" />
    <glyph glyph-name="uni040D" unicode="&#x40d;" horiz-adv-x="766" 
d="M209 900v14h117l87 -133h-83zM235 0h-159v700h92v-636l364 636h158v-700h-92v636z" />
    <glyph glyph-name="uni040E" unicode="&#x40e;" horiz-adv-x="690" 
d="M468 889q0 -52 -34 -80.5t-88 -28.5t-88 28.5t-34 80.5q0 11 1 14h68l-1 -11q0 -22 15 -36t39 -14t39 14t15 36l-1 11h68q1 -3 1 -14zM292 265l-276 435h110l219 -351l220 351h109l-444 -700h-111z" />
    <glyph glyph-name="uni040F" unicode="&#x40f;" horiz-adv-x="665" 
d="M289 0h-213v700h92v-616h330v616h92v-700h-214v-110h-87v110z" />
    <glyph glyph-name="uni0410" unicode="&#x410;" horiz-adv-x="739" 
d="M306 700h128l293 -700h-102l-72 178h-366l-73 -178h-101zM519 262l-149 365l-150 -365h299z" />
    <glyph glyph-name="uni0411" unicode="&#x411;" horiz-adv-x="690" 
d="M76 700h484v-87h-392v-210h249q99 0 162.5 -55t63.5 -146t-63.5 -146.5t-162.5 -55.5h-341v700zM413 87q59 0 96.5 31.5t37.5 83.5q0 51 -37 82.5t-97 31.5h-245v-229h245z" />
    <glyph glyph-name="uni0412" unicode="&#x412;" horiz-adv-x="688" 
d="M76 700h317q98 0 160 -52t62 -130q0 -51 -28.5 -93t-76.5 -64q130 -43 130 -172q0 -81 -65 -135t-161 -54h-338v700zM397 401q59 0 93 28.5t34 79.5q0 48 -36 76t-91 28h-229v-212h229zM411 87q58 0 95.5 31.5t37.5 82.5t-37 84.5t-96 33.5h-243v-232h243z" />
    <glyph glyph-name="uni0413" unicode="&#x413;" horiz-adv-x="613" 
d="M168 613v-613h-92v700h507v-87h-415z" />
    <glyph glyph-name="uni0414" unicode="&#x414;" horiz-adv-x="695" 
d="M29 84h61q40 57 60 111t24 112q6 59 6 155v238h412v-616h74v-194h-86v110h-465v-110h-86v194zM500 84v532h-231v-158q0 -133 -15 -217t-58 -157h304z" />
    <glyph glyph-name="uni0415" unicode="&#x415;" horiz-adv-x="633" 
d="M569 700v-87h-401v-207h371v-87h-371v-232h411v-87h-503v700h493z" />
    <glyph glyph-name="uni0416" unicode="&#x416;" horiz-adv-x="1003" 
d="M986 0h-125l-313 324v-324h-92v324l-314 -324h-125l353 365l-336 335h120l302 -304v304h92v-304l301 304h120l-336 -335z" />
    <glyph glyph-name="uni0417" unicode="&#x417;" horiz-adv-x="582" 
d="M43 197l85 35q10 -73 52 -114t114 -41q67 0 106.5 29.5t39.5 85.5t-35 87t-94 31h-36v86h33q58 0 90 28.5t32 82.5q0 56 -36 86t-102 30q-57 0 -95 -32.5t-51 -92.5l-83 37q16 75 79 125q62 50 153 50q105 0 166 -52.5t61 -145.5q0 -59 -29.5 -99t-81.5 -58
q54 -12 87.5 -54.5t33.5 -104.5q0 -98 -67 -152t-174 -54q-103 0 -167.5 56.5t-80.5 150.5z" />
    <glyph glyph-name="uni0418" unicode="&#x418;" horiz-adv-x="766" 
d="M235 0h-159v700h92v-636l364 636h158v-700h-92v636z" />
    <glyph glyph-name="uni0419" unicode="&#x419;" horiz-adv-x="766" 
d="M493 889q0 -52 -34 -80.5t-88 -28.5t-88 28.5t-34 80.5q0 11 1 14h68l-1 -11q0 -22 15 -36t39 -14t39 14t15 36l-1 11h68q1 -3 1 -14zM235 0h-159v700h92v-636l364 636h158v-700h-92v636z" />
    <glyph glyph-name="uni041A" unicode="&#x41a;" horiz-adv-x="623" 
d="M76 700h92v-304l301 304h120l-336 -335l353 -365h-125l-313 324v-324h-92v700z" />
    <glyph glyph-name="uni041B" unicode="&#x41b;" horiz-adv-x="695" 
d="M29 12q32 59 45 134q15 76 15 199v355h530v-700h-92v616h-346v-261q0 -241 -55 -355h-97v12z" />
    <glyph glyph-name="uni041C" unicode="&#x41c;" horiz-adv-x="942" 
d="M775 0v651l-234 -651h-140l-233 651v-651h-92v700h170l225 -631l225 631h171v-700h-92z" />
    <glyph glyph-name="uni041D" unicode="&#x41d;" horiz-adv-x="737" 
d="M168 303v-303h-92v700h92v-313h401v313h92v-700h-92v303h-401z" />
    <glyph glyph-name="uni041E" unicode="&#x41e;" horiz-adv-x="812" 
d="M406 710q151 3 257.5 -104.5t104.5 -255.5q2 -149 -104.5 -256t-257.5 -104q-151 -3 -257 104t-104 256q-2 148 104 255.5t257 104.5zM406 77q113 0 189 76t76 197t-75 197t-190 76t-190 -76t-75 -198q0 -121 75.5 -196.5t189.5 -75.5z" />
    <glyph glyph-name="uni041F" unicode="&#x41f;" horiz-adv-x="737" 
d="M168 616v-616h-92v700h585v-700h-92v616h-401z" />
    <glyph glyph-name="uni0420" unicode="&#x420;" horiz-adv-x="658" 
d="M168 0h-92v700h309q105 0 166 -58.5t61 -147.5q0 -86 -62 -146t-165 -60h-217v-288zM377 375q63 0 100.5 31.5t37.5 87.5t-37.5 87.5t-100.5 31.5h-209v-238h209z" />
    <glyph glyph-name="uni0421" unicode="&#x421;" horiz-adv-x="777" 
d="M141 350q0 -128 70.5 -202t183.5 -74q116 0 180 61t87 163l81 -33q-28 -124 -119 -199.5t-229 -75.5q-156 -1 -254 102t-96 258q-2 151 100.5 257t249.5 103q128 0 205 -66q78 -66 105 -167l-84 -38q-18 86 -77 136.5t-149 50.5q-109 0 -181.5 -76t-72.5 -200z" />
    <glyph glyph-name="uni0422" unicode="&#x422;" horiz-adv-x="672" 
d="M641 613h-259v-613h-92v613h-259v87h610v-87z" />
    <glyph glyph-name="uni0423" unicode="&#x423;" horiz-adv-x="690" 
d="M292 265l-276 435h110l219 -351l220 351h109l-444 -700h-111z" />
    <glyph glyph-name="uni0424" unicode="&#x424;" horiz-adv-x="819" 
d="M364 0v80h-54q-114 -2 -190.5 77.5t-74.5 192.5q0 112 76 191t189 79h54v80h92v-80h53q113 0 189 -79t76 -191q2 -113 -74.5 -192.5t-190.5 -77.5h-53v-80h-92zM364 167v366h-43q-84 0 -134 -50.5t-50 -132.5t50 -132.5t134 -50.5h43zM456 533v-366h42q84 0 134 50.5
t50 132.5t-50 132.5t-134 50.5h-42z" />
    <glyph glyph-name="uni0425" unicode="&#x425;" horiz-adv-x="674" 
d="M283 380l-225 320h112l167 -252l171 252h108l-225 -320l265 -380h-109l-210 308l-210 -308h-109z" />
    <glyph glyph-name="uni0426" unicode="&#x426;" horiz-adv-x="692" 
d="M577 0h-501v700h92v-616h323v616h92v-616h81v-194h-87v110z" />
    <glyph glyph-name="uni0427" unicode="&#x427;" horiz-adv-x="680" 
d="M513 241q-73 -83 -205 -83q-110 0 -174.5 69t-64.5 181v292h92v-278q0 -86 44 -131.5t124 -45.5q101 0 184 101v354h92v-700h-92v241z" />
    <glyph glyph-name="uni0428" unicode="&#x428;" horiz-adv-x="922" 
d="M847 700v-700h-771v700h92v-616h247v616h92v-616h248v616h92z" />
    <glyph glyph-name="uni0429" unicode="&#x429;" horiz-adv-x="956" 
d="M841 0h-765v700h92v-616h247v616h92v-616h248v616h92v-616h80v-194h-86v110z" />
    <glyph glyph-name="uni042A" unicode="&#x42a;" horiz-adv-x="787" 
d="M740 202q0 -91 -63.5 -146.5t-162.5 -55.5h-339v613h-144v87h236v-297h247q99 0 162.5 -55t63.5 -146zM643 202q0 52 -36.5 83t-96.5 31h-243v-229h243q59 0 96 31.5t37 83.5z" />
    <glyph glyph-name="uni042B" unicode="&#x42b;" horiz-adv-x="931" 
d="M76 700h92v-297h246q99 0 162.5 -54.5t63.5 -146.5t-63.5 -147t-162.5 -55h-338v700zM764 700h92v-700h-92v700zM411 87q59 0 96 31.5t37 83.5t-36.5 83t-96.5 31h-243v-229h243z" />
    <glyph glyph-name="uni042C" unicode="&#x42c;" horiz-adv-x="688" 
d="M76 700h92v-297h246q99 0 162.5 -54.5t63.5 -146.5t-63.5 -147t-162.5 -55h-338v700zM411 87q59 0 96 31.5t37 83.5t-36.5 83t-96.5 31h-243v-229h243z" />
    <glyph glyph-name="uni042D" unicode="&#x42d;" horiz-adv-x="777" 
d="M34 265l81 33q23 -105 89.5 -164.5t178.5 -59.5q103 0 174 62q70 61 81 173h-316v87h316q-13 105 -84.5 167.5t-170.5 62.5q-90 0 -149.5 -50.5t-77.5 -136.5l-84 38q29 102 106 167q80 66 208 66q150 2 249.5 -102t97.5 -258q0 -159 -95 -259.5t-256 -100.5
q-141 0 -230 76q-90 76 -118 199z" />
    <glyph glyph-name="uni042E" unicode="&#x42e;" horiz-adv-x="1092" 
d="M1048 350q2 -149 -104.5 -256t-257.5 -104q-139 -2 -241 89t-117 224h-160v-303h-92v700h92v-313h159q10 135 114 230t245 93q151 3 257.5 -104.5t104.5 -255.5zM951 350q0 121 -75 197t-190 76t-190 -76t-75 -198q0 -121 75.5 -196.5t189.5 -75.5q113 0 189 76t76 197z
" />
    <glyph glyph-name="uni042F" unicode="&#x42f;" horiz-adv-x="672" 
d="M47 14l237 282h-5q-103 0 -164.5 58t-61.5 150q0 84 61 140t162 56h320v-700h-92v296h-98l-248 -296h-111v14zM504 383v230h-220q-63 0 -98.5 -30t-35.5 -85q0 -54 35.5 -84.5t98.5 -30.5h220z" />
    <glyph glyph-name="uni0430" unicode="&#x430;" horiz-adv-x="515" 
d="M45 135q0 71 48 109t128 38q53 0 101 -15l43 -12v49q0 51 -32.5 79t-86.5 28q-51 0 -84 -26t-42 -72l-78 22q14 69 68 109t136 40q96 0 149 -49.5t53 -137.5v-297h-83v75q-18 -39 -62 -62t-101 -23q-66 0 -112 39q-45 41 -45 106zM365 187l-44 13q-49 15 -88 15
q-46 0 -72.5 -19.5t-26.5 -55.5q0 -34 25.5 -54t71.5 -20q60 0 97 30t37 81v10z" />
    <glyph glyph-name="uni0431" unicode="&#x431;" horiz-adv-x="559" 
d="M38 290q0 142 69 224q71 84 185 116q89 26 115.5 44.5t24.5 60.5h79l1 -16q0 -61 -44.5 -97.5t-134.5 -58.5q-93 -24 -142 -69.5t-64 -119.5q24 52 70.5 81t107.5 29q101 0 159 -71.5t58 -177.5q0 -104 -67 -174.5t-170 -70.5q-127 0 -187 85t-60 215zM433 235
q0 77 -43 123q-43 48 -109 48q-67 0 -110 -48t-43 -123q0 -74 43.5 -120.5t109.5 -46.5q67 0 109.5 46t42.5 121z" />
    <glyph glyph-name="uni0432" unicode="&#x432;" horiz-adv-x="528" 
d="M67 474h244q71 0 113 -34t42 -92q0 -36 -21.5 -65.5t-56.5 -40.5q43 -9 68 -37t25 -73q0 -57 -44 -95q-43 -37 -111 -37h-259v474zM310 278q33 0 51 15.5t18 43.5t-18 43.5t-51 15.5h-157v-118h157zM320 78q34 0 54 17t20 46t-19.5 45.5t-54.5 16.5h-167v-125h167z" />
    <glyph glyph-name="uni0433" unicode="&#x433;" horiz-adv-x="405" 
d="M67 474h318v-81h-232v-393h-86v474z" />
    <glyph glyph-name="uni0434" unicode="&#x434;" horiz-adv-x="566" 
d="M33 78h45q33 65 44 121q11 60 11 143v132h344v-396h56v-188h-81v110h-338v-110h-81v188zM393 78v318h-176v-54q0 -84 -12 -144q-11 -58 -36 -120h224z" />
    <glyph glyph-name="uni0435" unicode="&#x435;" horiz-adv-x="522" 
d="M489 143q-51 -153 -212 -153q-106 0 -172.5 68.5t-66.5 181.5q0 104 63 174t163 70q95 0 153 -55q58 -54 58 -147q0 -31 -6 -58h-343q1 -75 43.5 -116.5t107.5 -41.5q107 0 137 106zM389 286l1 14q0 50 -36 79t-91 29t-92.5 -33t-44.5 -89h263z" />
    <glyph glyph-name="uni0436" unicode="&#x436;" horiz-adv-x="711" 
d="M242 250l-210 224h109l171 -191v191h87v-191l171 191h108l-209 -224l218 -250h-107l-181 212v-212h-87v212l-181 -212h-108z" />
    <glyph glyph-name="uni0437" unicode="&#x437;" horiz-adv-x="452" 
d="M33 142l75 34q9 -51 39.5 -79.5t82.5 -28.5q45 0 71.5 19t26.5 54q0 29 -20.5 45t-56.5 16h-43v76h33q33 0 54.5 18t21.5 49t-22.5 47.5t-60.5 16.5q-78 0 -102 -86l-74 37q46 124 176 124q74 0 120.5 -36.5t46.5 -97.5q0 -41 -22.5 -70t-59.5 -39q93 -21 93 -108
q0 -63 -55 -103t-134 -40q-75 0 -126.5 42.5t-63.5 109.5z" />
    <glyph glyph-name="uni0438" unicode="&#x438;" horiz-adv-x="576" 
d="M67 474h86v-390l224 390h133v-474h-87v390l-224 -390h-132v474z" />
    <glyph glyph-name="uni0439" unicode="&#x439;" horiz-adv-x="576" 
d="M410 663q0 -52 -34 -80.5t-88 -28.5t-88 28.5t-34 80.5q0 11 1 14h68l-1 -11q0 -22 15 -36t39 -14t39 14t15 36l-1 11h68q1 -3 1 -14zM67 474h86v-390l224 390h133v-474h-87v390l-224 -390h-132v474z" />
    <glyph glyph-name="uni043A" unicode="&#x43a;" horiz-adv-x="467" 
d="M67 474h86v-191l171 191h111l-210 -224l219 -250h-110l-181 212v-212h-86v474z" />
    <glyph glyph-name="uni043B" unicode="&#x43b;" horiz-adv-x="522" 
d="M26 14q30 56 45 126q16 68 16 190v144h368v-474h-87v396h-194v-50q0 -137 -18 -215q-16 -77 -44 -131h-86v14z" />
    <glyph glyph-name="uni043C" unicode="&#x43c;" horiz-adv-x="702" 
d="M635 0h-87v398l-137 -398h-121l-137 398v-398h-86v474h146l138 -401l138 401h146v-474z" />
    <glyph glyph-name="uni043D" unicode="&#x43d;" horiz-adv-x="546" 
d="M153 282h240v192h87v-474h-87v204h-240v-204h-86v474h86v-192z" />
    <glyph glyph-name="uni043E" unicode="&#x43e;" horiz-adv-x="556" 
d="M38 237q0 106 67 176.5t173 70.5q107 0 174 -70.5t67 -176.5t-67.5 -176.5t-173.5 -70.5t-173 70.5t-67 176.5zM430 237q0 75 -43 121q-42 48 -109 48q-66 0 -109 -47.5t-43 -121.5t43 -121.5t109 -47.5q67 0 109.5 47t42.5 122z" />
    <glyph glyph-name="uni043F" unicode="&#x43f;" horiz-adv-x="541" 
d="M67 474h407v-474h-86v396h-235v-396h-86v474z" />
    <glyph glyph-name="uni0440" unicode="&#x440;" horiz-adv-x="573" 
d="M149 474v-89q24 43 70.5 71t99.5 28q96 0 156 -68.5t60 -178.5t-62.5 -178.5t-159.5 -68.5q-51 0 -93.5 22t-66.5 62v-272h-86v672h82zM299 67q62 0 106 45t44 124q0 78 -44 124t-106 46q-59 0 -104.5 -47.5t-45.5 -122.5t45.5 -122t104.5 -47z" />
    <glyph glyph-name="uni0441" unicode="&#x441;" horiz-adv-x="550" 
d="M285 66q127 0 157 142l77 -29q-20 -90 -81.5 -139.5t-150.5 -49.5q-112 0 -180.5 69t-68.5 181q0 105 70 174.5t168 69.5q86 0 144.5 -45t75.5 -126l-79 -24q-11 57 -48 88t-94 31q-60 0 -106.5 -45.5t-46.5 -122.5t48.5 -125.5t114.5 -48.5z" />
    <glyph glyph-name="uni0442" unicode="&#x442;" horiz-adv-x="415" 
d="M164 396h-149v78h385v-78h-149v-396h-87v396z" />
    <glyph glyph-name="uni0443" unicode="&#x443;" horiz-adv-x="481" 
d="M468 474l-304 -672h-92l117 259l-181 413h94l133 -312l141 312h92z" />
    <glyph glyph-name="uni0444" unicode="&#x444;" horiz-adv-x="893" 
d="M403 67q-55 -77 -152 -77q-92 0 -152.5 69.5t-60.5 176.5q0 111 59.5 179.5t151.5 68.5q107 0 154 -85v301h87v-301q21 40 61.5 62.5t92.5 22.5q92 0 151.5 -68.5t59.5 -179.5q0 -107 -61 -176.5t-153 -69.5q-96 0 -151 77v-265h-87v265zM408 236q0 76 -41.5 122.5
t-100.5 46.5q-64 0 -103 -46t-39 -123q0 -78 39 -123.5t103 -45.5q59 0 100.5 46t41.5 123zM768 236q0 77 -39 123t-103 46q-59 0 -100 -46t-41 -123t41 -123t100 -46q64 0 103 45.5t39 123.5z" />
    <glyph glyph-name="uni0445" unicode="&#x445;" horiz-adv-x="468" 
d="M282 251l173 -251h-99l-122 183l-122 -183h-99l174 250l-154 224h101l100 -154l99 154h101z" />
    <glyph glyph-name="uni0446" unicode="&#x446;" horiz-adv-x="570" 
d="M456 0h-389v474h86v-396h231v396h87v-396h66v-188h-81v110z" />
    <glyph glyph-name="uni0447" unicode="&#x447;" horiz-adv-x="547" 
d="M394 474h86v-474h-86v187q-54 -76 -164 -76q-77 0 -120 46t-43 124v193h86v-177q0 -54 27 -83t78 -29q78 0 136 73v216z" />
    <glyph glyph-name="uni0448" unicode="&#x448;" horiz-adv-x="780" 
d="M67 474h86v-396h194v396h86v-396h194v396h86v-474h-646v474z" />
    <glyph glyph-name="uni0449" unicode="&#x449;" horiz-adv-x="812" 
d="M698 0h-631v474h86v-396h194v396h86v-396h194v396h86v-396h66v-188h-81v110z" />
    <glyph glyph-name="uni044A" unicode="&#x44a;" horiz-adv-x="576" 
d="M144 396h-125v78h212v-171h140q72 0 115 -42t43 -107t-43.5 -109.5t-114.5 -44.5h-227v396zM368 78q34 0 55.5 20.5t21.5 52.5q0 33 -21 53t-56 20h-137v-146h137z" />
    <glyph glyph-name="uni044B" unicode="&#x44b;" horiz-adv-x="719" 
d="M67 474h86v-171h141q72 0 115 -42t43 -107t-44 -109.5t-114 -44.5h-227v474zM652 474v-474h-86v474h86zM290 78q35 0 56.5 20.5t21.5 52.5q0 33 -21.5 53t-56.5 20h-137v-146h137z" />
    <glyph glyph-name="uni044C" unicode="&#x44c;" horiz-adv-x="499" 
d="M67 474h86v-171h141q72 0 115 -42t43 -107t-44 -109.5t-114 -44.5h-227v474zM290 78q35 0 56.5 20.5t21.5 52.5q0 33 -21.5 53t-56.5 20h-137v-146h137z" />
    <glyph glyph-name="uni044D" unicode="&#x44d;" horiz-adv-x="550" 
d="M513 240q0 -112 -68.5 -181t-181.5 -69q-90 0 -151 49.5t-80 139.5l77 29q27 -142 157 -142q60 0 104 36.5t56 99.5h-174v76h174q-10 63 -55 97q-43 33 -96 33q-57 0 -93.5 -31t-48.5 -88l-78 24q19 82 77 126.5t146 44.5q100 0 167.5 -68.5t67.5 -175.5z" />
    <glyph glyph-name="uni044E" unicode="&#x44e;" horiz-adv-x="753" 
d="M715 236q0 -107 -67 -176.5t-173 -69.5q-98 0 -164 60t-75 154h-83v-204h-86v474h86v-192h85q14 90 78 145q64 57 159 57q106 0 173 -70.5t67 -177.5zM627 236q0 74 -43 122t-109 48q-67 0 -110 -48t-43 -122q0 -75 43 -121.5t110 -46.5q66 0 109 46.5t43 121.5z" />
    <glyph glyph-name="uni044F" unicode="&#x44f;" horiz-adv-x="496" 
d="M180 190q-62 0 -102 40q-41 41 -41 102q0 63 41.5 102.5t113.5 39.5h237v-474h-86v190h-60l-157 -190h-93v10zM343 396h-145q-36 0 -55.5 -18t-19.5 -49q0 -30 19.5 -47t55.5 -17h145v131z" />
    <glyph glyph-name="uni0450" unicode="&#x450;" horiz-adv-x="522" 
d="M101 674v14h117l87 -133h-83zM489 143q-51 -153 -212 -153q-106 0 -172.5 68.5t-66.5 181.5q0 104 63 174t163 70q95 0 153 -55q58 -54 58 -147q0 -31 -6 -58h-343q1 -75 43.5 -116.5t107.5 -41.5q107 0 137 106zM389 286l1 14q0 50 -36 79t-91 29t-92.5 -33t-44.5 -89
h263z" />
    <glyph glyph-name="uni0451" unicode="&#x451;" horiz-adv-x="522" 
d="M131 666h97v-99h-97v99zM298 666h97v-99h-97v99zM489 143q-51 -153 -212 -153q-106 0 -172.5 68.5t-66.5 181.5q0 104 63 174t163 70q95 0 153 -55q58 -54 58 -147q0 -31 -6 -58h-343q1 -75 43.5 -116.5t107.5 -41.5q107 0 137 106zM389 286l1 14q0 50 -36 79t-91 29
t-92.5 -33t-44.5 -89h263z" />
    <glyph glyph-name="uni0452" unicode="&#x452;" horiz-adv-x="555" 
d="M489 307v-383q0 -63 -34 -97.5t-93 -34.5q-51 0 -87 26.5t-43 71.5l81 25q7 -44 49 -44q40 0 40 48v368q0 60 -29.5 91.5t-83.5 31.5q-58 0 -97 -46.5t-39 -118.5v-245h-86v561h-67v70h67v69h86v-69h152v-70h-152v-187q20 51 64.5 80.5t102.5 29.5q78 0 123.5 -48
t45.5 -129z" />
    <glyph glyph-name="uni0453" unicode="&#x453;" horiz-adv-x="405" 
d="M272 688h117v-14l-121 -119h-83zM67 474h318v-81h-232v-393h-86v474z" />
    <glyph glyph-name="uni0454" unicode="&#x454;" horiz-adv-x="551" 
d="M37 240q0 107 67.5 175.5t167.5 68.5q88 0 146 -44.5t77 -126.5l-78 -24q-12 57 -48.5 88t-93.5 31q-53 0 -96 -33q-45 -34 -55 -97h174v-76h-174q12 -63 56 -99.5t104 -36.5q130 0 157 142l77 -29q-19 -90 -80 -139.5t-151 -49.5q-113 0 -181.5 69t-68.5 181z" />
    <glyph glyph-name="uni0455" unicode="&#x455;" horiz-adv-x="472" 
d="M33 124l71 37q20 -50 53.5 -72.5t87.5 -22.5q47 0 74.5 19t27.5 50q0 35 -27.5 54.5t-97.5 28.5q-163 24 -163 136q0 57 48 93q49 37 123 37q126 0 171 -105l-67 -37q-24 72 -104 72q-40 0 -66 -17t-26 -44q0 -30 28.5 -46t98.5 -26q166 -22 166 -141q0 -65 -54.5 -107.5
t-135.5 -42.5q-79 0 -133 36t-75 98z" />
    <glyph glyph-name="uni0456" unicode="&#x456;" horiz-adv-x="220" 
d="M62 663h96v-101h-96v101zM153 474v-474h-86v474h86z" />
    <glyph glyph-name="uni0457" unicode="&#x457;" horiz-adv-x="220" 
d="M-23 666h97v-99h-97v99zM144 666h97v-99h-97v99zM153 474v-474h-86v474h86z" />
    <glyph glyph-name="uni0458" unicode="&#x458;" horiz-adv-x="220" 
d="M62 663h96v-101h-96v101zM67 474h86v-672h-86v672z" />
    <glyph glyph-name="uni0459" unicode="&#x459;" horiz-adv-x="779" 
d="M26 14q30 56 45 126q16 68 16 190v144h347v-171h141q71 0 114 -42t43 -107t-43 -109.5t-114 -44.5h-228v396h-173v-50q0 -137 -18 -215q-16 -77 -44 -131h-86v14zM571 78q34 0 56 20.5t22 52.5q0 33 -21.5 53t-56.5 20h-137v-146h137z" />
    <glyph glyph-name="uni045A" unicode="&#x45a;" horiz-adv-x="806" 
d="M67 474h86v-192h225v192h86v-192h140q72 0 114 -38.5t42 -102.5q0 -65 -41.5 -103t-114.5 -38h-226v204h-225v-204h-86v474zM601 78q36 0 55.5 16.5t19.5 46.5t-19.5 46.5t-55.5 16.5h-137v-126h137z" />
    <glyph glyph-name="uni045B" unicode="&#x45b;" horiz-adv-x="555" 
d="M320 484q78 0 123.5 -48t45.5 -129v-307h-87v287q0 60 -29.5 91.5t-83.5 31.5q-58 0 -97 -46.5t-39 -118.5v-245h-86v561h-67v70h67v69h86v-69h152v-70h-152v-187q20 51 64.5 80.5t102.5 29.5z" />
    <glyph glyph-name="uni045C" unicode="&#x45c;" horiz-adv-x="467" 
d="M279 688h117v-14l-121 -119h-83zM67 474h86v-191l171 191h111l-210 -224l219 -250h-110l-181 212v-212h-86v474z" />
    <glyph glyph-name="uni045D" unicode="&#x45d;" horiz-adv-x="576" 
d="M125 674v14h117l87 -133h-83zM67 474h86v-390l224 390h133v-474h-87v390l-224 -390h-132v474z" />
    <glyph glyph-name="uni045E" unicode="&#x45e;" horiz-adv-x="481" 
d="M357 663q0 -52 -34 -80.5t-88 -28.5t-88 28.5t-34 80.5q0 11 1 14h68l-1 -11q0 -22 15 -36t39 -14t39 14t15 36l-1 11h68q1 -3 1 -14zM468 474l-304 -672h-92l117 259l-181 413h94l133 -312l141 312h92z" />
    <glyph glyph-name="uni045F" unicode="&#x45f;" horiz-adv-x="540" 
d="M230 0h-163v474h86v-396h234v396h87v-474h-163v-110h-81v110z" />
    <glyph glyph-name="uni0462" unicode="&#x462;" horiz-adv-x="757" 
d="M709 202q0 -92 -63.5 -147t-162.5 -55h-338v528h-142v75h142v97h92v-97h142v-75h-142v-125h246q99 0 162.5 -54.5t63.5 -146.5zM613 202q0 52 -36.5 83t-96.5 31h-243v-229h243q59 0 96 31.5t37 83.5z" />
    <glyph glyph-name="uni0463" unicode="&#x463;" horiz-adv-x="479" 
d="M432 189q0 -89 -57.5 -139t-152.5 -50h-155v526h-123v78h123v96h86v-96h160v-78h-160v-147h69q95 0 152.5 -50.5t57.5 -139.5zM340 189q0 53 -31.5 82t-90.5 29h-65v-222h65q59 0 90.5 29.5t31.5 81.5z" />
    <glyph glyph-name="uni0472" unicode="&#x472;" horiz-adv-x="812" 
d="M768 350q2 -149 -104.5 -256t-257.5 -104q-151 -3 -257 104t-104 256q-2 148 104 255.5t257 104.5q151 3 257.5 -104.5t104.5 -255.5zM143 390q55 45 132 45q42 0 73.5 -11.5t74.5 -37.5q65 -40 111 -40q83 0 132 60q-17 99 -89 158q-71 59 -171 59q-105 0 -177.5 -64
t-85.5 -169zM669 309q-56 -44 -131 -44q-43 0 -74 11t-75 38q-65 40 -110 40q-83 0 -133 -62q16 -98 88.5 -156.5t171.5 -58.5q103 0 176.5 63.5t86.5 168.5z" />
    <glyph glyph-name="uni0473" unicode="&#x473;" horiz-adv-x="556" 
d="M519 235q0 -106 -67.5 -175.5t-173.5 -69.5t-173 69.5t-67 175.5t67.5 177.5t172.5 71.5q107 0 174 -71t67 -178zM130 275q30 18 72 18q36 0 87 -24q48 -20 70 -20q41 0 67 26q-11 60 -51 95.5t-97 35.5t-97 -35.5t-51 -95.5zM427 200q-30 -18 -72 -18q-37 0 -87 24
q-43 21 -71 21q-43 0 -68 -28q11 -60 51 -95.5t98 -35.5t98.5 36t50.5 96z" />
    <glyph glyph-name="uni0474" unicode="&#x474;" horiz-adv-x="808" 
d="M11 700h101l252 -629l223 555q38 94 123 94q80 0 106 -79l-74 -37q-7 28 -31 28t-38 -32l-245 -600h-128z" />
    <glyph glyph-name="uni0475" unicode="&#x475;" horiz-adv-x="556" 
d="M19 474h91l149 -390l123 326q33 85 108 85q58 0 87 -54l-59 -53q-7 19 -27 19q-21 0 -29 -24l-151 -383h-105z" />
    <glyph glyph-name="uni0490" unicode="&#x490;" horiz-adv-x="613" 
d="M583 870v-257h-415v-613h-92v700h420v170h87z" />
    <glyph glyph-name="uni0491" unicode="&#x491;" horiz-adv-x="405" 
d="M385 585v-192h-232v-393h-86v474h232v111h86z" />
    <glyph glyph-name="uni0492" unicode="&#x492;" horiz-adv-x="655" 
d="M189 613v-216h257v-78h-257v-319h-92v319h-79v78h79v303h507v-87h-415z" />
    <glyph glyph-name="uni0493" unicode="&#x493;" horiz-adv-x="418" 
d="M170 393v-123h119v-68h-119v-202h-87v202h-65v68h65v204h318v-81h-231z" />
    <glyph glyph-name="uni0496" unicode="&#x496;" horiz-adv-x="1003" 
d="M905 84h87v-194h-87v110h-44l-313 324v-324h-92v324l-314 -324h-125l353 365l-336 335h120l302 -304v304h92v-304l301 304h120l-336 -335z" />
    <glyph glyph-name="uni0497" unicode="&#x497;" horiz-adv-x="711" 
d="M624 73h77v-183h-77v110h-44l-181 212v-212h-87v212l-181 -212h-108l219 250l-210 224h109l171 -191v191h87v-191l171 191h108l-209 -224l155 -178v1z" />
    <glyph glyph-name="uni0498" unicode="&#x498;" horiz-adv-x="582" 
d="M411 355q54 -12 87.5 -54.5t33.5 -104.5q0 -98 -67 -152t-174 -54h-6q-9 -25 -19 -43q21 23 50 23q34 0 55.5 -21t21.5 -56q0 -38 -23.5 -59.5t-60.5 -21.5q-35 0 -59 17.5t-30 49.5l47 12q2 -15 13 -24.5t27 -9.5q18 0 29 10t11 26t-11 26.5t-29 10.5q-26 0 -38 -21
l-47 9q6 22 17 76q-81 14 -131.5 68t-64.5 135l85 35q10 -73 52 -114t114 -41q67 0 106.5 29.5t39.5 85.5t-35 87t-94 31h-36v86h33q58 0 90 28.5t32 82.5q0 56 -36 86t-102 30q-57 0 -95 -32.5t-51 -92.5l-83 37q16 75 79 125q62 50 153 50q105 0 166 -52.5t61 -145.5
q0 -59 -29.5 -99t-81.5 -58z" />
    <glyph glyph-name="uni0499" unicode="&#x499;" horiz-adv-x="452" 
d="M223 -10h-4q-8 -26 -19 -43q21 23 50 23q34 0 55.5 -21t21.5 -56q0 -38 -23.5 -59.5t-60.5 -21.5q-35 0 -59 17.5t-30 49.5l47 12q2 -15 13 -24.5t27 -9.5q18 0 29 10t11 26t-11 26.5t-29 10.5q-26 0 -38 -21l-47 9q10 33 17 78q-55 13 -92.5 52t-47.5 94l75 34
q9 -51 39.5 -79.5t82.5 -28.5q45 0 71.5 19t26.5 54q0 29 -20.5 45t-56.5 16h-43v76h33q33 0 54.5 18t21.5 49t-22.5 47.5t-60.5 16.5q-78 0 -102 -86l-74 37q46 124 176 124q74 0 120.5 -36.5t46.5 -97.5q0 -41 -22.5 -70t-59.5 -39q93 -21 93 -108q0 -63 -55 -103
t-134 -40z" />
    <glyph glyph-name="uni049A" unicode="&#x49a;" horiz-adv-x="623" 
d="M525 84h87v-194h-87v110h-44l-313 324v-324h-92v700h92v-304l301 304h120l-336 -335z" />
    <glyph glyph-name="uni049B" unicode="&#x49b;" horiz-adv-x="467" 
d="M380 73h77v-183h-77v110h-46l-181 212v-212h-86v474h86v-191l171 191h111l-210 -224z" />
    <glyph glyph-name="uni04A0" unicode="&#x4a0;" horiz-adv-x="783" 
d="M765 0h-125l-313 324v-324h-92v622h-204v78h296v-304l301 304h120l-336 -335z" />
    <glyph glyph-name="uni04A1" unicode="&#x4a1;" horiz-adv-x="534" 
d="M511 0h-110l-181 212v-212h-86v404h-119v70h205v-191l171 191h111l-210 -224z" />
    <glyph glyph-name="uni04A2" unicode="&#x4a2;" horiz-adv-x="737" 
d="M661 84h75v-194h-87v110h-80v303h-401v-303h-92v700h92v-313h401v313h92v-616z" />
    <glyph glyph-name="uni04A3" unicode="&#x4a3;" horiz-adv-x="546" 
d="M480 73h77v-183h-77v110h-87v204h-240v-204h-86v474h86v-192h240v192h87v-401z" />
    <glyph glyph-name="uni04AA" unicode="&#x4aa;" horiz-adv-x="777" 
d="M395 -10h-12q-8 -25 -19 -43q21 23 50 23q34 0 55.5 -21t21.5 -56q0 -38 -23.5 -59.5t-60.5 -21.5q-35 0 -59 17.5t-30 49.5l47 12q2 -15 13 -24.5t27 -9.5q18 0 29 10t11 26t-11 26.5t-29 10.5q-26 0 -38 -21l-47 9q6 19 17 76q-133 18 -213.5 117t-78.5 239
q-2 151 100.5 257t249.5 103q128 0 205 -66q78 -66 105 -167l-84 -38q-18 86 -77 136.5t-149 50.5q-109 0 -181.5 -76t-72.5 -200q0 -128 70.5 -202t183.5 -74q116 0 180 61t87 163l81 -33q-28 -124 -119 -199.5t-229 -75.5z" />
    <glyph glyph-name="uni04AB" unicode="&#x4ab;" horiz-adv-x="550" 
d="M287 -10h-12q-9 -25 -19 -43q21 23 50 23q34 0 55.5 -21t21.5 -56q0 -38 -23.5 -59.5t-60.5 -21.5q-35 0 -59 17.5t-30 49.5l47 12q2 -15 13 -24.5t27 -9.5q18 0 29 10t11 26t-11 26.5t-29 10.5q-26 0 -38 -21l-47 9q10 33 17 77q-88 17 -139.5 82.5t-51.5 162.5
q0 105 70 174.5t168 69.5q86 0 144.5 -45t75.5 -126l-79 -24q-11 57 -48 88t-94 31q-60 0 -106.5 -45.5t-46.5 -122.5t48.5 -125.5t114.5 -48.5q127 0 157 142l77 -29q-20 -90 -81.5 -139.5t-150.5 -49.5z" />
    <glyph glyph-name="uni04AE" unicode="&#x4ae;" horiz-adv-x="672" 
d="M336 369l218 331h105l-277 -412v-288h-92v288l-276 412h110z" />
    <glyph glyph-name="uni04AF" unicode="&#x4af;" horiz-adv-x="517" 
d="M216 0l-197 474h91l149 -377l148 377h91l-196 -474v-198h-86v198z" />
    <glyph glyph-name="uni04B0" unicode="&#x4b0;" horiz-adv-x="672" 
d="M429 358h122v-70h-169v-288h-92v288h-168v70h121l-229 342h110l212 -331l218 331h105z" />
    <glyph glyph-name="uni04B1" unicode="&#x4b1;" horiz-adv-x="517" 
d="M316 33h86v-66h-100v-165h-86v165h-100v66h86l-183 441h91l149 -377l148 377h91z" />
    <glyph glyph-name="uni04B2" unicode="&#x4b2;" horiz-adv-x="674" 
d="M597 84h80v-194h-87v110h-43l-210 308l-210 -308h-109l265 380l-225 320h112l167 -252l171 252h108l-225 -320z" />
    <glyph glyph-name="uni04B3" unicode="&#x4b3;" horiz-adv-x="468" 
d="M405 73h61v-183h-77v110h-33l-122 183l-122 -183h-99l174 250l-154 224h101l100 -154l99 154h101l-152 -223z" />
    <glyph glyph-name="uni04B6" unicode="&#x4b6;" horiz-adv-x="680" 
d="M605 84h87v-194h-87v110h-92v241q-73 -83 -205 -83q-110 0 -174.5 69t-64.5 181v292h92v-278q0 -86 44 -131.5t124 -45.5q101 0 184 101v354h92v-616z" />
    <glyph glyph-name="uni04B7" unicode="&#x4b7;" horiz-adv-x="569" 
d="M480 73h77v-183h-77v110h-86v187q-54 -76 -164 -76q-77 0 -120 46t-43 124v193h86v-177q0 -54 27 -83t78 -29q78 0 136 73v216h86v-401z" />
    <glyph glyph-name="uni04BA" unicode="&#x4ba;" horiz-adv-x="680" 
d="M76 700h92v-241q73 83 204 83q112 0 176 -68.5t64 -181.5v-292h-92v278q0 86 -44 131.5t-124 45.5q-103 0 -184 -101v-354h-92v700z" />
    <glyph glyph-name="uni04BB" unicode="&#x4bb;" horiz-adv-x="555" 
d="M67 0v700h86v-326q20 51 64.5 80.5t102.5 29.5q78 0 123.5 -48t45.5 -129v-307h-87v287q0 60 -29.5 91.5t-83.5 31.5q-58 0 -97 -46.5t-39 -118.5v-245h-86z" />
    <glyph glyph-name="uni04C0" unicode="&#x4c0;" horiz-adv-x="243" 
d="M76 700h92v-700h-92v700z" />
    <glyph glyph-name="uni04C1" unicode="&#x4c1;" horiz-adv-x="1003" 
d="M624 889q0 -52 -34 -80.5t-88 -28.5t-88 28.5t-34 80.5q0 11 1 14h68l-1 -11q0 -22 15 -36t39 -14t39 14t15 36l-1 11h68q1 -3 1 -14zM986 0h-125l-313 324v-324h-92v324l-314 -324h-125l353 365l-336 335h120l302 -304v304h92v-304l301 304h120l-336 -335z" />
    <glyph glyph-name="uni04C2" unicode="&#x4c2;" horiz-adv-x="711" 
d="M478 663q0 -52 -34 -80.5t-88 -28.5t-88 28.5t-34 80.5q0 11 1 14h68l-1 -11q0 -22 15 -36t39 -14t39 14t15 36l-1 11h68q1 -3 1 -14zM242 250l-210 224h109l171 -191v191h87v-191l171 191h108l-209 -224l218 -250h-107l-181 212v-212h-87v212l-181 -212h-108z" />
    <glyph glyph-name="uni04CF" unicode="&#x4cf;" horiz-adv-x="220" 
d="M67 700h86v-700h-86v700z" />
    <glyph glyph-name="uni04D0" unicode="&#x4d0;" horiz-adv-x="739" 
d="M492 889q0 -52 -34 -80.5t-88 -28.5t-88 28.5t-34 80.5q0 11 1 14h68l-1 -11q0 -22 15 -36t39 -14t39 14t15 36l-1 11h68q1 -3 1 -14zM306 700h128l293 -700h-102l-72 178h-366l-73 -178h-101zM519 262l-149 365l-150 -365h299z" />
    <glyph glyph-name="uni04D1" unicode="&#x4d1;" horiz-adv-x="515" 
d="M368 663q0 -52 -34 -80.5t-88 -28.5t-88 28.5t-34 80.5q0 11 1 14h68l-1 -11q0 -22 15 -36t39 -14t39 14t15 36l-1 11h68q1 -3 1 -14zM45 135q0 71 48 109t128 38q53 0 101 -15l43 -12v49q0 51 -32.5 79t-86.5 28q-51 0 -84 -26t-42 -72l-78 22q14 69 68 109t136 40
q96 0 149 -49.5t53 -137.5v-297h-83v75q-18 -39 -62 -62t-101 -23q-66 0 -112 39q-45 41 -45 106zM365 187l-44 13q-49 15 -88 15q-46 0 -72.5 -19.5t-26.5 -55.5q0 -34 25.5 -54t71.5 -20q60 0 97 30t37 81v10z" />
    <glyph glyph-name="uni04D2" unicode="&#x4d2;" horiz-adv-x="739" 
d="M238 892h97v-99h-97v99zM405 892h97v-99h-97v99zM306 700h128l293 -700h-102l-72 178h-366l-73 -178h-101zM519 262l-149 365l-150 -365h299z" />
    <glyph glyph-name="uni04D3" unicode="&#x4d3;" horiz-adv-x="515" 
d="M113 666h97v-99h-97v99zM280 666h97v-99h-97v99zM45 135q0 71 48 109t128 38q53 0 101 -15l43 -12v49q0 51 -32.5 79t-86.5 28q-51 0 -84 -26t-42 -72l-78 22q14 69 68 109t136 40q96 0 149 -49.5t53 -137.5v-297h-83v75q-18 -39 -62 -62t-101 -23q-66 0 -112 39
q-45 41 -45 106zM365 187l-44 13q-49 15 -88 15q-46 0 -72.5 -19.5t-26.5 -55.5q0 -34 25.5 -54t71.5 -20q60 0 97 30t37 81v10z" />
    <glyph glyph-name="uni04D4" unicode="&#x4d4;" horiz-adv-x="947" 
d="M893 87v-87h-461v178h-225l-92 -178h-102l363 700h507v-87h-359v-207h329v-87h-329v-232h369zM432 614l-182 -352h182v352z" />
    <glyph glyph-name="uni04D5" unicode="&#x4d5;" horiz-adv-x="844" 
d="M45 138q0 71 47 109.5t129 38.5h140v18q0 51 -32 79t-87 28q-50 0 -83 -24.5t-42 -68.5l-75 21q16 70 68 107.5t132 37.5q125 0 174 -84q28 39 73 61.5t98 22.5q94 0 152 -55q59 -54 59 -147q0 -22 -6 -58h-343q1 -75 43 -117t108 -42q107 0 137 107l74 -29
q-51 -153 -211 -153q-67 0 -118.5 30t-76.5 83q-60 -113 -198 -113q-72 0 -117 42t-45 106zM711 286q1 3 1 14q0 50 -36 79t-91 29t-92.5 -33t-44.5 -89h263zM361 220h-123q-49 0 -77.5 -21t-28.5 -59q0 -36 24.5 -55t69.5 -19q61 0 98 32.5t37 88.5v33z" />
    <glyph glyph-name="uni04D6" unicode="&#x4d6;" horiz-adv-x="633" 
d="M428 889q0 -52 -34 -80.5t-88 -28.5t-88 28.5t-34 80.5q0 11 1 14h68l-1 -11q0 -22 15 -36t39 -14t39 14t15 36l-1 11h68q1 -3 1 -14zM569 700v-87h-401v-207h371v-87h-371v-232h411v-87h-503v700h493z" />
    <glyph glyph-name="uni04D7" unicode="&#x4d7;" horiz-adv-x="522" 
d="M386 663q0 -52 -34 -80.5t-88 -28.5t-88 28.5t-34 80.5q0 11 1 14h68l-1 -11q0 -22 15 -36t39 -14t39 14t15 36l-1 11h68q1 -3 1 -14zM489 143q-51 -153 -212 -153q-106 0 -172.5 68.5t-66.5 181.5q0 104 63 174t163 70q95 0 153 -55q58 -54 58 -147q0 -31 -6 -58h-343
q1 -75 43.5 -116.5t107.5 -41.5q107 0 137 106zM389 286l1 14q0 50 -36 79t-91 29t-92.5 -33t-44.5 -89h263z" />
    <glyph glyph-name="uni04D8" unicode="&#x4d8;" horiz-adv-x="721" 
d="M676 350q2 -152 -92 -257.5t-238 -102.5q-136 0 -222 83t-86 216q0 41 9 81h535q-6 117 -75 185t-174 68q-76 0 -131.5 -44.5t-79.5 -116.5l-88 34q34 99 112 156.5t188 57.5q152 0 247 -98.5t95 -261.5zM141 287q-2 -22 -2 -25q0 -80 58.5 -132.5t150.5 -52.5t153 56.5
t76 153.5h-436z" />
    <glyph glyph-name="uni04D9" unicode="&#x4d9;" horiz-adv-x="522" 
d="M33 331q51 153 212 153q106 0 172.5 -68.5t66.5 -181.5q0 -104 -63 -174t-163 -70q-94 0 -153 54q-58 55 -58 148q0 31 6 58h343q-1 75 -43.5 116.5t-107.5 41.5q-107 0 -137 -106zM133 188l-1 -14q0 -50 36 -79t91 -29t92.5 33t44.5 89h-263z" />
    <glyph glyph-name="uni04DA" unicode="&#x4da;" horiz-adv-x="721" 
d="M201 892h97v-99h-97v99zM368 892h97v-99h-97v99zM676 350q2 -152 -92 -257.5t-238 -102.5q-136 0 -222 83t-86 216q0 41 9 81h535q-6 117 -75 185t-174 68q-76 0 -131.5 -44.5t-79.5 -116.5l-88 34q34 99 112 156.5t188 57.5q152 0 247 -98.5t95 -261.5zM141 287
q-2 -22 -2 -25q0 -80 58.5 -132.5t150.5 -52.5t153 56.5t76 153.5h-436z" />
    <glyph glyph-name="uni04DB" unicode="&#x4db;" horiz-adv-x="522" 
d="M125 666h97v-99h-97v99zM292 666h97v-99h-97v99zM33 331q51 153 212 153q106 0 172.5 -68.5t66.5 -181.5q0 -104 -63 -174t-163 -70q-94 0 -153 54q-58 55 -58 148q0 31 6 58h343q-1 75 -43.5 116.5t-107.5 41.5q-107 0 -137 -106zM133 188l-1 -14q0 -50 36 -79t91 -29
t92.5 33t44.5 89h-263z" />
    <glyph glyph-name="uni04DC" unicode="&#x4dc;" horiz-adv-x="1003" 
d="M370 892h97v-99h-97v99zM537 892h97v-99h-97v99zM986 0h-125l-313 324v-324h-92v324l-314 -324h-125l353 365l-336 335h120l302 -304v304h92v-304l301 304h120l-336 -335z" />
    <glyph glyph-name="uni04DD" unicode="&#x4dd;" horiz-adv-x="711" 
d="M223 666h97v-99h-97v99zM390 666h97v-99h-97v99zM242 250l-210 224h109l171 -191v191h87v-191l171 191h108l-209 -224l218 -250h-107l-181 212v-212h-87v212l-181 -212h-108z" />
    <glyph glyph-name="uni04DE" unicode="&#x4de;" horiz-adv-x="582" 
d="M164 892h97v-99h-97v99zM331 892h97v-99h-97v99zM128 232q10 -73 52 -114t114 -41q67 0 106.5 29.5t39.5 85.5t-35 87t-94 31h-36v86h33q58 0 90 28.5t32 82.5q0 56 -36 86t-102 30q-57 0 -95 -32.5t-51 -92.5l-83 37q16 75 79 125q62 50 153 50q105 0 166 -52.5
t61 -145.5q0 -59 -29.5 -99t-81.5 -58q54 -12 87.5 -54.5t33.5 -104.5q0 -98 -67 -152t-174 -54q-103 0 -167.5 56.5t-80.5 150.5z" />
    <glyph glyph-name="uni04DF" unicode="&#x4df;" horiz-adv-x="452" 
d="M102 666h97v-99h-97v99zM269 666h97v-99h-97v99zM108 176q9 -51 39.5 -79.5t82.5 -28.5q45 0 71.5 19t26.5 54q0 29 -20.5 45t-56.5 16h-43v76h33q33 0 54.5 18t21.5 49t-22.5 47.5t-60.5 16.5q-78 0 -102 -86l-74 37q46 124 176 124q74 0 120.5 -36.5t46.5 -97.5
q0 -41 -22.5 -70t-59.5 -39q93 -21 93 -108q0 -63 -55 -103t-134 -40q-75 0 -126.5 42.5t-63.5 109.5z" />
    <glyph glyph-name="uni04E2" unicode="&#x4e2;" horiz-adv-x="766" 
d="M498 876v-69h-254v69h254zM235 0h-159v700h92v-636l364 636h158v-700h-92v636z" />
    <glyph glyph-name="uni04E3" unicode="&#x4e3;" horiz-adv-x="576" 
d="M414 650v-69h-254v69h254zM67 474h86v-390l224 390h133v-474h-87v390l-224 -390h-132v474z" />
    <glyph glyph-name="uni04E4" unicode="&#x4e4;" horiz-adv-x="766" 
d="M239 892h97v-99h-97v99zM406 892h97v-99h-97v99zM235 0h-159v700h92v-636l364 636h158v-700h-92v636z" />
    <glyph glyph-name="uni04E5" unicode="&#x4e5;" horiz-adv-x="576" 
d="M155 666h97v-99h-97v99zM322 666h97v-99h-97v99zM67 474h86v-390l224 390h133v-474h-87v390l-224 -390h-132v474z" />
    <glyph glyph-name="uni04E6" unicode="&#x4e6;" horiz-adv-x="812" 
d="M269 892h97v-99h-97v99zM436 892h97v-99h-97v99zM406 710q151 3 257.5 -104.5t104.5 -255.5q2 -149 -104.5 -256t-257.5 -104q-151 -3 -257 104t-104 256q-2 148 104 255.5t257 104.5zM406 77q113 0 189 76t76 197t-75 197t-190 76t-190 -76t-75 -198q0 -121 75.5 -196.5
t189.5 -75.5z" />
    <glyph glyph-name="uni04E7" unicode="&#x4e7;" horiz-adv-x="556" 
d="M145 666h97v-99h-97v99zM312 666h97v-99h-97v99zM38 237q0 106 67 176.5t173 70.5q107 0 174 -70.5t67 -176.5t-67.5 -176.5t-173.5 -70.5t-173 70.5t-67 176.5zM430 237q0 75 -43 121q-42 48 -109 48q-66 0 -109 -47.5t-43 -121.5t43 -121.5t109 -47.5q67 0 109.5 47
t42.5 122z" />
    <glyph glyph-name="uni04E8" unicode="&#x4e8;" horiz-adv-x="812" 
d="M45 350q-2 148 104 255.5t257 104.5q151 3 257.5 -104.5t104.5 -255.5q2 -149 -104.5 -256t-257.5 -104q-151 -3 -257 104t-104 256zM668 389q-12 105 -84.5 169.5t-177.5 64.5t-177.5 -64t-84.5 -170h524zM144 311q12 -106 85 -170t177 -64q103 0 176.5 64t85.5 170
h-524z" />
    <glyph glyph-name="uni04E9" unicode="&#x4e9;" horiz-adv-x="556" 
d="M38 236q0 107 67 177.5t173 70.5q107 0 174 -70.5t67 -177.5q0 -106 -67.5 -176t-173.5 -70t-173 69.5t-67 176.5zM427 270q-9 62 -50 99t-99 37t-99 -37t-50 -99h298zM129 204q9 -62 49.5 -99t99.5 -37t100 37t50 99h-299z" />
    <glyph glyph-name="uni04EA" unicode="&#x4ea;" horiz-adv-x="812" 
d="M274 892h97v-99h-97v99zM441 892h97v-99h-97v99zM45 350q-2 148 104 255.5t257 104.5q151 3 257.5 -104.5t104.5 -255.5q2 -149 -104.5 -256t-257.5 -104q-151 -3 -257 104t-104 256zM668 389q-12 105 -84.5 169.5t-177.5 64.5t-177.5 -64t-84.5 -170h524zM144 311
q12 -106 85 -170t177 -64q103 0 176.5 64t85.5 170h-524z" />
    <glyph glyph-name="uni04EB" unicode="&#x4eb;" horiz-adv-x="556" 
d="M145 666h97v-99h-97v99zM312 666h97v-99h-97v99zM38 236q0 107 67 177.5t173 70.5q107 0 174 -70.5t67 -177.5q0 -106 -67.5 -176t-173.5 -70t-173 69.5t-67 176.5zM427 270q-9 62 -50 99t-99 37t-99 -37t-50 -99h298zM129 204q9 -62 49.5 -99t99.5 -37t100 37t50 99
h-299z" />
    <glyph glyph-name="uni04EC" unicode="&#x4ec;" horiz-adv-x="777" 
d="M254 892h97v-99h-97v99zM421 892h97v-99h-97v99zM115 298q23 -105 89.5 -164.5t178.5 -59.5q103 0 174 62q70 61 81 173h-316v87h316q-13 105 -84.5 167.5t-170.5 62.5q-90 0 -149.5 -50.5t-77.5 -136.5l-84 38q29 102 106 167q80 66 208 66q150 2 249.5 -102t97.5 -258
q0 -159 -95 -259.5t-256 -100.5q-141 0 -230 76q-90 76 -118 199z" />
    <glyph glyph-name="uni04ED" unicode="&#x4ed;" horiz-adv-x="550" 
d="M140 666h97v-99h-97v99zM307 666h97v-99h-97v99zM513 240q0 -112 -68.5 -181t-181.5 -69q-90 0 -151 49.5t-80 139.5l77 29q27 -142 157 -142q60 0 104 36.5t56 99.5h-174v76h174q-10 63 -55 97q-43 33 -96 33q-57 0 -93.5 -31t-48.5 -88l-78 24q19 82 77 126.5t146 44.5
q100 0 167.5 -68.5t67.5 -175.5z" />
    <glyph glyph-name="uni04EE" unicode="&#x4ee;" horiz-adv-x="690" 
d="M473 876v-69h-254v69h254zM292 265l-276 435h110l219 -351l220 351h109l-444 -700h-111z" />
    <glyph glyph-name="uni04EF" unicode="&#x4ef;" horiz-adv-x="481" 
d="M361 650v-69h-254v69h254zM468 474l-304 -672h-92l117 259l-181 413h94l133 -312l141 312h92z" />
    <glyph glyph-name="uni04F0" unicode="&#x4f0;" horiz-adv-x="690" 
d="M214 892h97v-99h-97v99zM381 892h97v-99h-97v99zM292 265l-276 435h110l219 -351l220 351h109l-444 -700h-111z" />
    <glyph glyph-name="uni04F1" unicode="&#x4f1;" horiz-adv-x="481" 
d="M102 666h97v-99h-97v99zM269 666h97v-99h-97v99zM468 474l-304 -672h-92l117 259l-181 413h94l133 -312l141 312h92z" />
    <glyph glyph-name="uni04F2" unicode="&#x4f2;" horiz-adv-x="690" 
d="M302 914h117v-14l-121 -119h-83zM481 914h117v-14l-121 -119h-83zM292 265l-276 435h110l219 -351l220 351h109l-444 -700h-111z" />
    <glyph glyph-name="uni04F3" unicode="&#x4f3;" horiz-adv-x="481" 
d="M191 688h117v-14l-121 -119h-83zM370 688h117v-14l-121 -119h-83zM468 474l-304 -672h-92l117 259l-181 413h94l133 -312l141 312h92z" />
    <glyph glyph-name="uni04F4" unicode="&#x4f4;" horiz-adv-x="680" 
d="M205 892h97v-99h-97v99zM372 892h97v-99h-97v99zM513 241q-73 -83 -205 -83q-110 0 -174.5 69t-64.5 181v292h92v-278q0 -86 44 -131.5t124 -45.5q101 0 184 101v354h92v-700h-92v241z" />
    <glyph glyph-name="uni04F5" unicode="&#x4f5;" horiz-adv-x="547" 
d="M140 666h97v-99h-97v99zM307 666h97v-99h-97v99zM394 474h86v-474h-86v187q-54 -76 -164 -76q-77 0 -120 46t-43 124v193h86v-177q0 -54 27 -83t78 -29q78 0 136 73v216z" />
    <glyph glyph-name="uni04F8" unicode="&#x4f8;" horiz-adv-x="931" 
d="M313 892h97v-99h-97v99zM480 892h97v-99h-97v99zM76 700h92v-297h246q99 0 162.5 -54.5t63.5 -146.5t-63.5 -147t-162.5 -55h-338v700zM764 700h92v-700h-92v700zM411 87q59 0 96 31.5t37 83.5t-36.5 83t-96.5 31h-243v-229h243z" />
    <glyph glyph-name="uni04F9" unicode="&#x4f9;" horiz-adv-x="719" 
d="M227 666h97v-99h-97v99zM394 666h97v-99h-97v99zM67 474h86v-171h141q72 0 115 -42t43 -107t-44 -109.5t-114 -44.5h-227v474zM652 474v-474h-86v474h86zM290 78q35 0 56.5 20.5t21.5 52.5q0 33 -21.5 53t-56.5 20h-137v-146h137z" />
    <glyph glyph-name="uni0527" unicode="&#x527;" horiz-adv-x="577" 
d="M489 73h77v-183h-77v110h-87v287q0 60 -29.5 91.5t-83.5 31.5q-58 0 -97 -46.5t-39 -118.5v-245h-86v700h86v-326q20 51 64.5 80.5t102.5 29.5q78 0 123.5 -48t45.5 -129v-234z" />
    <glyph glyph-name="uni0E3F" unicode="&#xe3f;" horiz-adv-x="685" 
d="M637 189q0 -83 -64.5 -136t-161.5 -53h-30v-98h-83v98h-222v700h222v98h83v-98h10q100 0 160.5 -50.5t60.5 -131.5q0 -51 -28.5 -93t-76.5 -64q130 -42 130 -172zM165 401h133v215h-133v-215zM381 616v-215h16q59 0 93 28.5t34 79.5q0 50 -35.5 78.5t-91.5 28.5h-16z
M298 84v235h-133v-235h133zM544 204q0 52 -36 83.5t-97 31.5h-30v-235h30q60 0 96.5 32.5t36.5 87.5z" />
    <glyph glyph-name="Wgrave" unicode="&#x1e80;" horiz-adv-x="988" 
d="M332 900v14h117l87 -133h-83zM13 700h97l149 -639l155 639h160l155 -639l149 639h97l-169 -700h-154l-158 641l-159 -641h-153z" />
    <glyph glyph-name="wgrave" unicode="&#x1e81;" horiz-adv-x="741" 
d="M208 674v14h117l87 -133h-83zM213 84l107 390h101l107 -390l111 390h85l-141 -474h-107l-105 364l-105 -364h-108l-141 474h85z" />
    <glyph glyph-name="Wacute" unicode="&#x1e82;" horiz-adv-x="988" 
d="M540 914h117v-14l-121 -119h-83zM13 700h97l149 -639l155 639h160l155 -639l149 639h97l-169 -700h-154l-158 641l-159 -641h-153z" />
    <glyph glyph-name="wacute" unicode="&#x1e83;" horiz-adv-x="741" 
d="M417 688h117v-14l-121 -119h-83zM213 84l107 390h101l107 -390l111 390h85l-141 -474h-107l-105 364l-105 -364h-108l-141 474h85z" />
    <glyph glyph-name="Wdieresis" unicode="&#x1e84;" horiz-adv-x="988" 
d="M361 892h97v-99h-97v99zM528 892h97v-99h-97v99zM13 700h97l149 -639l155 639h160l155 -639l149 639h97l-169 -700h-154l-158 641l-159 -641h-153z" />
    <glyph glyph-name="wdieresis" unicode="&#x1e85;" horiz-adv-x="741" 
d="M238 666h97v-99h-97v99zM405 666h97v-99h-97v99zM213 84l107 390h101l107 -390l111 390h85l-141 -474h-107l-105 364l-105 -364h-108l-141 474h85z" />
    <glyph glyph-name="uni1E9E" unicode="&#x1e9e;" horiz-adv-x="688" 
d="M195 116l80 46q37 -85 131 -85q61 0 101.5 38t40.5 101t-42 99q-40 36 -100 36q-62 0 -99 -37l-60 54l236 245h-162q-85 0 -122.5 -38t-37.5 -122v-453h-92v453q0 126 60.5 186.5t188.5 60.5h280v-87l-190 -194q8 4 31 4q85 0 143 -57.5t58 -149.5q0 -100 -66.5 -162.5
t-167.5 -62.5q-78 0 -131.5 33t-79.5 92z" />
    <glyph glyph-name="uni1EA0" unicode="&#x1ea0;" horiz-adv-x="739" 
d="M306 700h128l293 -700h-102l-72 178h-366l-73 -178h-101zM519 262l-149 365l-150 -365h299zM322 -65h96v-101h-96v101z" />
    <glyph glyph-name="uni1EA1" unicode="&#x1ea1;" horiz-adv-x="515" 
d="M45 135q0 71 48 109t128 38q53 0 101 -15l43 -12v49q0 51 -32.5 79t-86.5 28q-51 0 -84 -26t-42 -72l-78 22q14 69 68 109t136 40q96 0 149 -49.5t53 -137.5v-297h-83v75q-18 -39 -62 -62t-101 -23q-66 0 -112 39q-45 41 -45 106zM365 187l-44 13q-49 15 -88 15
q-46 0 -72.5 -19.5t-26.5 -55.5q0 -34 25.5 -54t71.5 -20q60 0 97 30t37 81v10zM210 -65h96v-101h-96v101z" />
    <glyph glyph-name="uni1EA2" unicode="&#x1ea2;" horiz-adv-x="739" 
d="M473 879q0 -24 -7.5 -40t-14.5 -21.5t-20 -12.5q-11 -6 -16 -9.5t-9 -13.5t-4 -26h-67q-1 26 7 45t15.5 25.5t22.5 15.5q26 17 26 37q0 12 -9 19.5t-24 7.5q-39 0 -51 -50l-57 33q26 72 108 74q44 1 72 -22.5t28 -61.5zM306 700h128l293 -700h-102l-72 178h-366l-73 -178
h-101zM519 262l-149 365l-150 -365h299z" />
    <glyph glyph-name="uni1EA3" unicode="&#x1ea3;" horiz-adv-x="515" 
d="M361 653q0 -24 -7.5 -40t-14.5 -21.5t-20 -12.5q-11 -6 -16 -9.5t-9 -13.5t-4 -26h-67q-1 26 7 45t15.5 25.5t22.5 15.5q26 17 26 37q0 12 -9 19.5t-24 7.5q-39 0 -51 -50l-57 33q26 72 108 74q44 1 72 -22.5t28 -61.5zM45 135q0 71 48 109t128 38q53 0 101 -15l43 -12
v49q0 51 -32.5 79t-86.5 28q-51 0 -84 -26t-42 -72l-78 22q14 69 68 109t136 40q96 0 149 -49.5t53 -137.5v-297h-83v75q-18 -39 -62 -62t-101 -23q-66 0 -112 39q-45 41 -45 106zM365 187l-44 13q-49 15 -88 15q-46 0 -72.5 -19.5t-26.5 -55.5q0 -34 25.5 -54t71.5 -20
q60 0 97 30t37 81v10z" />
    <glyph glyph-name="uni1EA4" unicode="&#x1ea4;" horiz-adv-x="739" 
d="M629 947h117v-14l-121 -119h-83zM218 758l121 106h62l121 -106v-14h-95l-57 69l-57 -69h-95v14zM306 700h128l293 -700h-102l-72 178h-366l-73 -178h-101zM519 262l-149 365l-150 -365h299z" />
    <glyph glyph-name="uni1EA5" unicode="&#x1ea5;" horiz-adv-x="515" 
d="M517 721h117v-14l-121 -119h-83zM106 532l121 106h62l121 -106v-14h-95l-57 69l-57 -69h-95v14zM45 135q0 71 48 109t128 38q53 0 101 -15l43 -12v49q0 51 -32.5 79t-86.5 28q-51 0 -84 -26t-42 -72l-78 22q14 69 68 109t136 40q96 0 149 -49.5t53 -137.5v-297h-83v75
q-18 -39 -62 -62t-101 -23q-66 0 -112 39q-45 41 -45 106zM365 187l-44 13q-49 15 -88 15q-46 0 -72.5 -19.5t-26.5 -55.5q0 -34 25.5 -54t71.5 -20q60 0 97 30t37 81v10z" />
    <glyph glyph-name="uni1EA6" unicode="&#x1ea6;" horiz-adv-x="739" 
d="M403 938v14h117l87 -133h-83zM218 758l121 106h62l121 -106v-14h-95l-57 69l-57 -69h-95v14zM306 700h128l293 -700h-102l-72 178h-366l-73 -178h-101zM519 262l-149 365l-150 -365h299z" />
    <glyph glyph-name="uni1EA7" unicode="&#x1ea7;" horiz-adv-x="515" 
d="M291 712v14h117l87 -133h-83zM106 532l121 106h62l121 -106v-14h-95l-57 69l-57 -69h-95v14zM45 135q0 71 48 109t128 38q53 0 101 -15l43 -12v49q0 51 -32.5 79t-86.5 28q-51 0 -84 -26t-42 -72l-78 22q14 69 68 109t136 40q96 0 149 -49.5t53 -137.5v-297h-83v75
q-18 -39 -62 -62t-101 -23q-66 0 -112 39q-45 41 -45 106zM365 187l-44 13q-49 15 -88 15q-46 0 -72.5 -19.5t-26.5 -55.5q0 -34 25.5 -54t71.5 -20q60 0 97 30t37 81v10z" />
    <glyph glyph-name="uni1EA8" unicode="&#x1ea8;" horiz-adv-x="739" 
d="M631 937q0 -24 -7.5 -40t-14.5 -21.5t-20 -12.5q-11 -6 -16 -9.5t-9 -13.5t-4 -26h-67q-1 26 7 45t15.5 25.5t22.5 15.5q26 17 26 37q0 12 -9 19.5t-24 7.5q-39 0 -51 -50l-57 33q26 72 108 74q44 1 72 -22.5t28 -61.5zM218 758l121 106h62l121 -106v-14h-95l-57 69
l-57 -69h-95v14zM306 700h128l293 -700h-102l-72 178h-366l-73 -178h-101zM519 262l-149 365l-150 -365h299z" />
    <glyph glyph-name="uni1EA9" unicode="&#x1ea9;" horiz-adv-x="515" 
d="M519 711q0 -24 -7.5 -40t-14.5 -21.5t-20 -12.5q-11 -6 -16 -9.5t-9 -13.5t-4 -26h-67q-1 26 7 45t15.5 25.5t22.5 15.5q26 17 26 37q0 12 -9 19.5t-24 7.5q-39 0 -51 -50l-57 33q26 72 108 74q44 1 72 -22.5t28 -61.5zM106 532l121 106h62l121 -106v-14h-95l-57 69
l-57 -69h-95v14zM45 135q0 71 48 109t128 38q53 0 101 -15l43 -12v49q0 51 -32.5 79t-86.5 28q-51 0 -84 -26t-42 -72l-78 22q14 69 68 109t136 40q96 0 149 -49.5t53 -137.5v-297h-83v75q-18 -39 -62 -62t-101 -23q-66 0 -112 39q-45 41 -45 106zM365 187l-44 13
q-49 15 -88 15q-46 0 -72.5 -19.5t-26.5 -55.5q0 -34 25.5 -54t71.5 -20q60 0 97 30t37 81v10z" />
    <glyph glyph-name="uni1EAA" unicode="&#x1eaa;" horiz-adv-x="739" 
d="M354 914q-22 21 -43 21q-15 0 -24.5 -9.5t-9.5 -24.5q0 -9 3 -16l-63 8q-2 8 -2 16q0 39 26.5 64t65.5 25q41 0 77 -31q22 -21 43 -21q15 0 24.5 9.5t9.5 24.5q0 8 -3 16l64 -8q2 -8 2 -16q0 -39 -27 -64t-66 -25q-41 0 -77 31zM218 758l121 106h62l121 -106v-14h-95
l-57 69l-57 -69h-95v14zM306 700h128l293 -700h-102l-72 178h-366l-73 -178h-101zM519 262l-149 365l-150 -365h299z" />
    <glyph glyph-name="uni1EAB" unicode="&#x1eab;" horiz-adv-x="515" 
d="M242 688q-22 21 -43 21q-15 0 -24.5 -9.5t-9.5 -24.5q0 -9 3 -16l-63 8q-2 8 -2 16q0 39 26.5 64t65.5 25q41 0 77 -31q22 -21 43 -21q15 0 24.5 9.5t9.5 24.5q0 8 -3 16l64 -8q2 -8 2 -16q0 -39 -27 -64t-66 -25q-41 0 -77 31zM106 532l121 106h62l121 -106v-14h-95
l-57 69l-57 -69h-95v14zM45 135q0 71 48 109t128 38q53 0 101 -15l43 -12v49q0 51 -32.5 79t-86.5 28q-51 0 -84 -26t-42 -72l-78 22q14 69 68 109t136 40q96 0 149 -49.5t53 -137.5v-297h-83v75q-18 -39 -62 -62t-101 -23q-66 0 -112 39q-45 41 -45 106zM365 187l-44 13
q-49 15 -88 15q-46 0 -72.5 -19.5t-26.5 -55.5q0 -34 25.5 -54t71.5 -20q60 0 97 30t37 81v10z" />
    <glyph glyph-name="uni1EAC" unicode="&#x1eac;" horiz-adv-x="739" 
d="M218 758l121 106h62l121 -106v-14h-95l-57 69l-57 -69h-95v14zM306 700h128l293 -700h-102l-72 178h-366l-73 -178h-101zM519 262l-149 365l-150 -365h299zM322 -65h96v-101h-96v101z" />
    <glyph glyph-name="uni1EAD" unicode="&#x1ead;" horiz-adv-x="515" 
d="M106 532l121 106h62l121 -106v-14h-95l-57 69l-57 -69h-95v14zM45 135q0 71 48 109t128 38q53 0 101 -15l43 -12v49q0 51 -32.5 79t-86.5 28q-51 0 -84 -26t-42 -72l-78 22q14 69 68 109t136 40q96 0 149 -49.5t53 -137.5v-297h-83v75q-18 -39 -62 -62t-101 -23
q-66 0 -112 39q-45 41 -45 106zM365 187l-44 13q-49 15 -88 15q-46 0 -72.5 -19.5t-26.5 -55.5q0 -34 25.5 -54t71.5 -20q60 0 97 30t37 81v10zM210 -65h96v-101h-96v101z" />
    <glyph glyph-name="uni1EAE" unicode="&#x1eae;" horiz-adv-x="739" 
d="M424 1017h117v-14l-121 -119h-83zM492 856q0 -52 -34 -80.5t-88 -28.5t-88 28.5t-34 80.5q0 11 1 14h68l-1 -11q0 -22 15 -36t39 -14t39 14t15 36l-1 11h68q1 -3 1 -14zM306 700h128l293 -700h-102l-72 178h-366l-73 -178h-101zM519 262l-149 365l-150 -365h299z" />
    <glyph glyph-name="uni1EAF" unicode="&#x1eaf;" horiz-adv-x="515" 
d="M312 791h117v-14l-121 -119h-83zM380 630q0 -52 -34 -80.5t-88 -28.5t-88 28.5t-34 80.5q0 11 1 14h68l-1 -11q0 -22 15 -36t39 -14t39 14t15 36l-1 11h68q1 -3 1 -14zM45 135q0 71 48 109t128 38q53 0 101 -15l43 -12v49q0 51 -32.5 79t-86.5 28q-51 0 -84 -26t-42 -72
l-78 22q14 69 68 109t136 40q96 0 149 -49.5t53 -137.5v-297h-83v75q-18 -39 -62 -62t-101 -23q-66 0 -112 39q-45 41 -45 106zM365 187l-44 13q-49 15 -88 15q-46 0 -72.5 -19.5t-26.5 -55.5q0 -34 25.5 -54t71.5 -20q60 0 97 30t37 81v10z" />
    <glyph glyph-name="uni1EB0" unicode="&#x1eb0;" horiz-adv-x="739" 
d="M198 1008v14h117l87 -133h-83zM492 856q0 -52 -34 -80.5t-88 -28.5t-88 28.5t-34 80.5q0 11 1 14h68l-1 -11q0 -22 15 -36t39 -14t39 14t15 36l-1 11h68q1 -3 1 -14zM306 700h128l293 -700h-102l-72 178h-366l-73 -178h-101zM519 262l-149 365l-150 -365h299z" />
    <glyph glyph-name="uni1EB1" unicode="&#x1eb1;" horiz-adv-x="515" 
d="M86 782v14h117l87 -133h-83zM380 630q0 -52 -34 -80.5t-88 -28.5t-88 28.5t-34 80.5q0 11 1 14h68l-1 -11q0 -22 15 -36t39 -14t39 14t15 36l-1 11h68q1 -3 1 -14zM45 135q0 71 48 109t128 38q53 0 101 -15l43 -12v49q0 51 -32.5 79t-86.5 28q-51 0 -84 -26t-42 -72
l-78 22q14 69 68 109t136 40q96 0 149 -49.5t53 -137.5v-297h-83v75q-18 -39 -62 -62t-101 -23q-66 0 -112 39q-45 41 -45 106zM365 187l-44 13q-49 15 -88 15q-46 0 -72.5 -19.5t-26.5 -55.5q0 -34 25.5 -54t71.5 -20q60 0 97 30t37 81v10z" />
    <glyph glyph-name="uni1EB2" unicode="&#x1eb2;" horiz-adv-x="739" 
d="M473 1007q0 -24 -7.5 -40t-14.5 -21.5t-20 -12.5q-11 -6 -16 -9.5t-9 -13.5t-4 -26h-67q-1 26 7 45t15.5 25.5t22.5 15.5q26 17 26 37q0 12 -9 19.5t-24 7.5q-39 0 -51 -50l-57 33q26 72 108 74q44 1 72 -22.5t28 -61.5zM492 856q0 -52 -34 -80.5t-88 -28.5t-88 28.5
t-34 80.5q0 11 1 14h68l-1 -11q0 -22 15 -36t39 -14t39 14t15 36l-1 11h68q1 -3 1 -14zM306 700h128l293 -700h-102l-72 178h-366l-73 -178h-101zM519 262l-149 365l-150 -365h299z" />
    <glyph glyph-name="uni1EB3" unicode="&#x1eb3;" horiz-adv-x="515" 
d="M361 781q0 -24 -7.5 -40t-14.5 -21.5t-20 -12.5q-11 -6 -16 -9.5t-9 -13.5t-4 -26h-67q-1 26 7 45t15.5 25.5t22.5 15.5q26 17 26 37q0 12 -9 19.5t-24 7.5q-39 0 -51 -50l-57 33q26 72 108 74q44 1 72 -22.5t28 -61.5zM380 630q0 -52 -34 -80.5t-88 -28.5t-88 28.5
t-34 80.5q0 11 1 14h68l-1 -11q0 -22 15 -36t39 -14t39 14t15 36l-1 11h68q1 -3 1 -14zM45 135q0 71 48 109t128 38q53 0 101 -15l43 -12v49q0 51 -32.5 79t-86.5 28q-51 0 -84 -26t-42 -72l-78 22q14 69 68 109t136 40q96 0 149 -49.5t53 -137.5v-297h-83v75
q-18 -39 -62 -62t-101 -23q-66 0 -112 39q-45 41 -45 106zM365 187l-44 13q-49 15 -88 15q-46 0 -72.5 -19.5t-26.5 -55.5q0 -34 25.5 -54t71.5 -20q60 0 97 30t37 81v10z" />
    <glyph glyph-name="uni1EB4" unicode="&#x1eb4;" horiz-adv-x="739" 
d="M355 924q-22 21 -43 21q-15 0 -24.5 -9.5t-9.5 -24.5q0 -9 3 -16l-63 8q-2 8 -2 16q0 39 26.5 64t65.5 25q41 0 77 -31q22 -21 43 -21q15 0 24.5 9.5t9.5 24.5q0 8 -3 16l64 -8q2 -8 2 -16q0 -39 -27 -64t-66 -25q-41 0 -77 31zM492 856q0 -52 -34 -80.5t-88 -28.5
t-88 28.5t-34 80.5q0 11 1 14h68l-1 -11q0 -22 15 -36t39 -14t39 14t15 36l-1 11h68q1 -3 1 -14zM306 700h128l293 -700h-102l-72 178h-366l-73 -178h-101zM519 262l-149 365l-150 -365h299z" />
    <glyph glyph-name="uni1EB5" unicode="&#x1eb5;" horiz-adv-x="515" 
d="M243 698q-22 21 -43 21q-15 0 -24.5 -9.5t-9.5 -24.5q0 -9 3 -16l-63 8q-2 8 -2 16q0 39 26.5 64t65.5 25q41 0 77 -31q22 -21 43 -21q15 0 24.5 9.5t9.5 24.5q0 8 -3 16l64 -8q2 -8 2 -16q0 -39 -27 -64t-66 -25q-41 0 -77 31zM380 630q0 -52 -34 -80.5t-88 -28.5
t-88 28.5t-34 80.5q0 11 1 14h68l-1 -11q0 -22 15 -36t39 -14t39 14t15 36l-1 11h68q1 -3 1 -14zM45 135q0 71 48 109t128 38q53 0 101 -15l43 -12v49q0 51 -32.5 79t-86.5 28q-51 0 -84 -26t-42 -72l-78 22q14 69 68 109t136 40q96 0 149 -49.5t53 -137.5v-297h-83v75
q-18 -39 -62 -62t-101 -23q-66 0 -112 39q-45 41 -45 106zM365 187l-44 13q-49 15 -88 15q-46 0 -72.5 -19.5t-26.5 -55.5q0 -34 25.5 -54t71.5 -20q60 0 97 30t37 81v10z" />
    <glyph glyph-name="uni1EB6" unicode="&#x1eb6;" horiz-adv-x="739" 
d="M492 856q0 -52 -34 -80.5t-88 -28.5t-88 28.5t-34 80.5q0 11 1 14h68l-1 -11q0 -22 15 -36t39 -14t39 14t15 36l-1 11h68q1 -3 1 -14zM306 700h128l293 -700h-102l-72 178h-366l-73 -178h-101zM519 262l-149 365l-150 -365h299zM322 -65h96v-101h-96v101z" />
    <glyph glyph-name="uni1EB7" unicode="&#x1eb7;" horiz-adv-x="515" 
d="M380 630q0 -52 -34 -80.5t-88 -28.5t-88 28.5t-34 80.5q0 11 1 14h68l-1 -11q0 -22 15 -36t39 -14t39 14t15 36l-1 11h68q1 -3 1 -14zM45 135q0 71 48 109t128 38q53 0 101 -15l43 -12v49q0 51 -32.5 79t-86.5 28q-51 0 -84 -26t-42 -72l-78 22q14 69 68 109t136 40
q96 0 149 -49.5t53 -137.5v-297h-83v75q-18 -39 -62 -62t-101 -23q-66 0 -112 39q-45 41 -45 106zM365 187l-44 13q-49 15 -88 15q-46 0 -72.5 -19.5t-26.5 -55.5q0 -34 25.5 -54t71.5 -20q60 0 97 30t37 81v10zM210 -65h96v-101h-96v101z" />
    <glyph glyph-name="uni1EB8" unicode="&#x1eb8;" horiz-adv-x="633" 
d="M569 700v-87h-401v-207h371v-87h-371v-232h411v-87h-503v700h493zM269 -65h96v-101h-96v101z" />
    <glyph glyph-name="uni1EB9" unicode="&#x1eb9;" horiz-adv-x="522" 
d="M489 143q-51 -153 -212 -153q-106 0 -172.5 68.5t-66.5 181.5q0 104 63 174t163 70q95 0 153 -55q58 -54 58 -147q0 -31 -6 -58h-343q1 -75 43.5 -116.5t107.5 -41.5q107 0 137 106zM389 286l1 14q0 50 -36 79t-91 29t-92.5 -33t-44.5 -89h263zM213 -65h96v-101h-96v101z
" />
    <glyph glyph-name="uni1EBA" unicode="&#x1eba;" horiz-adv-x="633" 
d="M420 879q0 -24 -7.5 -40t-14.5 -21.5t-20 -12.5q-11 -6 -16 -9.5t-9 -13.5t-4 -26h-67q-1 26 7 45t15.5 25.5t22.5 15.5q26 17 26 37q0 12 -9 19.5t-24 7.5q-39 0 -51 -50l-57 33q26 72 108 74q44 1 72 -22.5t28 -61.5zM569 700v-87h-401v-207h371v-87h-371v-232h411v-87
h-503v700h493z" />
    <glyph glyph-name="uni1EBB" unicode="&#x1ebb;" horiz-adv-x="522" 
d="M364 653q0 -24 -7.5 -40t-14.5 -21.5t-20 -12.5q-11 -6 -16 -9.5t-9 -13.5t-4 -26h-67q-1 26 7 45t15.5 25.5t22.5 15.5q26 17 26 37q0 12 -9 19.5t-24 7.5q-39 0 -51 -50l-57 33q26 72 108 74q44 1 72 -22.5t28 -61.5zM489 143q-51 -153 -212 -153q-106 0 -172.5 68.5
t-66.5 181.5q0 104 63 174t163 70q95 0 153 -55q58 -54 58 -147q0 -31 -6 -58h-343q1 -75 43.5 -116.5t107.5 -41.5q107 0 137 106zM389 286l1 14q0 50 -36 79t-91 29t-92.5 -33t-44.5 -89h263z" />
    <glyph glyph-name="uni1EBC" unicode="&#x1ebc;" horiz-adv-x="633" 
d="M302 796q-22 21 -43 21q-15 0 -24.5 -9.5t-9.5 -24.5q0 -8 3 -16l-63 8q-2 8 -2 16q0 39 26.5 64t65.5 25q41 0 77 -31q22 -21 43 -21q15 0 24.5 9.5t9.5 24.5q0 8 -3 16l64 -8q2 -8 2 -16q0 -39 -27 -64t-66 -25q-41 0 -77 31zM569 700v-87h-401v-207h371v-87h-371v-232
h411v-87h-503v700h493z" />
    <glyph glyph-name="uni1EBD" unicode="&#x1ebd;" horiz-adv-x="522" 
d="M246 570q-22 21 -43 21q-15 0 -24.5 -9.5t-9.5 -24.5q0 -9 3 -16l-63 8q-2 8 -2 16q0 39 26.5 64t65.5 25q41 0 77 -31q22 -21 43 -21q15 0 24.5 9.5t9.5 24.5q0 9 -3 16l64 -8q2 -8 2 -16q0 -39 -27 -64t-66 -25q-41 0 -77 31zM489 143q-51 -153 -212 -153
q-106 0 -172.5 68.5t-66.5 181.5q0 104 63 174t163 70q95 0 153 -55q58 -54 58 -147q0 -31 -6 -58h-343q1 -75 43.5 -116.5t107.5 -41.5q107 0 137 106zM389 286l1 14q0 50 -36 79t-91 29t-92.5 -33t-44.5 -89h263z" />
    <glyph glyph-name="uni1EBE" unicode="&#x1ebe;" horiz-adv-x="633" 
d="M576 947h117v-14l-121 -119h-83zM165 758l121 106h62l121 -106v-14h-95l-57 69l-57 -69h-95v14zM569 700v-87h-401v-207h371v-87h-371v-232h411v-87h-503v700h493z" />
    <glyph glyph-name="uni1EBF" unicode="&#x1ebf;" horiz-adv-x="522" 
d="M520 721h117v-14l-121 -119h-83zM109 532l121 106h62l121 -106v-14h-95l-57 69l-57 -69h-95v14zM489 143q-51 -153 -212 -153q-106 0 -172.5 68.5t-66.5 181.5q0 104 63 174t163 70q95 0 153 -55q58 -54 58 -147q0 -31 -6 -58h-343q1 -75 43.5 -116.5t107.5 -41.5
q107 0 137 106zM389 286l1 14q0 50 -36 79t-91 29t-92.5 -33t-44.5 -89h263z" />
    <glyph glyph-name="uni1EC0" unicode="&#x1ec0;" horiz-adv-x="633" 
d="M350 938v14h117l87 -133h-83zM165 758l121 106h62l121 -106v-14h-95l-57 69l-57 -69h-95v14zM569 700v-87h-401v-207h371v-87h-371v-232h411v-87h-503v700h493z" />
    <glyph glyph-name="uni1EC1" unicode="&#x1ec1;" horiz-adv-x="522" 
d="M294 712v14h117l87 -133h-83zM109 532l121 106h62l121 -106v-14h-95l-57 69l-57 -69h-95v14zM489 143q-51 -153 -212 -153q-106 0 -172.5 68.5t-66.5 181.5q0 104 63 174t163 70q95 0 153 -55q58 -54 58 -147q0 -31 -6 -58h-343q1 -75 43.5 -116.5t107.5 -41.5
q107 0 137 106zM389 286l1 14q0 50 -36 79t-91 29t-92.5 -33t-44.5 -89h263z" />
    <glyph glyph-name="uni1EC2" unicode="&#x1ec2;" horiz-adv-x="633" 
d="M578 937q0 -24 -7.5 -40t-14.5 -21.5t-20 -12.5q-11 -6 -16 -9.5t-9 -13.5t-4 -26h-67q-1 26 7 45t15.5 25.5t22.5 15.5q26 17 26 37q0 12 -9 19.5t-24 7.5q-39 0 -51 -50l-57 33q26 72 108 74q44 1 72 -22.5t28 -61.5zM165 758l121 106h62l121 -106v-14h-95l-57 69
l-57 -69h-95v14zM569 700v-87h-401v-207h371v-87h-371v-232h411v-87h-503v700h493z" />
    <glyph glyph-name="uni1EC3" unicode="&#x1ec3;" horiz-adv-x="522" 
d="M522 711q0 -24 -7.5 -40t-14.5 -21.5t-20 -12.5q-11 -6 -16 -9.5t-9 -13.5t-4 -26h-67q-1 26 7 45t15.5 25.5t22.5 15.5q26 17 26 37q0 12 -9 19.5t-24 7.5q-39 0 -51 -50l-57 33q26 72 108 74q44 1 72 -22.5t28 -61.5zM109 532l121 106h62l121 -106v-14h-95l-57 69
l-57 -69h-95v14zM489 143q-51 -153 -212 -153q-106 0 -172.5 68.5t-66.5 181.5q0 104 63 174t163 70q95 0 153 -55q58 -54 58 -147q0 -31 -6 -58h-343q1 -75 43.5 -116.5t107.5 -41.5q107 0 137 106zM389 286l1 14q0 50 -36 79t-91 29t-92.5 -33t-44.5 -89h263z" />
    <glyph glyph-name="uni1EC4" unicode="&#x1ec4;" horiz-adv-x="633" 
d="M301 914q-22 21 -43 21q-15 0 -24.5 -9.5t-9.5 -24.5q0 -9 3 -16l-63 8q-2 8 -2 16q0 39 26.5 64t65.5 25q41 0 77 -31q22 -21 43 -21q15 0 24.5 9.5t9.5 24.5q0 8 -3 16l64 -8q2 -8 2 -16q0 -39 -27 -64t-66 -25q-41 0 -77 31zM165 758l121 106h62l121 -106v-14h-95
l-57 69l-57 -69h-95v14zM569 700v-87h-401v-207h371v-87h-371v-232h411v-87h-503v700h493z" />
    <glyph glyph-name="uni1EC5" unicode="&#x1ec5;" horiz-adv-x="522" 
d="M245 688q-22 21 -43 21q-15 0 -24.5 -9.5t-9.5 -24.5q0 -9 3 -16l-63 8q-2 8 -2 16q0 39 26.5 64t65.5 25q41 0 77 -31q22 -21 43 -21q15 0 24.5 9.5t9.5 24.5q0 8 -3 16l64 -8q2 -8 2 -16q0 -39 -27 -64t-66 -25q-41 0 -77 31zM109 532l121 106h62l121 -106v-14h-95
l-57 69l-57 -69h-95v14zM489 143q-51 -153 -212 -153q-106 0 -172.5 68.5t-66.5 181.5q0 104 63 174t163 70q95 0 153 -55q58 -54 58 -147q0 -31 -6 -58h-343q1 -75 43.5 -116.5t107.5 -41.5q107 0 137 106zM389 286l1 14q0 50 -36 79t-91 29t-92.5 -33t-44.5 -89h263z" />
    <glyph glyph-name="uni1EC6" unicode="&#x1ec6;" horiz-adv-x="633" 
d="M165 758l121 106h62l121 -106v-14h-95l-57 69l-57 -69h-95v14zM569 700v-87h-401v-207h371v-87h-371v-232h411v-87h-503v700h493zM269 -65h96v-101h-96v101z" />
    <glyph glyph-name="uni1EC7" unicode="&#x1ec7;" horiz-adv-x="522" 
d="M109 532l121 106h62l121 -106v-14h-95l-57 69l-57 -69h-95v14zM489 143q-51 -153 -212 -153q-106 0 -172.5 68.5t-66.5 181.5q0 104 63 174t163 70q95 0 153 -55q58 -54 58 -147q0 -31 -6 -58h-343q1 -75 43.5 -116.5t107.5 -41.5q107 0 137 106zM389 286l1 14
q0 50 -36 79t-91 29t-92.5 -33t-44.5 -89h263zM213 -65h96v-101h-96v101z" />
    <glyph glyph-name="uni1EC8" unicode="&#x1ec8;" horiz-adv-x="243" 
d="M225 879q0 -24 -7.5 -40t-14.5 -21.5t-20 -12.5q-11 -6 -16 -9.5t-9 -13.5t-4 -26h-67q-1 26 7 45t15.5 25.5t22.5 15.5q26 17 26 37q0 12 -9 19.5t-24 7.5q-39 0 -51 -50l-57 33q26 72 108 74q44 1 72 -22.5t28 -61.5zM76 700h92v-700h-92v700z" />
    <glyph glyph-name="uni1EC9" unicode="&#x1ec9;" horiz-adv-x="220" 
d="M213 653q0 -24 -7.5 -40t-14.5 -21.5t-20 -12.5q-11 -6 -16 -9.5t-9 -13.5t-4 -26h-67q-1 26 7 45t15.5 25.5t22.5 15.5q26 17 26 37q0 12 -9 19.5t-24 7.5q-39 0 -51 -50l-57 33q26 72 108 74q44 1 72 -22.5t28 -61.5zM153 474v-474h-86v474h86z" />
    <glyph glyph-name="uni1ECA" unicode="&#x1eca;" horiz-adv-x="243" 
d="M76 700h92v-700h-92v700zM74 -65h96v-101h-96v101z" />
    <glyph glyph-name="uni1ECB" unicode="&#x1ecb;" horiz-adv-x="220" 
d="M62 663h96v-101h-96v101zM153 474v-474h-86v474h86zM62 -65h96v-101h-96v101z" />
    <glyph glyph-name="uni1ECC" unicode="&#x1ecc;" horiz-adv-x="812" 
d="M406 710q151 3 257.5 -104.5t104.5 -255.5q2 -149 -104.5 -256t-257.5 -104q-151 -3 -257 104t-104 256q-2 148 104 255.5t257 104.5zM406 77q113 0 189 76t76 197t-75 197t-190 76t-190 -76t-75 -198q0 -121 75.5 -196.5t189.5 -75.5zM358 -65h96v-101h-96v101z" />
    <glyph glyph-name="uni1ECD" unicode="&#x1ecd;" horiz-adv-x="556" 
d="M38 237q0 106 67 176.5t173 70.5q107 0 174 -70.5t67 -176.5t-67.5 -176.5t-173.5 -70.5t-173 70.5t-67 176.5zM430 237q0 75 -43 121q-42 48 -109 48q-66 0 -109 -47.5t-43 -121.5t43 -121.5t109 -47.5q67 0 109.5 47t42.5 122zM230 -65h96v-101h-96v101z" />
    <glyph glyph-name="uni1ECE" unicode="&#x1ece;" horiz-adv-x="812" 
d="M509 879q0 -24 -7.5 -40t-14.5 -21.5t-20 -12.5q-11 -6 -16 -9.5t-9 -13.5t-4 -26h-67q-1 26 7 45t15.5 25.5t22.5 15.5q26 17 26 37q0 12 -9 19.5t-24 7.5q-39 0 -51 -50l-57 33q26 72 108 74q44 1 72 -22.5t28 -61.5zM406 710q151 3 257.5 -104.5t104.5 -255.5
q2 -149 -104.5 -256t-257.5 -104q-151 -3 -257 104t-104 256q-2 148 104 255.5t257 104.5zM406 77q113 0 189 76t76 197t-75 197t-190 76t-190 -76t-75 -198q0 -121 75.5 -196.5t189.5 -75.5z" />
    <glyph glyph-name="uni1ECF" unicode="&#x1ecf;" horiz-adv-x="556" 
d="M381 653q0 -24 -7.5 -40t-14.5 -21.5t-20 -12.5q-11 -6 -16 -9.5t-9 -13.5t-4 -26h-67q-1 26 7 45t15.5 25.5t22.5 15.5q26 17 26 37q0 12 -9 19.5t-24 7.5q-39 0 -51 -50l-57 33q26 72 108 74q44 1 72 -22.5t28 -61.5zM38 237q0 106 67 176.5t173 70.5q107 0 174 -70.5
t67 -176.5t-67.5 -176.5t-173.5 -70.5t-173 70.5t-67 176.5zM430 237q0 75 -43 121q-42 48 -109 48q-66 0 -109 -47.5t-43 -121.5t43 -121.5t109 -47.5q67 0 109.5 47t42.5 122z" />
    <glyph glyph-name="uni1ED0" unicode="&#x1ed0;" horiz-adv-x="812" 
d="M665 947h117v-14l-121 -119h-83zM254 758l121 106h62l121 -106v-14h-95l-57 69l-57 -69h-95v14zM406 710q151 3 257.5 -104.5t104.5 -255.5q2 -149 -104.5 -256t-257.5 -104q-151 -3 -257 104t-104 256q-2 148 104 255.5t257 104.5zM406 77q113 0 189 76t76 197t-75 197
t-190 76t-190 -76t-75 -198q0 -121 75.5 -196.5t189.5 -75.5z" />
    <glyph glyph-name="uni1ED1" unicode="&#x1ed1;" horiz-adv-x="556" 
d="M537 721h117v-14l-121 -119h-83zM126 532l121 106h62l121 -106v-14h-95l-57 69l-57 -69h-95v14zM38 237q0 106 67 176.5t173 70.5q107 0 174 -70.5t67 -176.5t-67.5 -176.5t-173.5 -70.5t-173 70.5t-67 176.5zM430 237q0 75 -43 121q-42 48 -109 48q-66 0 -109 -47.5
t-43 -121.5t43 -121.5t109 -47.5q67 0 109.5 47t42.5 122z" />
    <glyph glyph-name="uni1ED2" unicode="&#x1ed2;" horiz-adv-x="812" 
d="M439 938v14h117l87 -133h-83zM254 758l121 106h62l121 -106v-14h-95l-57 69l-57 -69h-95v14zM406 710q151 3 257.5 -104.5t104.5 -255.5q2 -149 -104.5 -256t-257.5 -104q-151 -3 -257 104t-104 256q-2 148 104 255.5t257 104.5zM406 77q113 0 189 76t76 197t-75 197
t-190 76t-190 -76t-75 -198q0 -121 75.5 -196.5t189.5 -75.5z" />
    <glyph glyph-name="uni1ED3" unicode="&#x1ed3;" horiz-adv-x="556" 
d="M311 712v14h117l87 -133h-83zM126 532l121 106h62l121 -106v-14h-95l-57 69l-57 -69h-95v14zM38 237q0 106 67 176.5t173 70.5q107 0 174 -70.5t67 -176.5t-67.5 -176.5t-173.5 -70.5t-173 70.5t-67 176.5zM430 237q0 75 -43 121q-42 48 -109 48q-66 0 -109 -47.5
t-43 -121.5t43 -121.5t109 -47.5q67 0 109.5 47t42.5 122z" />
    <glyph glyph-name="uni1ED4" unicode="&#x1ed4;" horiz-adv-x="812" 
d="M667 937q0 -24 -7.5 -40t-14.5 -21.5t-20 -12.5q-11 -6 -16 -9.5t-9 -13.5t-4 -26h-67q-1 26 7 45t15.5 25.5t22.5 15.5q26 17 26 37q0 12 -9 19.5t-24 7.5q-39 0 -51 -50l-57 33q26 72 108 74q44 1 72 -22.5t28 -61.5zM254 758l121 106h62l121 -106v-14h-95l-57 69
l-57 -69h-95v14zM406 710q151 3 257.5 -104.5t104.5 -255.5q2 -149 -104.5 -256t-257.5 -104q-151 -3 -257 104t-104 256q-2 148 104 255.5t257 104.5zM406 77q113 0 189 76t76 197t-75 197t-190 76t-190 -76t-75 -198q0 -121 75.5 -196.5t189.5 -75.5z" />
    <glyph glyph-name="uni1ED5" unicode="&#x1ed5;" horiz-adv-x="556" 
d="M539 711q0 -24 -7.5 -40t-14.5 -21.5t-20 -12.5q-11 -6 -16 -9.5t-9 -13.5t-4 -26h-67q-1 26 7 45t15.5 25.5t22.5 15.5q26 17 26 37q0 12 -9 19.5t-24 7.5q-39 0 -51 -50l-57 33q26 72 108 74q44 1 72 -22.5t28 -61.5zM126 532l121 106h62l121 -106v-14h-95l-57 69
l-57 -69h-95v14zM38 237q0 106 67 176.5t173 70.5q107 0 174 -70.5t67 -176.5t-67.5 -176.5t-173.5 -70.5t-173 70.5t-67 176.5zM430 237q0 75 -43 121q-42 48 -109 48q-66 0 -109 -47.5t-43 -121.5t43 -121.5t109 -47.5q67 0 109.5 47t42.5 122z" />
    <glyph glyph-name="uni1ED6" unicode="&#x1ed6;" horiz-adv-x="812" 
d="M390 914q-22 21 -43 21q-15 0 -24.5 -9.5t-9.5 -24.5q0 -9 3 -16l-63 8q-2 8 -2 16q0 39 26.5 64t65.5 25q41 0 77 -31q22 -21 43 -21q15 0 24.5 9.5t9.5 24.5q0 8 -3 16l64 -8q2 -8 2 -16q0 -39 -27 -64t-66 -25q-41 0 -77 31zM254 758l121 106h62l121 -106v-14h-95
l-57 69l-57 -69h-95v14zM406 710q151 3 257.5 -104.5t104.5 -255.5q2 -149 -104.5 -256t-257.5 -104q-151 -3 -257 104t-104 256q-2 148 104 255.5t257 104.5zM406 77q113 0 189 76t76 197t-75 197t-190 76t-190 -76t-75 -198q0 -121 75.5 -196.5t189.5 -75.5z" />
    <glyph glyph-name="uni1ED7" unicode="&#x1ed7;" horiz-adv-x="556" 
d="M262 688q-22 21 -43 21q-15 0 -24.5 -9.5t-9.5 -24.5q0 -9 3 -16l-63 8q-2 8 -2 16q0 39 26.5 64t65.5 25q41 0 77 -31q22 -21 43 -21q15 0 24.5 9.5t9.5 24.5q0 8 -3 16l64 -8q2 -8 2 -16q0 -39 -27 -64t-66 -25q-41 0 -77 31zM126 532l121 106h62l121 -106v-14h-95
l-57 69l-57 -69h-95v14zM38 237q0 106 67 176.5t173 70.5q107 0 174 -70.5t67 -176.5t-67.5 -176.5t-173.5 -70.5t-173 70.5t-67 176.5zM430 237q0 75 -43 121q-42 48 -109 48q-66 0 -109 -47.5t-43 -121.5t43 -121.5t109 -47.5q67 0 109.5 47t42.5 122z" />
    <glyph glyph-name="uni1ED8" unicode="&#x1ed8;" horiz-adv-x="812" 
d="M254 758l121 106h62l121 -106v-14h-95l-57 69l-57 -69h-95v14zM406 710q151 3 257.5 -104.5t104.5 -255.5q2 -149 -104.5 -256t-257.5 -104q-151 -3 -257 104t-104 256q-2 148 104 255.5t257 104.5zM406 77q113 0 189 76t76 197t-75 197t-190 76t-190 -76t-75 -198
q0 -121 75.5 -196.5t189.5 -75.5zM358 -65h96v-101h-96v101z" />
    <glyph glyph-name="uni1ED9" unicode="&#x1ed9;" horiz-adv-x="556" 
d="M126 532l121 106h62l121 -106v-14h-95l-57 69l-57 -69h-95v14zM38 237q0 106 67 176.5t173 70.5q107 0 174 -70.5t67 -176.5t-67.5 -176.5t-173.5 -70.5t-173 70.5t-67 176.5zM430 237q0 75 -43 121q-42 48 -109 48q-66 0 -109 -47.5t-43 -121.5t43 -121.5t109 -47.5
q67 0 109.5 47t42.5 122zM230 -65h96v-101h-96v101z" />
    <glyph glyph-name="uni1EDA" unicode="&#x1eda;" horiz-adv-x="812" 
d="M577 875l-121 -119h-83l87 133h117v-14zM590 662q82 -48 130.5 -131.5t47.5 -180.5q2 -149 -104.5 -256t-257.5 -104q-151 -3 -257 104t-104 256q-2 148 104 255.5t257 104.5q44 1 91 -10q32 0 54 15t19 55l-1 11h68q1 -3 1 -14q0 -71 -48 -105zM406 77q113 0 189 76
t76 197t-75 197t-190 76t-190 -76t-75 -198q0 -121 75.5 -196.5t189.5 -75.5z" />
    <glyph glyph-name="uni1EDB" unicode="&#x1edb;" horiz-adv-x="556" 
d="M449 649l-121 -119h-83l87 133h117v-14zM433 431q86 -72 86 -194q0 -106 -67.5 -176.5t-173.5 -70.5t-173 70.5t-67 176.5t67 176.5t173 70.5q40 0 73 -10q32 0 53.5 15.5t18.5 54.5l-1 11h68q1 -3 1 -14q0 -79 -58 -110zM278 68q67 0 109.5 47t42.5 122t-43 121
q-42 48 -109 48q-66 0 -109 -47.5t-43 -121.5t43 -121.5t109 -47.5z" />
    <glyph glyph-name="uni1EDC" unicode="&#x1edc;" horiz-adv-x="812" 
d="M438 761h-83l-121 119v14h117zM590 662q82 -48 130.5 -131.5t47.5 -180.5q2 -149 -104.5 -256t-257.5 -104q-151 -3 -257 104t-104 256q-2 148 104 255.5t257 104.5q44 1 91 -10q32 0 54 15t19 55l-1 11h68q1 -3 1 -14q0 -71 -48 -105zM406 77q113 0 189 76t76 197
t-75 197t-190 76t-190 -76t-75 -198q0 -121 75.5 -196.5t189.5 -75.5z" />
    <glyph glyph-name="uni1EDD" unicode="&#x1edd;" horiz-adv-x="556" 
d="M310 535h-83l-121 119v14h117zM433 431q86 -72 86 -194q0 -106 -67.5 -176.5t-173.5 -70.5t-173 70.5t-67 176.5t67 176.5t173 70.5q40 0 73 -10q32 0 53.5 15.5t18.5 54.5l-1 11h68q1 -3 1 -14q0 -79 -58 -110zM278 68q67 0 109.5 47t42.5 122t-43 121q-42 48 -109 48
q-66 0 -109 -47.5t-43 -121.5t43 -121.5t109 -47.5z" />
    <glyph glyph-name="uni1EDE" unicode="&#x1ede;" horiz-adv-x="812" 
d="M409 906q-39 0 -51 -50l-57 33q26 72 108 74q44 1 72 -22.5t28 -61.5q0 -24 -7.5 -40t-14.5 -21.5t-20 -12.5q-11 -6 -16 -9.5t-9 -13.5t-4 -26h-67q-1 26 7 45t15.5 25.5t22.5 15.5q26 17 26 37q0 12 -9 19.5t-24 7.5zM590 662q82 -48 130.5 -131.5t47.5 -180.5
q2 -149 -104.5 -256t-257.5 -104q-151 -3 -257 104t-104 256q-2 148 104 255.5t257 104.5q44 1 91 -10q32 0 54 15t19 55l-1 11h68q1 -3 1 -14q0 -71 -48 -105zM406 77q113 0 189 76t76 197t-75 197t-190 76t-190 -76t-75 -198q0 -121 75.5 -196.5t189.5 -75.5z" />
    <glyph glyph-name="uni1EDF" unicode="&#x1edf;" horiz-adv-x="556" 
d="M281 680q-39 0 -51 -50l-57 33q26 72 108 74q44 1 72 -22.5t28 -61.5q0 -24 -7.5 -40t-14.5 -21.5t-20 -12.5q-11 -6 -16 -9.5t-9 -13.5t-4 -26h-67q-1 26 7 45t15.5 25.5t22.5 15.5q26 17 26 37q0 12 -9 19.5t-24 7.5zM433 431q86 -72 86 -194q0 -106 -67.5 -176.5
t-173.5 -70.5t-173 70.5t-67 176.5t67 176.5t173 70.5q40 0 73 -10q32 0 53.5 15.5t18.5 54.5l-1 11h68q1 -3 1 -14q0 -79 -58 -110zM278 68q67 0 109.5 47t42.5 122t-43 121q-42 48 -109 48q-66 0 -109 -47.5t-43 -121.5t43 -121.5t109 -47.5z" />
    <glyph glyph-name="uni1EE0" unicode="&#x1ee0;" horiz-adv-x="812" 
d="M317 767l-63 8q-2 8 -2 16q0 39 26.5 64t65.5 25q41 0 77 -31q22 -21 43 -21q15 0 24.5 9.5t9.5 24.5q0 8 -3 16l64 -8q2 -8 2 -16q0 -39 -27 -64t-66 -25q-41 0 -77 31q-22 21 -43 21q-15 0 -24.5 -9.5t-9.5 -24.5q0 -8 3 -16zM590 662q82 -48 130.5 -131.5t47.5 -180.5
q2 -149 -104.5 -256t-257.5 -104q-151 -3 -257 104t-104 256q-2 148 104 255.5t257 104.5q44 1 91 -10q32 0 54 15t19 55l-1 11h68q1 -3 1 -14q0 -71 -48 -105zM406 77q113 0 189 76t76 197t-75 197t-190 76t-190 -76t-75 -198q0 -121 75.5 -196.5t189.5 -75.5z" />
    <glyph glyph-name="uni1EE1" unicode="&#x1ee1;" horiz-adv-x="556" 
d="M189 541l-63 8q-2 8 -2 16q0 39 26.5 64t65.5 25q41 0 77 -31q22 -21 43 -21q15 0 24.5 9.5t9.5 24.5q0 9 -3 16l64 -8q2 -8 2 -16q0 -39 -27 -64t-66 -25q-41 0 -77 31q-22 21 -43 21q-15 0 -24.5 -9.5t-9.5 -24.5q0 -9 3 -16zM433 431q86 -72 86 -194
q0 -106 -67.5 -176.5t-173.5 -70.5t-173 70.5t-67 176.5t67 176.5t173 70.5q40 0 73 -10q32 0 53.5 15.5t18.5 54.5l-1 11h68q1 -3 1 -14q0 -79 -58 -110zM278 68q67 0 109.5 47t42.5 122t-43 121q-42 48 -109 48q-66 0 -109 -47.5t-43 -121.5t43 -121.5t109 -47.5z" />
    <glyph glyph-name="uni1EE2" unicode="&#x1ee2;" horiz-adv-x="812" 
d="M590 662q82 -48 130.5 -131.5t47.5 -180.5q2 -149 -104.5 -256t-257.5 -104q-151 -3 -257 104t-104 256q-2 148 104 255.5t257 104.5q44 1 91 -10q32 0 54 15t19 55l-1 11h68q1 -3 1 -14q0 -71 -48 -105zM406 77q113 0 189 76t76 197t-75 197t-190 76t-190 -76t-75 -198
q0 -121 75.5 -196.5t189.5 -75.5zM358 -166v101h96v-101h-96z" />
    <glyph glyph-name="uni1EE3" unicode="&#x1ee3;" horiz-adv-x="556" 
d="M433 431q86 -72 86 -194q0 -106 -67.5 -176.5t-173.5 -70.5t-173 70.5t-67 176.5t67 176.5t173 70.5q40 0 73 -10q32 0 53.5 15.5t18.5 54.5l-1 11h68q1 -3 1 -14q0 -79 -58 -110zM278 68q67 0 109.5 47t42.5 122t-43 121q-42 48 -109 48q-66 0 -109 -47.5t-43 -121.5
t43 -121.5t109 -47.5zM230 -166v101h96v-101h-96z" />
    <glyph glyph-name="uni1EE4" unicode="&#x1ee4;" horiz-adv-x="715" 
d="M161 700v-411q0 -101 52.5 -156.5t143.5 -55.5q93 0 145 55.5t52 156.5v411h92v-420q0 -128 -78.5 -209t-210.5 -81t-210 80.5t-78 209.5v420h92zM310 -65h96v-101h-96v101z" />
    <glyph glyph-name="uni1EE5" unicode="&#x1ee5;" horiz-adv-x="545" 
d="M479 474v-474h-87v80q-52 -90 -155 -90q-79 0 -124.5 46.5t-45.5 133.5v304h86v-284q0 -124 107 -124q57 0 94.5 43t37.5 113v252h87zM225 -65h96v-101h-96v101z" />
    <glyph glyph-name="uni1EE6" unicode="&#x1ee6;" horiz-adv-x="715" 
d="M461 879q0 -24 -7.5 -40t-14.5 -21.5t-20 -12.5q-11 -6 -16 -9.5t-9 -13.5t-4 -26h-67q-1 26 7 45t15.5 25.5t22.5 15.5q26 17 26 37q0 12 -9 19.5t-24 7.5q-39 0 -51 -50l-57 33q26 72 108 74q44 1 72 -22.5t28 -61.5zM161 700v-411q0 -101 52.5 -156.5t143.5 -55.5
q93 0 145 55.5t52 156.5v411h92v-420q0 -128 -78.5 -209t-210.5 -81t-210 80.5t-78 209.5v420h92z" />
    <glyph glyph-name="uni1EE7" unicode="&#x1ee7;" horiz-adv-x="545" 
d="M376 653q0 -24 -7.5 -40t-14.5 -21.5t-20 -12.5q-11 -6 -16 -9.5t-9 -13.5t-4 -26h-67q-1 26 7 45t15.5 25.5t22.5 15.5q26 17 26 37q0 12 -9 19.5t-24 7.5q-39 0 -51 -50l-57 33q26 72 108 74q44 1 72 -22.5t28 -61.5zM479 474v-474h-87v80q-52 -90 -155 -90
q-79 0 -124.5 46.5t-45.5 133.5v304h86v-284q0 -124 107 -124q57 0 94.5 43t37.5 113v252h87z" />
    <glyph glyph-name="uni1EE8" unicode="&#x1ee8;" horiz-adv-x="715" 
d="M529 875l-121 -119h-83l87 133h117v-14zM735 767q0 -99 -89 -123v-364q0 -128 -78.5 -209t-210.5 -81t-210 80.5t-78 209.5v420h92v-411q0 -101 52.5 -156.5t143.5 -55.5q93 0 145 55.5t52 156.5v411h39q32 0 54.5 15t19.5 55l-1 11h68q1 -3 1 -14z" />
    <glyph glyph-name="uni1EE9" unicode="&#x1ee9;" horiz-adv-x="545" 
d="M444 649l-121 -119h-83l87 133h117v-14zM565 541q0 -97 -86 -122v-419h-87v80q-52 -90 -155 -90q-79 0 -124.5 46.5t-45.5 133.5v304h86v-284q0 -124 107 -124q57 0 94.5 43t37.5 113v252h31q32 0 54.5 15t19.5 55l-1 11h68q1 -3 1 -14z" />
    <glyph glyph-name="uni1EEA" unicode="&#x1eea;" horiz-adv-x="715" 
d="M390 761h-83l-121 119v14h117zM735 767q0 -99 -89 -123v-364q0 -128 -78.5 -209t-210.5 -81t-210 80.5t-78 209.5v420h92v-411q0 -101 52.5 -156.5t143.5 -55.5q93 0 145 55.5t52 156.5v411h39q32 0 54.5 15t19.5 55l-1 11h68q1 -3 1 -14z" />
    <glyph glyph-name="uni1EEB" unicode="&#x1eeb;" horiz-adv-x="545" 
d="M305 535h-83l-121 119v14h117zM565 541q0 -97 -86 -122v-419h-87v80q-52 -90 -155 -90q-79 0 -124.5 46.5t-45.5 133.5v304h86v-284q0 -124 107 -124q57 0 94.5 43t37.5 113v252h31q32 0 54.5 15t19.5 55l-1 11h68q1 -3 1 -14z" />
    <glyph glyph-name="uni1EEC" unicode="&#x1eec;" horiz-adv-x="715" 
d="M361 906q-39 0 -51 -50l-57 33q26 72 108 74q44 1 72 -22.5t28 -61.5q0 -24 -7.5 -40t-14.5 -21.5t-20 -12.5q-11 -6 -16 -9.5t-9 -13.5t-4 -26h-67q-1 26 7 45t15.5 25.5t22.5 15.5q26 17 26 37q0 12 -9 19.5t-24 7.5zM735 767q0 -99 -89 -123v-364q0 -128 -78.5 -209
t-210.5 -81t-210 80.5t-78 209.5v420h92v-411q0 -101 52.5 -156.5t143.5 -55.5q93 0 145 55.5t52 156.5v411h39q32 0 54.5 15t19.5 55l-1 11h68q1 -3 1 -14z" />
    <glyph glyph-name="uni1EED" unicode="&#x1eed;" horiz-adv-x="545" 
d="M276 680q-39 0 -51 -50l-57 33q26 72 108 74q44 1 72 -22.5t28 -61.5q0 -24 -7.5 -40t-14.5 -21.5t-20 -12.5q-11 -6 -16 -9.5t-9 -13.5t-4 -26h-67q-1 26 7 45t15.5 25.5t22.5 15.5q26 17 26 37q0 12 -9 19.5t-24 7.5zM565 541q0 -97 -86 -122v-419h-87v80
q-52 -90 -155 -90q-79 0 -124.5 46.5t-45.5 133.5v304h86v-284q0 -124 107 -124q57 0 94.5 43t37.5 113v252h31q32 0 54.5 15t19.5 55l-1 11h68q1 -3 1 -14z" />
    <glyph glyph-name="uni1EEE" unicode="&#x1eee;" horiz-adv-x="715" 
d="M269 767l-63 8q-2 8 -2 16q0 39 26.5 64t65.5 25q41 0 77 -31q22 -21 43 -21q15 0 24.5 9.5t9.5 24.5q0 8 -3 16l64 -8q2 -8 2 -16q0 -39 -27 -64t-66 -25q-41 0 -77 31q-22 21 -43 21q-15 0 -24.5 -9.5t-9.5 -24.5q0 -8 3 -16zM735 767q0 -99 -89 -123v-364
q0 -128 -78.5 -209t-210.5 -81t-210 80.5t-78 209.5v420h92v-411q0 -101 52.5 -156.5t143.5 -55.5q93 0 145 55.5t52 156.5v411h39q32 0 54.5 15t19.5 55l-1 11h68q1 -3 1 -14z" />
    <glyph glyph-name="uni1EEF" unicode="&#x1eef;" horiz-adv-x="545" 
d="M184 541l-63 8q-2 8 -2 16q0 39 26.5 64t65.5 25q41 0 77 -31q22 -21 43 -21q15 0 24.5 9.5t9.5 24.5q0 9 -3 16l64 -8q2 -8 2 -16q0 -39 -27 -64t-66 -25q-41 0 -77 31q-22 21 -43 21q-15 0 -24.5 -9.5t-9.5 -24.5q0 -9 3 -16zM565 541q0 -97 -86 -122v-419h-87v80
q-52 -90 -155 -90q-79 0 -124.5 46.5t-45.5 133.5v304h86v-284q0 -124 107 -124q57 0 94.5 43t37.5 113v252h31q32 0 54.5 15t19.5 55l-1 11h68q1 -3 1 -14z" />
    <glyph glyph-name="uni1EF0" unicode="&#x1ef0;" horiz-adv-x="715" 
d="M735 767q0 -99 -89 -123v-364q0 -128 -78.5 -209t-210.5 -81t-210 80.5t-78 209.5v420h92v-411q0 -101 52.5 -156.5t143.5 -55.5q93 0 145 55.5t52 156.5v411h39q32 0 54.5 15t19.5 55l-1 11h68q1 -3 1 -14zM310 -166v101h96v-101h-96z" />
    <glyph glyph-name="uni1EF1" unicode="&#x1ef1;" horiz-adv-x="545" 
d="M565 541q0 -97 -86 -122v-419h-87v80q-52 -90 -155 -90q-79 0 -124.5 46.5t-45.5 133.5v304h86v-284q0 -124 107 -124q57 0 94.5 43t37.5 113v252h31q32 0 54.5 15t19.5 55l-1 11h68q1 -3 1 -14zM225 -166v101h96v-101h-96z" />
    <glyph glyph-name="Ygrave" unicode="&#x1ef2;" horiz-adv-x="672" 
d="M164 880v14h117l87 -133h-83zM336 369l218 331h105l-277 -412v-288h-92v288l-276 412h110z" />
    <glyph glyph-name="ygrave" unicode="&#x1ef3;" horiz-adv-x="481" 
d="M69 654v14h117l87 -133h-83zM468 474l-304 -672h-92l117 259l-181 413h94l133 -312l141 312h92z" />
    <glyph glyph-name="uni1EF4" unicode="&#x1ef4;" horiz-adv-x="672" 
d="M336 369l218 331h105l-277 -412v-288h-92v288l-276 412h110zM288 -65h96v-101h-96v101z" />
    <glyph glyph-name="uni1EF5" unicode="&#x1ef5;" horiz-adv-x="481" 
d="M468 474l-304 -672h-92l117 259l-181 413h94l133 -312l141 312h92zM280 -65h96v-101h-96v101z" />
    <glyph glyph-name="uni1EF6" unicode="&#x1ef6;" horiz-adv-x="672" 
d="M439 879q0 -24 -7.5 -40t-14.5 -21.5t-20 -12.5q-11 -6 -16 -9.5t-9 -13.5t-4 -26h-67q-1 26 7 45t15.5 25.5t22.5 15.5q26 17 26 37q0 12 -9 19.5t-24 7.5q-39 0 -51 -50l-57 33q26 72 108 74q44 1 72 -22.5t28 -61.5zM336 369l218 331h105l-277 -412v-288h-92v288
l-276 412h110z" />
    <glyph glyph-name="uni1EF7" unicode="&#x1ef7;" horiz-adv-x="481" 
d="M344 653q0 -24 -7.5 -40t-14.5 -21.5t-20 -12.5q-11 -6 -16 -9.5t-9 -13.5t-4 -26h-67q-1 26 7 45t15.5 25.5t22.5 15.5q26 17 26 37q0 12 -9 19.5t-24 7.5q-39 0 -51 -50l-57 33q26 72 108 74q44 1 72 -22.5t28 -61.5zM468 474l-304 -672h-92l117 259l-181 413h94
l133 -312l141 312h92z" />
    <glyph glyph-name="uni1EF8" unicode="&#x1ef8;" horiz-adv-x="672" 
d="M321 796q-22 21 -43 21q-15 0 -24.5 -9.5t-9.5 -24.5q0 -8 3 -16l-63 8q-2 8 -2 16q0 39 26.5 64t65.5 25q41 0 77 -31q22 -21 43 -21q15 0 24.5 9.5t9.5 24.5q0 8 -3 16l64 -8q2 -8 2 -16q0 -39 -27 -64t-66 -25q-41 0 -77 31zM336 369l218 331h105l-277 -412v-288h-92
v288l-276 412h110z" />
    <glyph glyph-name="uni1EF9" unicode="&#x1ef9;" horiz-adv-x="481" 
d="M226 570q-22 21 -43 21q-15 0 -24.5 -9.5t-9.5 -24.5q0 -9 3 -16l-63 8q-2 8 -2 16q0 39 26.5 64t65.5 25q41 0 77 -31q22 -21 43 -21q15 0 24.5 9.5t9.5 24.5q0 9 -3 16l64 -8q2 -8 2 -16q0 -39 -27 -64t-66 -25q-41 0 -77 31zM468 474l-304 -672h-92l117 259l-181 413
h94l133 -312l141 312h92z" />
    <glyph glyph-name="endash" unicode="&#x2013;" horiz-adv-x="641" 
d="M592 292v-78h-543v78h543z" />
    <glyph glyph-name="emdash" unicode="&#x2014;" horiz-adv-x="886" 
d="M837 292v-78h-788v78h788z" />
    <glyph glyph-name="quoteleft" unicode="&#x2018;" horiz-adv-x="222" 
d="M48 483v133q0 84 94 84h32v-52h-35q-39 0 -39 -30t35 -30h18v-105h-105z" />
    <glyph glyph-name="quoteright" unicode="&#x2019;" horiz-adv-x="222" 
d="M174 700v-132q0 -85 -94 -85h-32v53h34q40 0 40 29q0 30 -35 30h-18v105h105z" />
    <glyph glyph-name="quotesinglbase" unicode="&#x201a;" horiz-adv-x="222" 
d="M174 105v-133q0 -84 -94 -84h-32v52h34q40 0 40 30t-35 30h-18v105h105z" />
    <glyph glyph-name="quotedblleft" unicode="&#x201c;" horiz-adv-x="382" 
d="M48 616q0 84 94 84h32v-52h-35q-39 0 -39 -30t35 -30h18v-105h-105v133zM208 616q0 84 94 84h33v-52h-35q-39 0 -39 -30t34 -30h18v-105h-105v133z" />
    <glyph glyph-name="quotedblright" unicode="&#x201d;" horiz-adv-x="382" 
d="M48 536h34q40 0 40 29q0 30 -35 30h-18v105h105v-132q0 -85 -94 -85h-32v53zM208 536h35q39 0 39 29q0 30 -34 30h-18v105h105v-132q0 -85 -94 -85h-33v53z" />
    <glyph glyph-name="quotedblbase" unicode="&#x201e;" horiz-adv-x="393" 
d="M42 -60h35q39 0 39 30t-34 30h-18v105h104v-133q0 -84 -93 -84h-33v52zM203 -60h35q39 0 39 30t-35 30h-18v105h105v-133q0 -84 -94 -84h-32v52z" />
    <glyph glyph-name="dagger" unicode="&#x2020;" horiz-adv-x="400" 
d="M165 566h-112v69h112v121h71v-121h111v-69h-111v-296h-71v296z" />
    <glyph glyph-name="daggerdbl" unicode="&#x2021;" horiz-adv-x="400" 
d="M165 405h-112v69h112v92h-112v69h112v121h71v-121h111v-69h-111v-92h111v-69h-111v-135h-71v135z" />
    <glyph glyph-name="bullet" unicode="&#x2022;" horiz-adv-x="249" 
d="M183 349v-118h-117v118h117z" />
    <glyph glyph-name="ellipsis" unicode="&#x2026;" horiz-adv-x="616" 
d="M170 105v-105h-104v105h104zM360 105v-105h-104v105h104zM550 105v-105h-104v105h104z" />
    <glyph glyph-name="perthousand" unicode="&#x2030;" horiz-adv-x="1118" 
d="M38 533q0 77 49 127t127 50t127.5 -50.5t49.5 -126.5t-49.5 -126.5t-127.5 -50.5t-127 50t-49 127zM316 533q0 48 -28 78t-74 30q-45 0 -73 -30t-28 -78t28 -78t73 -30q46 0 74 30t28 78zM141 136l499 478l51 -52l-499 -478zM449 167q0 76 49.5 126.5t127.5 50.5
q93 0 138 -79q47 79 139 79q78 0 127.5 -50.5t49.5 -126.5t-49.5 -126.5t-127.5 -50.5q-91 0 -139 79q-46 -79 -138 -79q-78 0 -127.5 50.5t-49.5 126.5zM727 167q0 48 -28 78t-73 30q-46 0 -74 -30t-28 -78t28 -78t74 -30q45 0 73 30t28 78zM1005 167q0 48 -28 78t-74 30
q-45 0 -73 -30t-28 -78t28 -78t73 -30q46 0 74 30t28 78z" />
    <glyph glyph-name="guilsinglleft" unicode="&#x2039;" horiz-adv-x="322" 
d="M51 288v24l202 198h14v-96l-124 -107v-14l124 -107v-96h-14z" />
    <glyph glyph-name="guilsinglright" unicode="&#x203a;" horiz-adv-x="322" 
d="M56 186l124 107v14l-124 107v96h14l202 -198v-24l-202 -198h-14v96z" />
    <glyph glyph-name="uni203D" unicode="&#x203d;" horiz-adv-x="566" 
d="M224 623q-47 -15 -73 -51t-26 -88q0 -45 29 -88l-69 -43q-43 61 -43 130q0 86 49 144q50 60 133 77v46h84v-41q100 -6 157.5 -64.5t57.5 -138.5q0 -131 -113 -190q-39 -20 -59 -34q-43 -29 -43 -89v-18h-84v448zM352 370q46 22 66.5 53t20.5 78q0 54 -36.5 89.5
t-94.5 40.5v-296q11 18 44 35zM214 105h104v-105h-104v105z" />
    <glyph glyph-name="uni2042" unicode="&#x2042;" horiz-adv-x="926" 
d="M503 723v-71l-31 -96l86 61l67 22l24 -76l-67 -22h-104l83 -60l41 -57l-65 -46l-41 57l-33 100l-33 -100l-41 -57l-66 46l42 57l83 60h-105l-66 22l24 76l67 -22l86 -61l-31 96v71h80zM183 -23v71l31 96l-86 -61l-67 -22l-24 76l66 22h105l-83 60l-42 57l66 46l41 -57
l33 -100l33 100l41 57l65 -46l-41 -57l-83 -60h104l67 -22l-24 -76l-67 22l-86 61l31 -96v-71h-80zM663 -23v71l31 96l-86 -61l-67 -22l-24 76l66 22h105l-83 60l-42 57l66 46l41 -57l33 -100l33 100l41 57l65 -46l-41 -57l-83 -60h104l67 -22l-24 -76l-67 22l-86 61l31 -96
v-71h-80z" />
    <glyph glyph-name="fraction" unicode="&#x2044;" horiz-adv-x="142" 
d="M336 549l-486 -464l-45 43l487 464z" />
    <glyph glyph-name="uni2051" unicode="&#x2051;" horiz-adv-x="446" 
d="M263 723v-71l-31 -96l86 61l67 22l24 -76l-67 -22h-104l83 -60l41 -57l-65 -46l-41 57l-33 100l-33 -100l-41 -57l-66 46l42 57l83 60h-105l-66 22l24 76l67 -22l86 -61l-31 96v71h80zM183 -23v71l31 96l-86 -61l-67 -22l-24 76l66 22h105l-83 60l-42 57l66 46l41 -57
l33 -100l33 100l41 57l65 -46l-41 -57l-83 -60h104l67 -22l-24 -76l-67 22l-86 61l31 -96v-71h-80z" />
    <glyph glyph-name="uni2055" unicode="&#x2055;" horiz-adv-x="800" 
d="M760 309h-261l185 -185l-58 -58l-185 185v-261h-82v261l-185 -185l-58 58l185 185h-261v82h261l-185 185l58 58l185 -185v261h82v-261l185 185l58 -58l-185 -185h261v-82z" />
    <glyph glyph-name="uni2070" unicode="&#x2070;" horiz-adv-x="367" 
d="M36 530q0 80 41.5 127t106.5 47t106.5 -47t41.5 -127t-41.5 -127t-106.5 -47t-106.5 47t-41.5 127zM269 530q0 56 -23.5 87t-61.5 31t-62 -31t-24 -87q0 -55 24 -86.5t62 -31.5t61.5 31t23.5 87z" />
    <glyph glyph-name="uni2074" unicode="&#x2074;" horiz-adv-x="300" 
d="M185 435h-160v64q38 37 54 77t16 102v22h61v-22q0 -118 -65 -186h94v103h61v-103h42v-57h-42v-75h-61v75z" />
    <glyph glyph-name="uni2075" unicode="&#x2075;" horiz-adv-x="316" 
d="M262 644h-162q0 -45 -12 -90q25 36 80 36q49 0 80.5 -30t31.5 -81q0 -57 -33 -90t-90 -33q-49 0 -83.5 26.5t-40.5 73.5l60 14q11 -57 64 -57q29 0 45.5 17t16.5 45q0 27 -16.5 43.5t-45.5 16.5q-19 0 -35.5 -10t-22.5 -24l-62 17q15 100 15 182h210v-56z" />
    <glyph glyph-name="uni2076" unicode="&#x2076;" horiz-adv-x="326" 
d="M36 531q0 77 35.5 125t98.5 48q99 0 116 -87l-52 -14q-10 48 -66 48q-33 0 -53.5 -29.5t-20.5 -82.5v-6q10 22 32.5 35.5t51.5 13.5q50 0 81 -30t31 -79q0 -51 -33.5 -84t-84.5 -33q-65 0 -100.5 47t-35.5 128zM232 470q0 27 -17.5 44t-44.5 17t-45 -17t-18 -44t18 -44
t45 -17t44.5 17t17.5 44z" />
    <glyph glyph-name="uni2077" unicode="&#x2077;" horiz-adv-x="282" 
d="M255 700v-51q-53 -40 -79.5 -89.5t-26.5 -120.5q0 -37 6 -79h-61q-5 37 -5 69q0 131 90 215h-152v56h228z" />
    <glyph glyph-name="uni2078" unicode="&#x2078;" horiz-adv-x="316" 
d="M32 462q0 65 64 88q-45 22 -45 68q0 38 29.5 62t77.5 24t77.5 -24t29.5 -62q0 -46 -45 -68q64 -23 64 -88q0 -46 -34 -76t-92 -30t-92 30t-34 76zM210 615q0 42 -52 42q-53 0 -53 -42q0 -20 14.5 -31t38.5 -11t38 11t14 31zM224 466q0 26 -18 41t-48 15t-48 -15t-18 -41
t18.5 -41t47.5 -15t47.5 15t18.5 41z" />
    <glyph glyph-name="uni2079" unicode="&#x2079;" horiz-adv-x="329" 
d="M86 468q13 -59 72 -59q77 0 77 116v6q-22 -49 -83 -49q-50 0 -80.5 30t-30.5 76q0 53 33 84.5t85 31.5q65 0 99.5 -45t34.5 -126q0 -80 -35.5 -128.5t-99.5 -48.5q-50 0 -82.5 26.5t-39.5 69.5zM223 592q0 27 -17.5 43t-44.5 16t-44.5 -16t-17.5 -43t17.5 -43t44.5 -16
t44.5 16.5t17.5 42.5z" />
    <glyph glyph-name="uni2080" unicode="&#x2080;" horiz-adv-x="367" 
d="M36 -28q0 80 41.5 127t106.5 47t106.5 -47t41.5 -127t-41.5 -127t-106.5 -47t-106.5 47t-41.5 127zM269 -28q0 56 -23.5 87t-61.5 31t-62 -31t-24 -87q0 -55 24 -86.5t62 -31.5t61.5 31t23.5 87z" />
    <glyph glyph-name="uni2081" unicode="&#x2081;" horiz-adv-x="211" 
d="M108 56q-23 -48 -83 -53l-9 65q82 6 97 74h56v-340h-61v254z" />
    </font>
</defs>
</svg>
