<svg xmlns="http://www.w3.org/2000/svg" viewBox="0 0 42 38.84"><defs><style>.cls-1{fill:#f37723;}</style></defs><title>Asset 7</title><g id="Layer_2" data-name="Layer 2"><g id="Layer_1-2" data-name="Layer 1"><path class="cls-1" d="M38.37,3.36h-3C34.35,1.25,32.7,0,30.89,0H11.32C8.13,0,5.63,3.8,5.63,8.66s2.52,8.65,5.69,8.65h4.36v.61a4.08,4.08,0,0,0,2.54,3.78,5.72,5.72,0,0,1-5.46,5.38V25.73A3.86,3.86,0,0,0,8.9,21.87h-5A3.86,3.86,0,0,0,0,25.73V35a3.85,3.85,0,0,0,3.86,3.85h5A3.85,3.85,0,0,0,12.76,35V33.62a12.27,12.27,0,0,0,12-11.91,4.08,4.08,0,0,0,2.57-3.79v-.61h3.55c1.8,0,3.45-1.24,4.51-3.36h3c2,0,3.64-2.32,3.64-5.29S40.41,3.36,38.37,3.36Zm-4.79,8.45c-.61,0-1.5-1.23-1.5-3.15S33,5.5,33.58,5.5h1.85a7.06,7.06,0,0,0-.71,3.16,7,7,0,0,0,.71,3.15ZM7.78,8.66c0-3.47,1.65-6.52,3.54-6.52H27.11A11.06,11.06,0,0,0,25.2,8.66a11,11,0,0,0,1.91,6.51H11.32C9.43,15.17,7.78,12.14,7.78,8.66ZM8.9,36.71h-5A1.72,1.72,0,0,1,2.14,35V25.73A1.71,1.71,0,0,1,3.86,24h5a1.7,1.7,0,0,1,1.71,1.71v1.36H7.88a3.27,3.27,0,0,0-.23,6.54h3V35A1.72,1.72,0,0,1,8.9,36.71Zm3.62-5.23H7.88a1.13,1.13,0,0,1-.14-2.25h4.78A7.86,7.86,0,0,0,20.35,22h2.27A10.12,10.12,0,0,1,12.52,31.48ZM25.2,17.92a1.92,1.92,0,0,1-1.93,1.93H19.75a1.93,1.93,0,0,1-1.93-1.93h0v-.61H25.2Zm5.69-2.75c-1.88,0-3.54-3.05-3.54-6.51S29,2.14,30.89,2.14A2.76,2.76,0,0,1,33,3.43c-1.71.43-3,2.57-3,5.21s1.29,4.79,3,5.22a2.73,2.73,0,0,1-2.06,1.31Zm7.48-3.36c-.61,0-1.49-1.23-1.49-3.15s.88-3.16,1.49-3.16,1.5,1.23,1.5,3.16S39,11.81,38.37,11.81Z"/></g></g></svg>