<svg xmlns="http://www.w3.org/2000/svg" viewBox="0 0 42.26 46.59"><defs><style>.cls-1{fill:#ef4136;}</style></defs><title>Asset 4</title><g id="Layer_2" data-name="Layer 2"><g id="Layer_1-2" data-name="Layer 1"><path class="cls-1" d="M21.14,0a1.68,1.68,0,0,0-1.6,1.66V6a1.62,1.62,0,1,0,3.24,0V1.66A1.68,1.68,0,0,0,21.14,0Zm-11,5.43a1.63,1.63,0,0,0-1,2.78l2.16,2.16a1.62,1.62,0,1,0,2.29-2.28L11.5,5.92A1.65,1.65,0,0,0,10.17,5.43Zm21.61,0a1.62,1.62,0,0,0-1,.49L28.66,8.09A1.62,1.62,0,1,0,31,10.37l2.17-2.16a1.63,1.63,0,0,0-1.34-2.78ZM20.62,8.7a9.05,9.05,0,0,0-1.84.3A9.2,9.2,0,0,0,16.3,25.7v7.36a1.68,1.68,0,0,0,1.62,1.62H24.4A1.68,1.68,0,0,0,26,33.06V25.7a9.21,9.21,0,0,0-5.4-17Zm.2,3.26a6,6,0,1,1-1.2.2,7.33,7.33,0,0,1,1.2-.2Zm-16,4.31A1.63,1.63,0,0,0,5,19.52H9.27a1.63,1.63,0,1,0,0-3.25Zm28.1,0a1.63,1.63,0,1,0,.17,3.25h4.32a1.63,1.63,0,1,0,0-3.25ZM19.54,27a9.27,9.27,0,0,0,3.24,0v4.46H19.54Zm11.35,9.9a4.9,4.9,0,0,0-4.58,3.24H1.54a1.63,1.63,0,0,0,.17,3.25h24.6a4.85,4.85,0,0,0,9.15,0h5.15a1.63,1.63,0,1,0,0-3.25H35.46A4.87,4.87,0,0,0,30.89,36.85Zm0,3.24a1.63,1.63,0,1,1-1.62,1.63A1.6,1.6,0,0,1,30.89,40.09Z"/></g></g></svg>