<svg xmlns="http://www.w3.org/2000/svg" viewBox="0 0 42.26 33.24"><defs><style>.cls-1{fill:#92278f;}</style></defs><title>Asset 8</title><g id="Layer_2" data-name="Layer 2"><g id="Layer_1-2" data-name="Layer 1"><path class="cls-1" d="M25.18,25a.94.94,0,0,0-1.23.09,6.45,6.45,0,0,0,0,7.84.88.88,0,0,0,1.32-1.15,4.61,4.61,0,0,1,0-5.55A.86.86,0,0,0,25.18,25Z"/><path class="cls-1" d="M38.74,0H3.52A3.53,3.53,0,0,0,0,3.52v16.9A3.53,3.53,0,0,0,3.52,24H38.74a3.54,3.54,0,0,0,3.52-3.53V3.52A3.53,3.53,0,0,0,38.74,0ZM9.16,22.27l1.58-3.87H31.52l1.58,3.87ZM40.5,20.51a1.77,1.77,0,0,1-1.76,1.76H35l-2-5.1a.84.84,0,0,0-.8-.53h-22a.88.88,0,0,0-.79.53l-2,5.1H3.52a1.76,1.76,0,0,1-1.76-1.76v-17A1.76,1.76,0,0,1,3.52,1.76H38.74A1.77,1.77,0,0,1,40.5,3.52Z"/><path class="cls-1" d="M35.39,5.28H6.87A.83.83,0,0,0,6,6.16.83.83,0,0,0,6.87,7H35.39a.83.83,0,0,0,.88-.88A.88.88,0,0,0,35.39,5.28Z"/><path class="cls-1" d="M35.39,9.6H6.87a.88.88,0,0,0,0,1.76H35.39a.83.83,0,0,0,.88-.88A.88.88,0,0,0,35.39,9.6Z"/><path class="cls-1" d="M29.4,25a.94.94,0,0,0-1.23.09,6.48,6.48,0,0,0,0,7.84.88.88,0,0,0,1.32-1.15,4.64,4.64,0,0,1,0-5.55A.85.85,0,0,0,29.4,25Z"/><path class="cls-1" d="M12.85,25a1,1,0,0,1,1.24.09,6.48,6.48,0,0,1,0,7.84.86.86,0,0,1-1.24.08.84.84,0,0,1-.08-1.23,4.64,4.64,0,0,0,0-5.55A.85.85,0,0,1,12.85,25Z"/><path class="cls-1" d="M17,25a.94.94,0,0,1,1.23.09,6.48,6.48,0,0,1,0,7.84.88.88,0,0,1-1.32-1.15,4.61,4.61,0,0,0,0-5.55A1,1,0,0,1,17,25Z"/></g></g></svg>