<svg xmlns="http://www.w3.org/2000/svg" viewBox="0 0 44.46 36.04"><defs><style>.cls-1{fill:#00a651;}</style></defs><title>Asset 5</title><g id="Layer_2" data-name="Layer 2"><g id="Layer_1-2" data-name="Layer 1"><path class="cls-1" d="M41.07,0H3.45A3.43,3.43,0,0,0,0,3.45V32.59A3.43,3.43,0,0,0,3.45,36H41a3.43,3.43,0,0,0,3.44-3.45V3.4A3.41,3.41,0,0,0,41.07,0ZM3.45,2.39H41a1.07,1.07,0,0,1,1,1.06v5H2.44v-5A1,1,0,0,1,3.45,2.39ZM41.07,33.6H3.45a1.07,1.07,0,0,1-1.06-1.05V10.77H42.07V32.55A1,1,0,0,1,41.07,33.6ZM8.81,5.36A1.44,1.44,0,1,1,10.24,6.8,1.42,1.42,0,0,1,8.81,5.36Zm4.78,0A1.45,1.45,0,0,1,15,3.92a1.47,1.47,0,0,1,1.43,1.44,1.44,1.44,0,1,1-2.87,0ZM4,5.36A1.45,1.45,0,0,1,5.46,3.92,1.47,1.47,0,0,1,6.89,5.36,1.44,1.44,0,1,1,4,5.36ZM33.5,28.48a1.17,1.17,0,0,1-1.19,1.19H20.68a1.2,1.2,0,1,1,0-2.39H32.31A1.18,1.18,0,0,1,33.5,28.48ZM14.36,25.13a3.35,3.35,0,1,0,3.35,3.35A3.32,3.32,0,0,0,14.36,25.13Zm0,4.31a1,1,0,1,1,1-1A1,1,0,0,1,14.36,29.44ZM11,22.4a1.18,1.18,0,0,1,1.19-1.2H23.69a1.2,1.2,0,0,1,0,2.4H12.2A1.21,1.21,0,0,1,11,22.4Zm19.14-3.35A3.35,3.35,0,1,0,33.5,22.4,3.33,3.33,0,0,0,30.15,19.05Zm0,4.31a1,1,0,1,1,1-1A1,1,0,0,1,30.15,23.36Zm3.35-7.09a1.18,1.18,0,0,1-1.19,1.2H20.68a1.2,1.2,0,1,1,0-2.39H32.31A1.17,1.17,0,0,1,33.5,16.27ZM14.36,19.62A3.35,3.35,0,1,0,11,16.27,3.39,3.39,0,0,0,14.36,19.62Zm0-4.3a1,1,0,1,1-1,.95A1,1,0,0,1,14.36,15.32Z"/></g></g></svg>