<svg xmlns="http://www.w3.org/2000/svg" viewBox="0 0 42 41.99"><defs><style>.cls-1{fill:#ef4136;}</style></defs><title>Asset 6</title><g id="Layer_2" data-name="Layer 2"><g id="Layer_1-2" data-name="Layer 1"><path class="cls-1" d="M38.81,8.65l1-1a2.28,2.28,0,0,0,0-3.22L37.3,1.93a2.29,2.29,0,0,0-3.22,0l-1,1L30.54.38a1.37,1.37,0,0,0-1.9,0L26.15,2.87l-.8-.81a1.54,1.54,0,0,0-1.09-.45h0a1.56,1.56,0,0,0-1.1.45L19.39,5.83a1.56,1.56,0,0,0,0,2.19l4.15,4.14L12.17,23.52,8,19.38a1.56,1.56,0,0,0-2.19,0L2.07,23.15a1.54,1.54,0,0,0-.45,1.09,1.52,1.52,0,0,0,.45,1.09l.81.81L.39,28.63a1.35,1.35,0,0,0,0,1.9l2.55,2.55-1,1a2.26,2.26,0,0,0,0,3.21l2.51,2.51a2.23,2.23,0,0,0,1.6.67,2.29,2.29,0,0,0,1.61-.67l1-1,2.8,2.79a1.33,1.33,0,0,0,1.9,0l2.49-2.48.8.8a1.55,1.55,0,0,0,1.09.45,1.57,1.57,0,0,0,1.1-.45l3.77-3.77a1.55,1.55,0,0,0,0-2.18l-4.15-4.15L29.83,18.45,34,22.59a1.55,1.55,0,0,0,1.09.45,1.57,1.57,0,0,0,1.1-.45l3.77-3.77a1.55,1.55,0,0,0,0-2.18l-.81-.81,2.49-2.48A1.36,1.36,0,0,0,42,12.4a1.38,1.38,0,0,0-.39-1ZM35.23,3.08a.6.6,0,0,1,.46-.19.62.62,0,0,1,.46.19l2.51,2.51a.64.64,0,0,1,0,.92l-1,1L34.23,4.07ZM6.52,38.65a.66.66,0,0,1-.92,0L3.09,36.14a.67.67,0,0,1,0-.93l1-1,3.44,3.43Zm5.89,1.61L1.73,29.58,4,27.29,14.7,38Zm9-5.21-3.67,3.67L16,37h0l-3.53-3.53L3.27,24.24l3.67-3.66Zm-4.09-6.38-4-4L24.68,13.3l4,4ZM35.06,21.4,20.59,6.92l3.67-3.66L38.73,17.73ZM38,14.69,27.3,4l2.29-2.29L40.27,12.4Z"/></g></g></svg>