<svg xmlns="http://www.w3.org/2000/svg" viewBox="0 0 37.17 42.59"><defs><style>.cls-1{fill:#00aeef;}</style></defs><title>Asset 3</title><g id="Layer_2" data-name="Layer 2"><g id="Layer_1-2" data-name="Layer 1"><path class="cls-1" d="M24.91,25.52a.7.7,0,0,0-1,0l-3.14,3.33a.7.7,0,0,0,0,1l3.14,3.33a.68.68,0,0,0,.51.22.7.7,0,0,0,.51-1.17l-2.69-2.86,2.69-2.85A.69.69,0,0,0,24.91,25.52Zm8.77,3.36-3.14-3.34a.71.71,0,0,0-1,0,.7.7,0,0,0,0,1l2.69,2.85L29.53,32.2a.69.69,0,0,0,.5,1.18.68.68,0,0,0,.51-.22l3.14-3.33A.68.68,0,0,0,33.68,28.88Zm-5.49-3.49a.7.7,0,0,0-.84.51l-1.59,6.58a.7.7,0,0,0,.51.84l.16,0a.71.71,0,0,0,.68-.53l1.6-6.58A.7.7,0,0,0,28.19,25.39Zm-1-5.77a9.92,9.92,0,0,0-1.55.14V14.08a1.16,1.16,0,0,0,1.16-1.16V9.87a1.16,1.16,0,0,0-1.16-1.16v-5A3.49,3.49,0,0,0,22.19.21H3.69A3.48,3.48,0,0,0,.21,3.69V38.9a3.48,3.48,0,0,0,3.48,3.48h18.5A3.49,3.49,0,0,0,25.68,39a9.73,9.73,0,1,0,1.55-19.33ZM24.28,38.9A2.09,2.09,0,0,1,22.19,41H3.69A2.1,2.1,0,0,1,1.6,38.9V7.84H20.68a.7.7,0,0,0,0-1.4H1.6V3.69A2.1,2.1,0,0,1,3.69,1.6h18.5a2.09,2.09,0,0,1,2.09,2.09V20.08a9.73,9.73,0,0,0,0,18.55Zm2.95-1.21a8.34,8.34,0,1,1,8.34-8.34A8.35,8.35,0,0,1,27.23,37.69ZM13.52,34.54a2.68,2.68,0,1,0,2.68,2.68A2.68,2.68,0,0,0,13.52,34.54Zm0,4a1.28,1.28,0,1,1,1.28-1.28A1.28,1.28,0,0,1,13.52,38.5Zm4-35.6A1.08,1.08,0,1,0,18.62,4,1.07,1.07,0,0,0,17.54,2.9Zm0,1.39A.32.32,0,0,1,17.22,4a.33.33,0,0,1,.32-.32.32.32,0,0,1,.32.32A.32.32,0,0,1,17.54,4.29Z"/><path class="cls-1" d="M22.19,42.59H3.69A3.7,3.7,0,0,1,0,38.9V3.69A3.7,3.7,0,0,1,3.69,0h18.5a3.69,3.69,0,0,1,3.69,3.69V8.52A1.37,1.37,0,0,1,27,9.87v3.05a1.37,1.37,0,0,1-1.16,1.35v5.25a9.45,9.45,0,0,1,1.35-.1,9.94,9.94,0,1,1,0,19.87,9.38,9.38,0,0,1-1.36-.1A3.71,3.71,0,0,1,22.19,42.59ZM3.69.41A3.28,3.28,0,0,0,.41,3.69V38.9a3.28,3.28,0,0,0,3.28,3.28h18.5A3.3,3.3,0,0,0,25.47,39v-.24l.24,0a9.36,9.36,0,0,0,1.52.13,9.53,9.53,0,1,0,0-19.05,9.36,9.36,0,0,0-1.52.13l-.24,0V13.88h.21a1,1,0,0,0,.95-1V9.87a1,1,0,0,0-.95-1h-.21V3.69A3.28,3.28,0,0,0,22.19.41Zm18.5,40.78H3.69A2.3,2.3,0,0,1,1.4,38.9V7.63H20.68a.49.49,0,1,0,0-1H1.4v-3a2.3,2.3,0,0,1,2.29-2.3h18.5a2.3,2.3,0,0,1,2.3,2.3V20.23l-.14.05a9.52,9.52,0,0,0,0,18.15l.14,0v.42A2.3,2.3,0,0,1,22.19,41.19ZM1.81,8V38.9a1.88,1.88,0,0,0,1.88,1.88h18.5a1.89,1.89,0,0,0,1.89-1.88v-.12a9.94,9.94,0,0,1,0-18.85V3.69A1.89,1.89,0,0,0,22.19,1.8H3.69A1.89,1.89,0,0,0,1.81,3.69V6.24H20.68a.9.9,0,0,1,0,1.8ZM13.52,40.1a2.88,2.88,0,1,1,2.88-2.88A2.88,2.88,0,0,1,13.52,40.1Zm0-5.35A2.47,2.47,0,1,0,16,37.22,2.48,2.48,0,0,0,13.52,34.75Zm0,4A1.49,1.49,0,1,1,15,37.22,1.49,1.49,0,0,1,13.52,38.71Zm0-2.57a1.08,1.08,0,1,0,1.08,1.08A1.08,1.08,0,0,0,13.52,36.14ZM27.23,37.9a8.55,8.55,0,1,1,8.54-8.55A8.56,8.56,0,0,1,27.23,37.9Zm0-16.68a8.14,8.14,0,1,0,8.13,8.13A8.14,8.14,0,0,0,27.23,21.22Zm-2.8,12.37a.92.92,0,0,1-.66-.29L20.63,30a.9.9,0,0,1,0-1.24l3.14-3.33a.91.91,0,0,1,1.32,1.24l-2.56,2.71,2.56,2.72a.91.91,0,0,1,0,1.27A.9.9,0,0,1,24.43,33.59Zm0-8.06a.51.51,0,0,0-.36.15L20.93,29a.5.5,0,0,0,0,.68L24.07,33a.51.51,0,0,0,.7,0,.49.49,0,0,0,.15-.34.45.45,0,0,0-.13-.35l-2.83-3,2.83-3a.51.51,0,0,0,0-.7A.55.55,0,0,0,24.43,25.53ZM30,33.59a.9.9,0,0,1-.65-1.53l2.56-2.71-2.56-2.71a.9.9,0,0,1,1.31-1.24l3.14,3.34a.89.89,0,0,1,0,1.23L30.69,33.3A.88.88,0,0,1,30,33.59Zm0-8.06a.46.46,0,0,0-.33.13.49.49,0,0,0,0,.7l2.82,3-2.82,3a.48.48,0,0,0,0,.69.5.5,0,0,0,.69,0l3.15-3.33a.5.5,0,0,0,0-.67l-3.15-3.33A.46.46,0,0,0,30,25.53Zm-3.6,8a.82.82,0,0,1-.21,0,.9.9,0,0,1-.66-1.09l1.59-6.58a.9.9,0,0,1,1.09-.66h0a.92.92,0,0,1,.56.4.88.88,0,0,1,.1.69l-1.59,6.57A.9.9,0,0,1,26.43,33.54Zm1.6-8a.51.51,0,0,0-.48.38L26,32.52a.49.49,0,1,0,.95.24l1.6-6.58a.48.48,0,0,0-.06-.37.51.51,0,0,0-.3-.22h0ZM17.54,5.25A1.28,1.28,0,1,1,18.82,4,1.28,1.28,0,0,1,17.54,5.25Zm0-2.15a.87.87,0,1,0,.87.87A.87.87,0,0,0,17.54,3.1Zm0,1.4A.52.52,0,0,1,17,4a.52.52,0,0,1,.52-.52.52.52,0,0,1,.53.52A.53.53,0,0,1,17.54,4.5Zm0-.64a.11.11,0,0,0-.11.11c0,.13.23.13.23,0A.11.11,0,0,0,17.54,3.86Z"/></g></g></svg>